<svg width="320" height="170" viewBox="0 0 320 170" fill="none" xmlns="http://www.w3.org/2000/svg">
<g filter="url(#filter0_bi_46_12411)">
<mask id="path-1-outside-1_46_12411" maskUnits="userSpaceOnUse" x="0" y="0" width="320" height="170" fill="black">
<rect fill="white" width="320" height="170"/>
<path d="M304 160C307.314 160 310.013 157.313 309.88 154.001C309.174 136.351 305.354 118.947 298.582 102.597C291.044 84.3986 279.995 67.8628 266.066 53.934C252.137 40.0052 235.601 28.9563 217.403 21.4181C199.204 13.8799 179.698 10 160 10C140.302 10 120.796 13.8799 102.597 21.4181C84.3986 28.9563 67.8628 40.0052 53.934 53.934C40.0052 67.8628 28.9563 84.3987 21.4181 102.597C14.646 118.947 10.8264 136.351 10.12 154.001C9.98747 157.313 12.6863 160 16 160L97 160C100.314 160 102.967 157.306 103.315 154.011C103.889 148.581 105.241 143.251 107.339 138.187C110.203 131.271 114.402 124.988 119.695 119.695C124.988 114.402 131.271 110.203 138.187 107.339C145.103 104.474 152.515 103 160 103C167.485 103 174.897 104.474 181.813 107.339C188.729 110.203 195.012 114.402 200.305 119.695C205.598 124.988 209.797 131.271 212.661 138.187C214.759 143.251 216.111 148.581 216.684 154.011C217.033 157.306 219.686 160 223 160H304Z"/>
</mask>
<path d="M304 160C307.314 160 310.013 157.313 309.88 154.001C309.174 136.351 305.354 118.947 298.582 102.597C291.044 84.3986 279.995 67.8628 266.066 53.934C252.137 40.0052 235.601 28.9563 217.403 21.4181C199.204 13.8799 179.698 10 160 10C140.302 10 120.796 13.8799 102.597 21.4181C84.3986 28.9563 67.8628 40.0052 53.934 53.934C40.0052 67.8628 28.9563 84.3987 21.4181 102.597C14.646 118.947 10.8264 136.351 10.12 154.001C9.98747 157.313 12.6863 160 16 160L97 160C100.314 160 102.967 157.306 103.315 154.011C103.889 148.581 105.241 143.251 107.339 138.187C110.203 131.271 114.402 124.988 119.695 119.695C124.988 114.402 131.271 110.203 138.187 107.339C145.103 104.474 152.515 103 160 103C167.485 103 174.897 104.474 181.813 107.339C188.729 110.203 195.012 114.402 200.305 119.695C205.598 124.988 209.797 131.271 212.661 138.187C214.759 143.251 216.111 148.581 216.684 154.011C217.033 157.306 219.686 160 223 160H304Z" fill="url(#paint0_linear_46_12411)" fill-opacity="0.5"/>
<path d="M304 160C307.314 160 310.013 157.313 309.88 154.001C309.174 136.351 305.354 118.947 298.582 102.597C291.044 84.3986 279.995 67.8628 266.066 53.934C252.137 40.0052 235.601 28.9563 217.403 21.4181C199.204 13.8799 179.698 10 160 10C140.302 10 120.796 13.8799 102.597 21.4181C84.3986 28.9563 67.8628 40.0052 53.934 53.934C40.0052 67.8628 28.9563 84.3987 21.4181 102.597C14.646 118.947 10.8264 136.351 10.12 154.001C9.98747 157.313 12.6863 160 16 160L97 160C100.314 160 102.967 157.306 103.315 154.011C103.889 148.581 105.241 143.251 107.339 138.187C110.203 131.271 114.402 124.988 119.695 119.695C124.988 114.402 131.271 110.203 138.187 107.339C145.103 104.474 152.515 103 160 103C167.485 103 174.897 104.474 181.813 107.339C188.729 110.203 195.012 114.402 200.305 119.695C205.598 124.988 209.797 131.271 212.661 138.187C214.759 143.251 216.111 148.581 216.684 154.011C217.033 157.306 219.686 160 223 160H304Z" stroke="white" stroke-width="20" mask="url(#path-1-outside-1_46_12411)"/>
</g>
<defs>
<filter id="filter0_bi_46_12411" x="-9.88525" y="-10" width="339.771" height="190" filterUnits="userSpaceOnUse" color-interpolation-filters="sRGB">
<feFlood flood-opacity="0" result="BackgroundImageFix"/>
<feGaussianBlur in="BackgroundImageFix" stdDeviation="5"/>
<feComposite in2="SourceAlpha" operator="in" result="effect1_backgroundBlur_46_12411"/>
<feBlend mode="normal" in="SourceGraphic" in2="effect1_backgroundBlur_46_12411" result="shape"/>
<feColorMatrix in="SourceAlpha" type="matrix" values="0 0 0 0 0 0 0 0 0 0 0 0 0 0 0 0 0 0 127 0" result="hardAlpha"/>
<feOffset dx="10" dy="10"/>
<feGaussianBlur stdDeviation="10"/>
<feComposite in2="hardAlpha" operator="arithmetic" k2="-1" k3="1"/>
<feColorMatrix type="matrix" values="0 0 0 0 0 0 0 0 0 0 0 0 0 0 0 0 0 0 0.3 0"/>
<feBlend mode="normal" in2="shape" result="effect2_innerShadow_46_12411"/>
</filter>
<linearGradient id="paint0_linear_46_12411" x1="10" y1="160" x2="310" y2="160" gradientUnits="userSpaceOnUse">
<stop stop-color="#BD82FF"/>
<stop offset="1" stop-color="#147BFF"/>
</linearGradient>
</defs>
</svg>
