<svg width="30" height="30" viewBox="0 0 30 30" fill="none" xmlns="http://www.w3.org/2000/svg">
<path d="M10.15 12.6C11.5307 12.6 12.65 11.4807 12.65 10.1C12.65 8.71929 11.5307 7.6 10.15 7.6C8.76929 7.6 7.65 8.71929 7.65 10.1C7.65 11.4807 8.76929 12.6 10.15 12.6Z" fill="white"/>
<path fill-rule="evenodd" clip-rule="evenodd" d="M17.8 2.5H12.5C6.97715 2.5 2.5 6.97715 2.5 12.5V17.8C2.5 23.3228 6.97715 27.8 12.5 27.8H17.8C23.3228 27.8 27.8 23.3228 27.8 17.8V12.5C27.8 9.84784 26.7464 7.3043 24.8711 5.42893C22.9957 3.55357 20.4522 2.5 17.8 2.5ZM12.5 4.375H17.8C21.8574 4.38134 25.2882 7.37995 25.8375 11.4H23.9C18.6835 11.4043 13.8599 14.1728 11.225 18.675C9.57953 17.3679 7.53895 16.6583 5.4375 16.6625H4.375V12.5C4.38188 8.01554 8.01554 4.38188 12.5 4.375ZM5.4375 18.5375H4.4125C4.68403 21.4853 6.53735 24.0522 9.25 25.2375C9.33959 23.5689 9.71592 21.9283 10.3625 20.3875C8.99807 19.1964 7.24869 18.5393 5.4375 18.5375ZM17.8 25.925H12.5C12.0301 25.9231 11.5613 25.8771 11.1 25.7875C11.2561 18.8267 16.9374 13.2618 23.9 13.25H25.925V17.8C25.9181 22.2845 22.2845 25.9181 17.8 25.925Z" fill="white"/>
</svg>
