<svg width="30" height="30" viewBox="0 0 30 30" fill="none" xmlns="http://www.w3.org/2000/svg">
<path fill-rule="evenodd" clip-rule="evenodd" d="M13.6349 6.25C14.0811 5.47729 14.9052 5.00092 15.7974 5L15.8099 5.025C17.1907 5.025 18.3099 6.14429 18.3099 7.525V12.6625H20.8599C21.7835 12.6596 22.6334 13.1661 23.0704 13.9798C23.5073 14.7935 23.46 15.7817 22.9474 16.55L17.2599 25.125C16.6471 26.0369 15.5108 26.4419 14.4594 26.123C13.408 25.8041 12.688 24.8362 12.6849 23.7375V20.175H10.0099C9.11501 20.1786 8.28643 19.7035 7.83742 18.9293C7.38841 18.1552 7.38747 17.2 7.83495 16.425L13.6349 6.25ZM16.2475 7.05358C16.1276 6.936 15.9654 6.87164 15.7974 6.875C15.5686 6.87578 15.3601 7.00669 15.2599 7.2125L9.45995 17.3625C9.35385 17.5564 9.35806 17.7919 9.47103 17.9819C9.584 18.1719 9.78891 18.2881 10.0099 18.2875H13.3099C14.0003 18.2875 14.5599 18.8471 14.5599 19.5375V23.725C14.5633 23.9965 14.7416 24.2348 15.0011 24.3147C15.2606 24.3946 15.5421 24.2977 15.6974 24.075L21.4099 15.4875C21.5402 15.2949 21.5527 15.0459 21.4425 14.8411C21.3322 14.6364 21.1175 14.5098 20.8849 14.5125H17.6849C16.9946 14.5125 16.4349 13.9529 16.4349 13.2625V7.5C16.435 7.33205 16.3674 7.17116 16.2475 7.05358Z" fill="white"/>
</svg>
