<svg width="32" height="32" viewBox="0 0 32 32" fill="none" xmlns="http://www.w3.org/2000/svg">
<rect width="32" height="32" rx="16" fill="white"/>
<path fill-rule="evenodd" clip-rule="evenodd" d="M0 16C0 7.16344 7.16344 0 16 0C24.8366 0 32 7.16344 32 16C32 24.8366 24.8366 32 16 32C7.16344 32 0 24.8366 0 16ZM16.0082 22.1074C15.3309 22.1074 14.7819 21.5583 14.7819 20.881V15.812C14.7819 15.1347 15.3309 14.5857 16.0082 14.5857C16.6855 14.5857 17.2346 15.1347 17.2346 15.812V20.9137C17.2086 21.5745 16.6695 22.0992 16.0082 22.1074ZM14.7819 11.8548C14.7819 12.5321 15.3309 13.0812 16.0082 13.0812C16.6695 13.073 17.2086 12.5484 17.2346 11.8875V11.2825C17.2346 10.6052 16.6855 10.0562 16.0082 10.0562C15.3309 10.0562 14.7819 10.6052 14.7819 11.2825V11.8548Z" fill="#212224"/>
</svg>
