<svg width="20" height="20" viewBox="0 0 20 20" fill="none" xmlns="http://www.w3.org/2000/svg">
<circle cx="10" cy="10" r="10" fill="#212224"/>
<path fill-rule="evenodd" clip-rule="evenodd" d="M7.14768 7.14768C6.95077 7.34459 6.95077 7.66383 7.14768 7.86074L9.28714 10.0002L7.14804 12.1393C6.95113 12.3362 6.95113 12.6554 7.14804 12.8524C7.34495 13.0493 7.66419 13.0493 7.8611 12.8524L10.0002 10.7133L12.1391 12.8522C12.336 13.0491 12.6553 13.0491 12.8522 12.8522C13.0491 12.6553 13.0491 12.336 12.8522 12.1391L10.7133 10.0002L12.8525 7.86093C13.0494 7.66403 13.0494 7.34478 12.8525 7.14787C12.6556 6.95097 12.3364 6.95097 12.1395 7.14787L10.0002 9.28714L7.86074 7.14768C7.66383 6.95077 7.34459 6.95077 7.14768 7.14768Z" fill="white"/>
</svg>
