<svg width="144" height="55" viewBox="0 0 144 55" fill="none" xmlns="http://www.w3.org/2000/svg">
<g filter="url(#filter0_d_568_12446)">
<path d="M18.4062 39.6104C15.4277 39.6104 12.8643 38.8698 10.7158 37.3887C8.56738 35.9076 6.91536 33.8079 5.75977 31.0898C4.62044 28.3555 4.05078 25.1247 4.05078 21.3975V21.3486C4.05078 17.6051 4.62044 14.3743 5.75977 11.6562C6.91536 8.93815 8.56738 6.84668 10.7158 5.38184C12.8643 3.90072 15.4277 3.16016 18.4062 3.16016C21.3848 3.16016 23.9401 3.90072 26.0723 5.38184C28.2207 6.84668 29.8727 8.93815 31.0283 11.6562C32.1839 14.3743 32.7617 17.6051 32.7617 21.3486V21.3975C32.7617 25.1247 32.1839 28.3555 31.0283 31.0898C29.8727 33.8079 28.2207 35.9076 26.0723 37.3887C23.9401 38.8698 21.3848 39.6104 18.4062 39.6104ZM18.4062 33.7021C19.8711 33.7021 21.1162 33.2139 22.1416 32.2373C23.167 31.2607 23.9482 29.8529 24.4854 28.0137C25.0387 26.1745 25.3154 23.9691 25.3154 21.3975V21.3486C25.3154 18.7607 25.0387 16.5553 24.4854 14.7324C23.9482 12.8932 23.167 11.4935 22.1416 10.5332C21.1162 9.55664 19.8711 9.06836 18.4062 9.06836C16.9414 9.06836 15.6882 9.55664 14.6465 10.5332C13.6211 11.4935 12.8398 12.8932 12.3027 14.7324C11.7656 16.5553 11.4971 18.7607 11.4971 21.3486V21.3975C11.4971 23.9691 11.7656 26.1745 12.3027 28.0137C12.8398 29.8529 13.6211 31.2607 14.6465 32.2373C15.6882 33.2139 16.9414 33.7021 18.4062 33.7021ZM34.3396 46.3486L36.1218 32.8477H42.8601L39.2712 46.3486H34.3396ZM60.9174 3.16016C63.0496 3.16016 65.0027 3.53451 66.7768 4.2832C68.5671 5.01562 70.1215 6.13053 71.4399 7.62793C72.7745 9.12533 73.7999 10.9971 74.516 13.2432C75.2485 15.473 75.6147 18.0771 75.6147 21.0557V21.1045C75.6147 24.9619 75.0206 28.2741 73.8324 31.041C72.6443 33.7917 70.9516 35.9076 68.7543 37.3887C66.557 38.8698 63.9203 39.6104 60.8442 39.6104C58.5818 39.6104 56.531 39.2035 54.6918 38.3896C52.8689 37.5758 51.3634 36.4691 50.1752 35.0693C48.9871 33.6533 48.2139 32.0339 47.8559 30.2109L47.807 29.9912H55.0824L55.1557 30.1865C55.4487 30.8864 55.8556 31.5049 56.3764 32.042C56.9135 32.5791 57.5564 33.0023 58.3051 33.3115C59.0538 33.6045 59.9083 33.751 60.8686 33.751C62.5938 33.751 64.0017 33.2546 65.0922 32.2617C66.1827 31.2689 67.0046 29.9342 67.558 28.2578C68.1277 26.5651 68.4532 24.6852 68.5346 22.6182C68.5509 22.374 68.559 22.138 68.559 21.9102C68.5753 21.666 68.5834 21.4219 68.5834 21.1777L67.4604 15.3184C67.4604 14.1302 67.1755 13.0641 66.6059 12.1201C66.0362 11.1598 65.2631 10.403 64.2865 9.84961C63.31 9.29622 62.2195 9.01953 61.0151 9.01953C59.8106 9.01953 58.7201 9.29622 57.7436 9.84961C56.767 10.3867 55.9858 11.1273 55.3998 12.0713C54.8139 12.999 54.5209 14.0488 54.5209 15.2207V15.2695C54.5209 16.4902 54.7976 17.5726 55.351 18.5166C55.9207 19.4443 56.6856 20.1768 57.6459 20.7139C58.6225 21.2347 59.7211 21.4951 60.9418 21.4951C62.1788 21.4951 63.2856 21.2347 64.2621 20.7139C65.255 20.193 66.0362 19.4688 66.6059 18.541C67.1755 17.6133 67.4604 16.5472 67.4604 15.3428V15.3184H68.9496V21.2754H68.4369C67.9649 22.3659 67.2813 23.3424 66.3862 24.2051C65.491 25.0514 64.4005 25.7188 63.1147 26.207C61.8451 26.6953 60.4128 26.9395 58.8178 26.9395C56.5554 26.9395 54.5616 26.4512 52.8363 25.4746C51.1111 24.4818 49.7602 23.1227 48.7836 21.3975C47.8233 19.6722 47.3432 17.7109 47.3432 15.5137V15.4648C47.3432 13.0723 47.9291 10.9482 49.101 9.09277C50.2729 7.2373 51.8761 5.78874 53.9106 4.74707C55.9613 3.68913 58.297 3.16016 60.9174 3.16016ZM93.3302 3.16016C95.4624 3.16016 97.4155 3.53451 99.1896 4.2832C100.98 5.01562 102.534 6.13053 103.853 7.62793C105.187 9.12533 106.213 10.9971 106.929 13.2432C107.661 15.473 108.027 18.0771 108.027 21.0557V21.1045C108.027 24.9619 107.433 28.2741 106.245 31.041C105.057 33.7917 103.364 35.9076 101.167 37.3887C98.9698 38.8698 96.3331 39.6104 93.257 39.6104C90.9946 39.6104 88.9438 39.2035 87.1046 38.3896C85.2817 37.5758 83.7762 36.4691 82.588 35.0693C81.3999 33.6533 80.6267 32.0339 80.2687 30.2109L80.2198 29.9912H87.4952L87.5685 30.1865C87.8615 30.8864 88.2684 31.5049 88.7892 32.042C89.3263 32.5791 89.9692 33.0023 90.7179 33.3115C91.4666 33.6045 92.3211 33.751 93.2814 33.751C95.0066 33.751 96.4145 33.2546 97.505 32.2617C98.5955 31.2689 99.4174 29.9342 99.9708 28.2578C100.54 26.5651 100.866 24.6852 100.947 22.6182C100.964 22.374 100.972 22.138 100.972 21.9102C100.988 21.666 100.996 21.4219 100.996 21.1777L99.8732 15.3184C99.8732 14.1302 99.5883 13.0641 99.0187 12.1201C98.449 11.1598 97.6759 10.403 96.6993 9.84961C95.7228 9.29622 94.6323 9.01953 93.4279 9.01953C92.2234 9.01953 91.1329 9.29622 90.1564 9.84961C89.1798 10.3867 88.3986 11.1273 87.8126 12.0713C87.2267 12.999 86.9337 14.0488 86.9337 15.2207V15.2695C86.9337 16.4902 87.2104 17.5726 87.7638 18.5166C88.3335 19.4443 89.0984 20.1768 90.0587 20.7139C91.0353 21.2347 92.1339 21.4951 93.3546 21.4951C94.5916 21.4951 95.6984 21.2347 96.6749 20.7139C97.6678 20.193 98.449 19.4688 99.0187 18.541C99.5883 17.6133 99.8732 16.5472 99.8732 15.3428V15.3184H101.362V21.2754H100.85C100.378 22.3659 99.6941 23.3424 98.799 24.2051C97.9038 25.0514 96.8133 25.7188 95.5275 26.207C94.2579 26.6953 92.8256 26.9395 91.2306 26.9395C88.9682 26.9395 86.9744 26.4512 85.2491 25.4746C83.5239 24.4818 82.173 23.1227 81.1964 21.3975C80.2361 19.6722 79.756 17.7109 79.756 15.5137V15.4648C79.756 13.0723 80.3419 10.9482 81.5138 9.09277C82.6857 7.2373 84.2889 5.78874 86.3234 4.74707C88.3741 3.68913 90.7098 3.16016 93.3302 3.16016ZM125.963 38.4873C123.407 38.4873 121.153 38.113 119.2 37.3643C117.247 36.5993 115.693 35.5007 114.537 34.0684C113.398 32.6198 112.755 30.8864 112.608 28.8682L112.584 28.502H119.102L119.151 28.7705C119.314 29.6006 119.656 30.3411 120.177 30.9922C120.714 31.627 121.471 32.1234 122.447 32.4814C123.424 32.8395 124.661 33.0186 126.158 33.0186C127.639 33.0186 128.844 32.8477 129.771 32.5059C130.699 32.1478 131.383 31.6676 131.822 31.0654C132.262 30.4469 132.481 29.7389 132.481 28.9414V28.8926C132.481 27.8346 132.099 26.9883 131.334 26.3535C130.585 25.7025 129.161 25.1491 127.061 24.6934L122.935 23.8145C120.771 23.3587 118.956 22.7158 117.491 21.8857C116.026 21.0394 114.928 19.9896 114.195 18.7363C113.463 17.4668 113.097 15.9694 113.097 14.2441V14.1953C113.097 12.1934 113.634 10.4518 114.708 8.9707C115.782 7.47331 117.279 6.31771 119.2 5.50391C121.121 4.6901 123.334 4.2832 125.841 4.2832C128.347 4.2832 130.536 4.66569 132.408 5.43066C134.296 6.17936 135.785 7.26986 136.876 8.70215C137.983 10.1182 138.617 11.8353 138.78 13.8535L138.829 14.2686H132.31L132.262 14.0488C132.131 13.1211 131.79 12.3398 131.236 11.7051C130.683 11.054 129.95 10.5658 129.039 10.2402C128.144 9.91471 127.078 9.75195 125.841 9.75195C124.539 9.75195 123.448 9.93099 122.569 10.2891C121.69 10.6309 121.023 11.1029 120.567 11.7051C120.128 12.291 119.908 12.9421 119.908 13.6582V13.707C119.908 14.3581 120.071 14.944 120.396 15.4648C120.722 15.9857 121.251 16.4414 121.983 16.832C122.732 17.2227 123.717 17.5482 124.937 17.8086L129.137 18.6875C132.538 19.4036 135.077 20.5104 136.754 22.0078C138.446 23.5052 139.293 25.5723 139.293 28.209V28.2578C139.293 30.4225 138.715 32.2699 137.559 33.7998C136.42 35.3135 134.849 36.4772 132.847 37.291C130.846 38.0885 128.551 38.4873 125.963 38.4873ZM124.766 42.54V0.230469H127.208V42.54H124.766Z" fill="white"/>
</g>
<defs>
<filter id="filter0_d_568_12446" x="0.0507812" y="0.230469" width="143.242" height="54.1182" filterUnits="userSpaceOnUse" color-interpolation-filters="sRGB">
<feFlood flood-opacity="0" result="BackgroundImageFix"/>
<feColorMatrix in="SourceAlpha" type="matrix" values="0 0 0 0 0 0 0 0 0 0 0 0 0 0 0 0 0 0 127 0" result="hardAlpha"/>
<feOffset dy="4"/>
<feGaussianBlur stdDeviation="2"/>
<feComposite in2="hardAlpha" operator="out"/>
<feColorMatrix type="matrix" values="0 0 0 0 0 0 0 0 0 0 0 0 0 0 0 0 0 0 0.25 0"/>
<feBlend mode="normal" in2="BackgroundImageFix" result="effect1_dropShadow_568_12446"/>
<feBlend mode="normal" in="SourceGraphic" in2="effect1_dropShadow_568_12446" result="shape"/>
</filter>
</defs>
</svg>
