<svg width="25" height="24" viewBox="0 0 25 24" fill="none" xmlns="http://www.w3.org/2000/svg">
<path fill-rule="evenodd" clip-rule="evenodd" d="M22.2967 6.16715L15.81 1.37215C13.9126 -0.0130463 11.3374 -0.0130463 9.44 1.37215L2.965 6.16715C1.71135 7.0703 0.965456 8.51873 0.958336 10.0638V18.7321C1.02836 21.5243 3.34609 23.7324 6.13834 23.6671H19.1117C21.9039 23.7324 24.2216 21.5243 24.2917 18.7321V10.0521C24.2817 8.51374 23.5411 7.07164 22.2967 6.16715ZM22.5417 18.7321C22.4721 20.5579 20.9376 21.9828 19.1117 21.9171H6.13834C4.31481 21.9763 2.7842 20.5551 2.70834 18.7321V10.0638C2.71456 9.07205 3.1962 8.14348 4.00334 7.56715L10.4783 2.78381C11.7571 1.84999 13.4929 1.84999 14.7717 2.78381L21.2467 7.57881C22.0531 8.14514 22.5357 9.06672 22.5417 10.0521V18.7321ZM7.375 16.3755H17.875C18.3583 16.3755 18.75 16.7672 18.75 17.2505C18.75 17.7337 18.3583 18.1255 17.875 18.1255H7.375C6.89175 18.1255 6.5 17.7337 6.5 17.2505C6.5 16.7672 6.89175 16.3755 7.375 16.3755Z" fill="#F7F8FA"/>
</svg>
