<svg width="32" height="32" viewBox="0 0 32 32" fill="none" xmlns="http://www.w3.org/2000/svg">
<rect width="32" height="32" rx="16" fill="#212224"/>
<path d="M15.2178 16.2655C15.1828 16.2307 15.1551 16.1893 15.1362 16.1438C15.1173 16.0982 15.1076 16.0494 15.1076 16C15.1076 15.9507 15.1173 15.9019 15.1362 15.8563C15.1551 15.8108 15.1828 15.7694 15.2178 15.7345L18.6572 12.2958C18.8683 12.0848 18.9869 11.7987 18.987 11.5003C18.987 11.2019 18.8686 10.9157 18.6576 10.7047C18.4467 10.4936 18.1605 10.375 17.8621 10.3749C17.5637 10.3749 17.2775 10.4933 17.0665 10.7043L13.627 14.1438C13.1356 14.6366 12.8596 15.3041 12.8596 16C12.8596 16.696 13.1356 17.3635 13.627 17.8563L17.0665 21.2958C17.2775 21.5067 17.5637 21.6252 17.8621 21.6251C18.1605 21.6251 18.4467 21.5065 18.6576 21.2954C18.8686 21.0844 18.987 20.7982 18.987 20.4998C18.9869 20.2014 18.8683 19.9152 18.6572 19.7043L15.2178 16.2655Z" fill="white"/>
</svg>
