<svg width="82" height="47" viewBox="0 0 82 47" fill="none" xmlns="http://www.w3.org/2000/svg">
<g filter="url(#filter0_d_568_12449)">
<path d="M55.4629 12.5254C54.7793 12.5254 54.1901 12.3659 53.6953 12.0469C53.2005 11.7279 52.8164 11.2786 52.543 10.6992C52.276 10.1133 52.1426 9.41992 52.1426 8.61914V8.60938C52.1426 7.80859 52.276 7.11849 52.543 6.53906C52.8164 5.95312 53.2005 5.50391 53.6953 5.19141C54.1901 4.87891 54.7793 4.72266 55.4629 4.72266C56.153 4.72266 56.7454 4.87891 57.2402 5.19141C57.735 5.50391 58.1126 5.95312 58.373 6.53906C58.64 7.11849 58.7734 7.80859 58.7734 8.60938V8.61914C58.7734 9.41992 58.64 10.1133 58.373 10.6992C58.1126 11.2786 57.735 11.7279 57.2402 12.0469C56.7454 12.3659 56.153 12.5254 55.4629 12.5254ZM55.4629 10.9434C55.8796 10.9434 56.2018 10.7448 56.4297 10.3477C56.6576 9.94401 56.7715 9.36784 56.7715 8.61914V8.60938C56.7715 7.86719 56.6576 7.29753 56.4297 6.90039C56.2018 6.49674 55.8796 6.29492 55.4629 6.29492C55.0462 6.29492 54.724 6.49674 54.4961 6.90039C54.2747 7.29753 54.1641 7.86719 54.1641 8.60938V8.61914C54.1641 9.36784 54.2747 9.94401 54.4961 10.3477C54.724 10.7448 55.0462 10.9434 55.4629 10.9434ZM57.4551 19H55.2188L64.5742 4.9082H66.8105L57.4551 19ZM66.5664 19.1855C65.8828 19.1855 65.2904 19.0293 64.7891 18.7168C64.2943 18.3978 63.9134 17.9486 63.6465 17.3691C63.3796 16.7832 63.2461 16.0898 63.2461 15.2891V15.2793C63.2461 14.472 63.3796 13.7786 63.6465 13.1992C63.9134 12.6198 64.2943 12.1738 64.7891 11.8613C65.2904 11.5423 65.8828 11.3828 66.5664 11.3828C67.25 11.3828 67.8392 11.5423 68.334 11.8613C68.8288 12.1738 69.2096 12.6198 69.4766 13.1992C69.7435 13.7786 69.877 14.472 69.877 15.2793V15.2891C69.877 16.0898 69.7435 16.7832 69.4766 17.3691C69.2096 17.9486 68.8288 18.3978 68.334 18.7168C67.8392 19.0293 67.25 19.1855 66.5664 19.1855ZM66.5664 17.6133C66.9831 17.6133 67.3021 17.4115 67.5234 17.0078C67.7513 16.6042 67.8652 16.0312 67.8652 15.2891V15.2793C67.8652 14.5306 67.7513 13.9577 67.5234 13.5605C67.3021 13.1634 66.9831 12.9648 66.5664 12.9648C66.1497 12.9648 65.8275 13.1634 65.5996 13.5605C65.3717 13.9577 65.2578 14.5306 65.2578 15.2793V15.2891C65.2578 16.0312 65.3717 16.6042 65.5996 17.0078C65.8275 17.4115 66.1497 17.6133 66.5664 17.6133Z" fill="white"/>
</g>
<g filter="url(#filter1_d_568_12449)">
<path d="M57.084 38.2246C55.9967 38.2246 55.056 38.0033 54.2617 37.5605C53.474 37.1178 52.8685 36.4798 52.4453 35.6465C52.0221 34.8132 51.8105 33.8171 51.8105 32.6582V32.6387C51.8105 31.4928 52.0254 30.5065 52.4551 29.6797C52.8848 28.8464 53.4935 28.2083 54.2812 27.7656C55.069 27.3164 56.0033 27.0918 57.084 27.0918C58.1712 27.0918 59.1087 27.3164 59.8965 27.7656C60.6842 28.2083 61.2897 28.8431 61.7129 29.6699C62.1426 30.4967 62.3574 31.4863 62.3574 32.6387V32.6582C62.3574 33.8171 62.1458 34.8132 61.7227 35.6465C61.2995 36.4798 60.694 37.1178 59.9062 37.5605C59.1185 38.0033 58.1777 38.2246 57.084 38.2246ZM57.084 35.9883C57.5853 35.9883 58.0085 35.8581 58.3535 35.5977C58.7051 35.3307 58.9753 34.9499 59.1641 34.4551C59.3529 33.9603 59.4473 33.3646 59.4473 32.668V32.6484C59.4473 31.9518 59.3529 31.3561 59.1641 30.8613C58.9753 30.3665 58.7051 29.9889 58.3535 29.7285C58.002 29.4616 57.5788 29.3281 57.084 29.3281C56.5957 29.3281 56.1758 29.4616 55.8242 29.7285C55.4727 29.9889 55.2025 30.3665 55.0137 30.8613C54.8249 31.3561 54.7305 31.9518 54.7305 32.6484V32.668C54.7305 33.3646 54.8216 33.9635 55.0039 34.4648C55.1927 34.9596 55.4629 35.3372 55.8145 35.5977C56.166 35.8581 56.5892 35.9883 57.084 35.9883ZM65.0827 38V29.4648H63.4128V27.3164H65.0827V26.3496C65.0827 25.6465 65.2064 25.0605 65.4538 24.5918C65.7012 24.123 66.0918 23.7715 66.6257 23.5371C67.1661 23.3027 67.8627 23.1855 68.7155 23.1855C69.002 23.1855 69.2657 23.1986 69.5066 23.2246C69.7539 23.2441 69.9753 23.2702 70.1706 23.3027V25.1973C70.0795 25.1777 69.9623 25.1647 69.8191 25.1582C69.6823 25.1452 69.5261 25.1387 69.3503 25.1387C68.8164 25.1387 68.4356 25.2591 68.2077 25.5C67.9864 25.7344 67.8757 26.0762 67.8757 26.5254V27.3164H70.1023V29.4648H67.9343V38H65.0827ZM72.8666 38V29.4648H71.1967V27.3164H72.8666V26.3496C72.8666 25.6465 72.9903 25.0605 73.2377 24.5918C73.4851 24.123 73.8757 23.7715 74.4096 23.5371C74.95 23.3027 75.6466 23.1855 76.4994 23.1855C76.7859 23.1855 77.0496 23.1986 77.2904 23.2246C77.5378 23.2441 77.7592 23.2702 77.9545 23.3027V25.1973C77.8634 25.1777 77.7462 25.1647 77.6029 25.1582C77.4662 25.1452 77.31 25.1387 77.1342 25.1387C76.6003 25.1387 76.2195 25.2591 75.9916 25.5C75.7703 25.7344 75.6596 26.0762 75.6596 26.5254V27.3164H77.8862V29.4648H75.7182V38H72.8666Z" fill="white"/>
</g>
<g filter="url(#filter2_d_568_12449)">
<path d="M14.4609 8.19531C15.9961 8.19531 17.4023 8.46484 18.6797 9.00391C19.9688 9.53125 21.0879 10.334 22.0371 11.4121C22.998 12.4902 23.7363 13.8379 24.252 15.4551C24.7793 17.0605 25.043 18.9355 25.043 21.0801V21.1152C25.043 23.8926 24.6152 26.2773 23.7598 28.2695C22.9043 30.25 21.6855 31.7734 20.1035 32.8398C18.5215 33.9062 16.623 34.4395 14.4082 34.4395C12.7793 34.4395 11.3027 34.1465 9.97852 33.5605C8.66602 32.9746 7.58203 32.1777 6.72656 31.1699C5.87109 30.1504 5.31445 28.9844 5.05664 27.6719L5.02148 27.5137H10.2598L10.3125 27.6543C10.5234 28.1582 10.8164 28.6035 11.1914 28.9902C11.5781 29.377 12.041 29.6816 12.5801 29.9043C13.1191 30.1152 13.7344 30.2207 14.4258 30.2207C15.668 30.2207 16.6816 29.8633 17.4668 29.1484C18.252 28.4336 18.8438 27.4727 19.2422 26.2656C19.6523 25.0469 19.8867 23.6934 19.9453 22.2051C19.957 22.0293 19.9629 21.8594 19.9629 21.6953C19.9746 21.5195 19.9805 21.3438 19.9805 21.168L19.1719 16.9492C19.1719 16.0938 18.9668 15.3262 18.5566 14.6465C18.1465 13.9551 17.5898 13.4102 16.8867 13.0117C16.1836 12.6133 15.3984 12.4141 14.5312 12.4141C13.6641 12.4141 12.8789 12.6133 12.1758 13.0117C11.4727 13.3984 10.9102 13.9316 10.4883 14.6113C10.0664 15.2793 9.85547 16.0352 9.85547 16.8789V16.9141C9.85547 17.793 10.0547 18.5723 10.4531 19.252C10.8633 19.9199 11.4141 20.4473 12.1055 20.834C12.8086 21.209 13.5996 21.3965 14.4785 21.3965C15.3691 21.3965 16.166 21.209 16.8691 20.834C17.584 20.459 18.1465 19.9375 18.5566 19.2695C18.9668 18.6016 19.1719 17.834 19.1719 16.9668V16.9492H20.2441V21.2383H19.875C19.5352 22.0234 19.043 22.7266 18.3984 23.3477C17.7539 23.957 16.9688 24.4375 16.043 24.7891C15.1289 25.1406 14.0977 25.3164 12.9492 25.3164C11.3203 25.3164 9.88477 24.9648 8.64258 24.2617C7.40039 23.5469 6.42773 22.5684 5.72461 21.3262C5.0332 20.084 4.6875 18.6719 4.6875 17.0898V17.0547C4.6875 15.332 5.10938 13.8027 5.95312 12.4668C6.79688 11.1309 7.95117 10.0879 9.41602 9.33789C10.8926 8.57617 12.5742 8.19531 14.4609 8.19531ZM38.0925 34.4395C35.948 34.4395 34.1023 33.9062 32.5554 32.8398C31.0085 31.7734 29.8191 30.2617 28.987 28.3047C28.1667 26.3359 27.7566 24.0098 27.7566 21.3262V21.291C27.7566 18.5957 28.1667 16.2695 28.987 14.3125C29.8191 12.3555 31.0085 10.8496 32.5554 9.79492C34.1023 8.72852 35.948 8.19531 38.0925 8.19531C40.237 8.19531 42.0769 8.72852 43.612 9.79492C45.1589 10.8496 46.3483 12.3555 47.1804 14.3125C48.0124 16.2695 48.4284 18.5957 48.4284 21.291V21.3262C48.4284 24.0098 48.0124 26.3359 47.1804 28.3047C46.3483 30.2617 45.1589 31.7734 43.612 32.8398C42.0769 33.9062 40.237 34.4395 38.0925 34.4395ZM38.0925 30.1855C39.1472 30.1855 40.0437 29.834 40.7819 29.1309C41.5202 28.4277 42.0827 27.4141 42.4694 26.0898C42.8679 24.7656 43.0671 23.1777 43.0671 21.3262V21.291C43.0671 19.4277 42.8679 17.8398 42.4694 16.5273C42.0827 15.2031 41.5202 14.1953 40.7819 13.5039C40.0437 12.8008 39.1472 12.4492 38.0925 12.4492C37.0378 12.4492 36.1355 12.8008 35.3855 13.5039C34.6472 14.1953 34.0847 15.2031 33.698 16.5273C33.3112 17.8398 33.1179 19.4277 33.1179 21.291V21.3262C33.1179 23.1777 33.3112 24.7656 33.698 26.0898C34.0847 27.4141 34.6472 28.4277 35.3855 29.1309C36.1355 29.834 37.0378 30.1855 38.0925 30.1855Z" fill="white"/>
</g>
<defs>
<filter id="filter0_d_568_12449" x="48.1426" y="4.72266" width="25.7344" height="22.4629" filterUnits="userSpaceOnUse" color-interpolation-filters="sRGB">
<feFlood flood-opacity="0" result="BackgroundImageFix"/>
<feColorMatrix in="SourceAlpha" type="matrix" values="0 0 0 0 0 0 0 0 0 0 0 0 0 0 0 0 0 0 127 0" result="hardAlpha"/>
<feOffset dy="4"/>
<feGaussianBlur stdDeviation="2"/>
<feComposite in2="hardAlpha" operator="out"/>
<feColorMatrix type="matrix" values="0 0 0 0 0 0 0 0 0 0 0 0 0 0 0 0 0 0 0.25 0"/>
<feBlend mode="normal" in2="BackgroundImageFix" result="effect1_dropShadow_568_12449"/>
<feBlend mode="normal" in="SourceGraphic" in2="effect1_dropShadow_568_12449" result="shape"/>
</filter>
<filter id="filter1_d_568_12449" x="47.8105" y="23.1855" width="34.144" height="23.0391" filterUnits="userSpaceOnUse" color-interpolation-filters="sRGB">
<feFlood flood-opacity="0" result="BackgroundImageFix"/>
<feColorMatrix in="SourceAlpha" type="matrix" values="0 0 0 0 0 0 0 0 0 0 0 0 0 0 0 0 0 0 127 0" result="hardAlpha"/>
<feOffset dy="4"/>
<feGaussianBlur stdDeviation="2"/>
<feComposite in2="hardAlpha" operator="out"/>
<feColorMatrix type="matrix" values="0 0 0 0 0 0 0 0 0 0 0 0 0 0 0 0 0 0 0.25 0"/>
<feBlend mode="normal" in2="BackgroundImageFix" result="effect1_dropShadow_568_12449"/>
<feBlend mode="normal" in="SourceGraphic" in2="effect1_dropShadow_568_12449" result="shape"/>
</filter>
<filter id="filter2_d_568_12449" x="0.6875" y="8.19531" width="51.7407" height="34.2441" filterUnits="userSpaceOnUse" color-interpolation-filters="sRGB">
<feFlood flood-opacity="0" result="BackgroundImageFix"/>
<feColorMatrix in="SourceAlpha" type="matrix" values="0 0 0 0 0 0 0 0 0 0 0 0 0 0 0 0 0 0 127 0" result="hardAlpha"/>
<feOffset dy="4"/>
<feGaussianBlur stdDeviation="2"/>
<feComposite in2="hardAlpha" operator="out"/>
<feColorMatrix type="matrix" values="0 0 0 0 0 0 0 0 0 0 0 0 0 0 0 0 0 0 0.25 0"/>
<feBlend mode="normal" in2="BackgroundImageFix" result="effect1_dropShadow_568_12449"/>
<feBlend mode="normal" in="SourceGraphic" in2="effect1_dropShadow_568_12449" result="shape"/>
</filter>
</defs>
</svg>
