<svg width="199" height="180" viewBox="0 0 199 180" fill="none" xmlns="http://www.w3.org/2000/svg">
<g clip-path="url(#clip0_46_12000)">
<rect width="20" height="20" rx="6" fill="#BD82FF"/>
<g clip-path="url(#clip1_46_12000)">
<path d="M8.22883 13.6095C7.94497 13.6096 7.67274 13.4968 7.47219 13.2959L5.18461 11.0092C4.93846 10.7629 4.93846 10.3638 5.18461 10.1176C5.43083 9.87143 5.82996 9.87143 6.07618 10.1176L8.22883 12.2702L13.9238 6.57523C14.17 6.32909 14.5692 6.32909 14.8154 6.57523C15.0615 6.82146 15.0615 7.22059 14.8154 7.46681L8.98547 13.2959C8.78492 13.4968 8.51269 13.6096 8.22883 13.6095Z" fill="white"/>
</g>
</g>
<path d="M36.1719 15.7656C35.0938 15.7656 34.1693 15.526 33.3984 15.0469C32.6276 14.5625 32.0339 13.8776 31.6172 12.9922C31.2057 12.1068 31 11.0651 31 9.86719V9.85156C31 8.64323 31.2083 7.59896 31.625 6.71875C32.0469 5.83854 32.6432 5.15885 33.4141 4.67969C34.1901 4.20052 35.1094 3.96094 36.1719 3.96094C37.2396 3.96094 38.1589 4.20052 38.9297 4.67969C39.7057 5.15885 40.3021 5.84115 40.7188 6.72656C41.1354 7.60677 41.3438 8.64844 41.3438 9.85156V9.86719C41.3438 11.0651 41.1354 12.1068 40.7188 12.9922C40.3073 13.8724 39.7135 14.5547 38.9375 15.0391C38.1667 15.5234 37.2448 15.7656 36.1719 15.7656ZM36.1719 14.4688C36.9427 14.4688 37.6068 14.2786 38.1641 13.8984C38.7214 13.5182 39.151 12.9844 39.4531 12.2969C39.7552 11.6042 39.9062 10.7943 39.9062 9.86719V9.85156C39.9062 8.91406 39.7552 8.10156 39.4531 7.41406C39.151 6.72656 38.7214 6.19531 38.1641 5.82031C37.6068 5.44531 36.9427 5.25781 36.1719 5.25781C35.4062 5.25781 34.7448 5.44531 34.1875 5.82031C33.6302 6.19531 33.1979 6.72656 32.8906 7.41406C32.5885 8.10156 32.4375 8.91406 32.4375 9.85156V9.86719C32.4375 10.7943 32.5859 11.6042 32.8828 12.2969C33.1797 12.9844 33.6068 13.5182 34.1641 13.8984C34.7214 14.2786 35.3906 14.4688 36.1719 14.4688ZM43.4444 15.5V7.07812H44.8038V8.34375H44.9288C45.1423 7.89583 45.4496 7.54948 45.8506 7.30469C46.2517 7.05469 46.7621 6.92969 47.3819 6.92969C48.3298 6.92969 49.0564 7.20052 49.5616 7.74219C50.072 8.27865 50.3272 9.04688 50.3272 10.0469V15.5H48.9678V10.375C48.9678 9.61458 48.8064 9.05208 48.4834 8.6875C48.1657 8.31771 47.6709 8.13281 46.9991 8.13281C46.5511 8.13281 46.1631 8.22917 45.835 8.42188C45.5069 8.61458 45.2517 8.88802 45.0694 9.24219C44.8923 9.59635 44.8038 10.0208 44.8038 10.5156V15.5H43.4444ZM56.0606 15.6484C55.2585 15.6484 54.5684 15.4714 53.9903 15.1172C53.4174 14.763 52.9747 14.263 52.6622 13.6172C52.3549 12.9661 52.2013 12.2005 52.2013 11.3203V11.3125C52.2013 10.4427 52.3549 9.67969 52.6622 9.02344C52.9747 8.36719 53.4148 7.85417 53.9825 7.48438C54.5502 7.11458 55.2143 6.92969 55.9747 6.92969C56.7403 6.92969 57.3966 7.10677 57.9434 7.46094C58.4955 7.8151 58.9174 8.3099 59.2091 8.94531C59.5059 9.57552 59.6544 10.3099 59.6544 11.1484V11.6797H52.9044V10.5938H58.9591L58.2872 11.5859V11.0469C58.2872 10.3854 58.1882 9.84115 57.9903 9.41406C57.7924 8.98698 57.519 8.66927 57.17 8.46094C56.821 8.2474 56.42 8.14062 55.9669 8.14062C55.5138 8.14062 55.1075 8.2526 54.7481 8.47656C54.394 8.69531 54.1127 9.02083 53.9044 9.45312C53.696 9.88542 53.5919 10.4167 53.5919 11.0469V11.5859C53.5919 12.1849 53.6934 12.6979 53.8966 13.125C54.0997 13.5469 54.3888 13.8724 54.7638 14.1016C55.1388 14.3255 55.5815 14.4375 56.0919 14.4375C56.4721 14.4375 56.8028 14.3854 57.0841 14.2812C57.3653 14.1771 57.5971 14.0443 57.7794 13.8828C57.9617 13.7214 58.0893 13.5573 58.1622 13.3906L58.1934 13.3203H59.5528L59.5372 13.3828C59.4643 13.6693 59.3341 13.9479 59.1466 14.2188C58.9643 14.4844 58.7273 14.7266 58.4356 14.9453C58.144 15.1589 57.7976 15.3307 57.3966 15.4609C57.0007 15.5859 56.5554 15.6484 56.0606 15.6484ZM68.8244 15.6484C68.1994 15.6484 67.6473 15.5547 67.1681 15.3672C66.689 15.1745 66.3035 14.9062 66.0119 14.5625C65.7254 14.2188 65.5561 13.8151 65.5041 13.3516H66.8947C67.0093 13.7005 67.2332 13.9818 67.5666 14.1953C67.8999 14.4089 68.3348 14.5156 68.8713 14.5156C69.2515 14.5156 69.5848 14.4609 69.8713 14.3516C70.1629 14.237 70.3921 14.0833 70.5588 13.8906C70.7254 13.6927 70.8088 13.4661 70.8088 13.2109V13.1953C70.8088 12.9089 70.6942 12.6667 70.465 12.4688C70.2358 12.2656 69.8608 12.1016 69.34 11.9766L68.0353 11.6641C67.5093 11.5391 67.077 11.3776 66.7384 11.1797C66.3999 10.9766 66.1499 10.7292 65.9884 10.4375C65.827 10.1406 65.7463 9.79167 65.7463 9.39062V9.38281C65.7463 8.91406 65.8817 8.49479 66.1525 8.125C66.4285 7.75521 66.8035 7.46354 67.2775 7.25C67.7515 7.03646 68.2853 6.92969 68.8791 6.92969C69.4676 6.92969 69.9884 7.02344 70.4416 7.21094C70.8999 7.39323 71.2671 7.65365 71.5431 7.99219C71.8244 8.33073 71.9963 8.72917 72.0588 9.1875H70.7228C70.6343 8.85417 70.4311 8.58333 70.1134 8.375C69.7957 8.16667 69.3817 8.0625 68.8713 8.0625C68.5379 8.0625 68.241 8.11719 67.9806 8.22656C67.7202 8.33073 67.5145 8.47656 67.3634 8.66406C67.2124 8.85156 67.1369 9.07031 67.1369 9.32031V9.33594C67.1369 9.52344 67.1864 9.6901 67.2853 9.83594C67.3843 9.98177 67.5379 10.1094 67.7463 10.2188C67.9546 10.3281 68.2228 10.4245 68.5509 10.5078L69.8478 10.8203C70.6395 11.013 71.228 11.2891 71.6134 11.6484C72.0041 12.0078 72.1994 12.4896 72.1994 13.0938V13.1094C72.1994 13.6094 72.0509 14.0521 71.7541 14.4375C71.4572 14.8177 71.0535 15.1146 70.5431 15.3281C70.0379 15.5417 69.465 15.6484 68.8244 15.6484ZM77.0578 15.5625C76.1932 15.5625 75.5656 15.388 75.175 15.0391C74.7896 14.6901 74.5969 14.1146 74.5969 13.3125V8.20312H73.2687V7.07812H74.5969V4.89844H76.0031V7.07812H77.8469V8.20312H76.0031V12.9688C76.0031 13.4635 76.0969 13.8203 76.2844 14.0391C76.4719 14.2526 76.7844 14.3594 77.2219 14.3594C77.3417 14.3594 77.4432 14.3568 77.5266 14.3516C77.6151 14.3464 77.7219 14.3385 77.8469 14.3281V15.4844C77.7167 15.5052 77.5865 15.5234 77.4562 15.5391C77.326 15.5547 77.1932 15.5625 77.0578 15.5625ZM83.0647 15.6484C82.2678 15.6484 81.5777 15.474 80.9944 15.125C80.4162 14.7708 79.9683 14.2682 79.6506 13.6172C79.3381 12.9661 79.1819 12.1927 79.1819 11.2969V11.2812C79.1819 10.3802 79.3381 9.60417 79.6506 8.95312C79.9683 8.30208 80.4162 7.80208 80.9944 7.45312C81.5777 7.10417 82.2678 6.92969 83.0647 6.92969C83.8668 6.92969 84.5569 7.10417 85.135 7.45312C85.7131 7.80208 86.1584 8.30208 86.4709 8.95312C86.7886 9.60417 86.9475 10.3802 86.9475 11.2812V11.2969C86.9475 12.1927 86.7886 12.9661 86.4709 13.6172C86.1584 14.2682 85.7131 14.7708 85.135 15.125C84.5569 15.474 83.8668 15.6484 83.0647 15.6484ZM83.0647 14.4453C83.5959 14.4453 84.0465 14.3203 84.4162 14.0703C84.786 13.8203 85.0673 13.4609 85.26 12.9922C85.4579 12.5234 85.5569 11.9583 85.5569 11.2969V11.2812C85.5569 10.6146 85.4579 10.0469 85.26 9.57812C85.0673 9.10938 84.786 8.7526 84.4162 8.50781C84.0465 8.25781 83.5959 8.13281 83.0647 8.13281C82.5334 8.13281 82.0829 8.25781 81.7131 8.50781C81.3433 8.7526 81.0595 9.10938 80.8616 9.57812C80.6689 10.0469 80.5725 10.6146 80.5725 11.2812V11.2969C80.5725 11.9583 80.6689 12.5234 80.8616 12.9922C81.0595 13.4609 81.3433 13.8203 81.7131 14.0703C82.0829 14.3203 82.5334 14.4453 83.0647 14.4453ZM88.8919 15.5V7.07812H90.2513V8.34375H90.3763C90.5898 7.89583 90.8971 7.54948 91.2981 7.30469C91.6992 7.05469 92.2096 6.92969 92.8294 6.92969C93.7773 6.92969 94.5039 7.20052 95.0091 7.74219C95.5195 8.27865 95.7747 9.04688 95.7747 10.0469V15.5H94.4153V10.375C94.4153 9.61458 94.2539 9.05208 93.9309 8.6875C93.6132 8.31771 93.1184 8.13281 92.4466 8.13281C91.9986 8.13281 91.6106 8.22917 91.2825 8.42188C90.9544 8.61458 90.6992 8.88802 90.5169 9.24219C90.3398 9.59635 90.2513 10.0208 90.2513 10.5156V15.5H88.8919ZM101.508 15.6484C100.706 15.6484 100.016 15.4714 99.4378 15.1172C98.8649 14.763 98.4222 14.263 98.1097 13.6172C97.8024 12.9661 97.6488 12.2005 97.6488 11.3203V11.3125C97.6488 10.4427 97.8024 9.67969 98.1097 9.02344C98.4222 8.36719 98.8623 7.85417 99.43 7.48438C99.9977 7.11458 100.662 6.92969 101.422 6.92969C102.188 6.92969 102.844 7.10677 103.391 7.46094C103.943 7.8151 104.365 8.3099 104.657 8.94531C104.953 9.57552 105.102 10.3099 105.102 11.1484V11.6797H98.3519V10.5938H104.407L103.735 11.5859V11.0469C103.735 10.3854 103.636 9.84115 103.438 9.41406C103.24 8.98698 102.966 8.66927 102.618 8.46094C102.269 8.2474 101.868 8.14062 101.414 8.14062C100.961 8.14062 100.555 8.2526 100.196 8.47656C99.8415 8.69531 99.5602 9.02083 99.3519 9.45312C99.1435 9.88542 99.0394 10.4167 99.0394 11.0469V11.5859C99.0394 12.1849 99.1409 12.6979 99.3441 13.125C99.5472 13.5469 99.8363 13.8724 100.211 14.1016C100.586 14.3255 101.029 14.4375 101.539 14.4375C101.92 14.4375 102.25 14.3854 102.532 14.2812C102.813 14.1771 103.045 14.0443 103.227 13.8828C103.409 13.7214 103.537 13.5573 103.61 13.3906L103.641 13.3203H105L104.985 13.3828C104.912 13.6693 104.782 13.9479 104.594 14.2188C104.412 14.4844 104.175 14.7266 103.883 14.9453C103.591 15.1589 103.245 15.3307 102.844 15.4609C102.448 15.5859 102.003 15.6484 101.508 15.6484ZM111.412 15.5V7.07812H112.772V15.5H111.412ZM112.1 5.45312C111.845 5.45312 111.623 5.36198 111.436 5.17969C111.254 4.99219 111.162 4.77083 111.162 4.51562C111.162 4.25521 111.254 4.03385 111.436 3.85156C111.623 3.66927 111.845 3.57812 112.1 3.57812C112.36 3.57812 112.582 3.66927 112.764 3.85156C112.946 4.03385 113.037 4.25521 113.037 4.51562C113.037 4.77083 112.946 4.99219 112.764 5.17969C112.582 5.36198 112.36 5.45312 112.1 5.45312ZM115.169 15.5V7.07812H116.529V8.34375H116.654C116.867 7.89583 117.175 7.54948 117.576 7.30469C117.977 7.05469 118.487 6.92969 119.107 6.92969C120.055 6.92969 120.781 7.20052 121.287 7.74219C121.797 8.27865 122.052 9.04688 122.052 10.0469V15.5H120.693V10.375C120.693 9.61458 120.531 9.05208 120.208 8.6875C119.891 8.31771 119.396 8.13281 118.724 8.13281C118.276 8.13281 117.888 8.22917 117.56 8.42188C117.232 8.61458 116.977 8.88802 116.794 9.24219C116.617 9.59635 116.529 10.0208 116.529 10.5156V15.5H115.169ZM131.675 15.5625C130.811 15.5625 130.183 15.388 129.793 15.0391C129.407 14.6901 129.214 14.1146 129.214 13.3125V8.20312H127.886V7.07812H129.214V4.89844H130.621V7.07812H132.464V8.20312H130.621V12.9688C130.621 13.4635 130.714 13.8203 130.902 14.0391C131.089 14.2526 131.402 14.3594 131.839 14.3594C131.959 14.3594 132.061 14.3568 132.144 14.3516C132.233 14.3464 132.339 14.3385 132.464 14.3281V15.4844C132.334 15.5052 132.204 15.5234 132.074 15.5391C131.944 15.5547 131.811 15.5625 131.675 15.5625ZM134.409 15.5V3.73438H135.768V8.34375H135.893C136.107 7.89583 136.414 7.54948 136.815 7.30469C137.216 7.05469 137.726 6.92969 138.346 6.92969C138.976 6.92969 139.51 7.05208 139.948 7.29688C140.385 7.53646 140.719 7.88802 140.948 8.35156C141.177 8.8151 141.292 9.38021 141.292 10.0469V15.5H139.932V10.375C139.932 9.61458 139.771 9.05208 139.448 8.6875C139.13 8.31771 138.635 8.13281 137.963 8.13281C137.516 8.13281 137.128 8.22917 136.799 8.42188C136.471 8.61458 136.216 8.88802 136.034 9.24219C135.857 9.59635 135.768 10.0208 135.768 10.5156V15.5H134.409ZM147.025 15.6484C146.223 15.6484 145.533 15.4714 144.955 15.1172C144.382 14.763 143.939 14.263 143.627 13.6172C143.319 12.9661 143.166 12.2005 143.166 11.3203V11.3125C143.166 10.4427 143.319 9.67969 143.627 9.02344C143.939 8.36719 144.379 7.85417 144.947 7.48438C145.515 7.11458 146.179 6.92969 146.939 6.92969C147.705 6.92969 148.361 7.10677 148.908 7.46094C149.46 7.8151 149.882 8.3099 150.173 8.94531C150.47 9.57552 150.619 10.3099 150.619 11.1484V11.6797H143.869V10.5938H149.923L149.252 11.5859V11.0469C149.252 10.3854 149.153 9.84115 148.955 9.41406C148.757 8.98698 148.483 8.66927 148.134 8.46094C147.785 8.2474 147.384 8.14062 146.931 8.14062C146.478 8.14062 146.072 8.2526 145.713 8.47656C145.358 8.69531 145.077 9.02083 144.869 9.45312C144.66 9.88542 144.556 10.4167 144.556 11.0469V11.5859C144.556 12.1849 144.658 12.6979 144.861 13.125C145.064 13.5469 145.353 13.8724 145.728 14.1016C146.103 14.3255 146.546 14.4375 147.056 14.4375C147.436 14.4375 147.767 14.3854 148.048 14.2812C148.33 14.1771 148.561 14.0443 148.744 13.8828C148.926 13.7214 149.054 13.5573 149.127 13.3906L149.158 13.3203H150.517L150.502 13.3828C150.429 13.6693 150.298 13.9479 150.111 14.2188C149.929 14.4844 149.692 14.7266 149.4 14.9453C149.108 15.1589 148.762 15.3307 148.361 15.4609C147.965 15.5859 147.52 15.6484 147.025 15.6484ZM156.898 18.3125V7.07812H158.257V8.42188H158.382C158.554 8.10938 158.771 7.84375 159.031 7.625C159.291 7.40104 159.588 7.22917 159.922 7.10938C160.255 6.98958 160.617 6.92969 161.007 6.92969C161.721 6.92969 162.341 7.11198 162.867 7.47656C163.398 7.83594 163.81 8.34115 164.101 8.99219C164.393 9.64323 164.539 10.4062 164.539 11.2812V11.2969C164.539 12.1771 164.393 12.9427 164.101 13.5938C163.81 14.2448 163.398 14.75 162.867 15.1094C162.341 15.4688 161.721 15.6484 161.007 15.6484C160.622 15.6484 160.257 15.5885 159.914 15.4688C159.575 15.3438 159.273 15.1719 159.007 14.9531C158.747 14.7344 158.539 14.474 158.382 14.1719H158.257V18.3125H156.898ZM160.695 14.4453C161.211 14.4453 161.651 14.3203 162.015 14.0703C162.38 13.8151 162.659 13.4531 162.851 12.9844C163.049 12.5104 163.148 11.9479 163.148 11.2969V11.2812C163.148 10.625 163.049 10.0625 162.851 9.59375C162.659 9.125 162.38 8.76562 162.015 8.51562C161.651 8.26042 161.211 8.13281 160.695 8.13281C160.185 8.13281 159.744 8.26042 159.375 8.51562C159.005 8.77083 158.721 9.13281 158.523 9.60156C158.325 10.0703 158.226 10.6302 158.226 11.2812V11.2969C158.226 11.9427 158.325 12.5026 158.523 12.9766C158.721 13.4453 159.005 13.8073 159.375 14.0625C159.744 14.3177 160.185 14.4453 160.695 14.4453ZM166.577 15.5V3.73438H167.936V8.34375H168.061C168.275 7.89583 168.582 7.54948 168.983 7.30469C169.384 7.05469 169.895 6.92969 170.514 6.92969C171.145 6.92969 171.678 7.05208 172.116 7.29688C172.553 7.53646 172.887 7.88802 173.116 8.35156C173.345 8.8151 173.46 9.38021 173.46 10.0469V15.5H172.1V10.375C172.1 9.61458 171.939 9.05208 171.616 8.6875C171.298 8.31771 170.803 8.13281 170.132 8.13281C169.684 8.13281 169.296 8.22917 168.967 8.42188C168.639 8.61458 168.384 8.88802 168.202 9.24219C168.025 9.59635 167.936 10.0208 167.936 10.5156V15.5H166.577ZM179.217 15.6484C178.42 15.6484 177.73 15.474 177.146 15.125C176.568 14.7708 176.12 14.2682 175.803 13.6172C175.49 12.9661 175.334 12.1927 175.334 11.2969V11.2812C175.334 10.3802 175.49 9.60417 175.803 8.95312C176.12 8.30208 176.568 7.80208 177.146 7.45312C177.73 7.10417 178.42 6.92969 179.217 6.92969C180.019 6.92969 180.709 7.10417 181.287 7.45312C181.865 7.80208 182.31 8.30208 182.623 8.95312C182.941 9.60417 183.099 10.3802 183.099 11.2812V11.2969C183.099 12.1927 182.941 12.9661 182.623 13.6172C182.31 14.2682 181.865 14.7708 181.287 15.125C180.709 15.474 180.019 15.6484 179.217 15.6484ZM179.217 14.4453C179.748 14.4453 180.198 14.3203 180.568 14.0703C180.938 13.8203 181.219 13.4609 181.412 12.9922C181.61 12.5234 181.709 11.9583 181.709 11.2969V11.2812C181.709 10.6146 181.61 10.0469 181.412 9.57812C181.219 9.10938 180.938 8.7526 180.568 8.50781C180.198 8.25781 179.748 8.13281 179.217 8.13281C178.685 8.13281 178.235 8.25781 177.865 8.50781C177.495 8.7526 177.211 9.10938 177.013 9.57812C176.821 10.0469 176.724 10.6146 176.724 11.2812V11.2969C176.724 11.9583 176.821 12.5234 177.013 12.9922C177.211 13.4609 177.495 13.8203 177.865 14.0703C178.235 14.3203 178.685 14.4453 179.217 14.4453ZM188.036 15.5625C187.171 15.5625 186.544 15.388 186.153 15.0391C185.768 14.6901 185.575 14.1146 185.575 13.3125V8.20312H184.247V7.07812H185.575V4.89844H186.981V7.07812H188.825V8.20312H186.981V12.9688C186.981 13.4635 187.075 13.8203 187.262 14.0391C187.45 14.2526 187.762 14.3594 188.2 14.3594C188.32 14.3594 188.421 14.3568 188.505 14.3516C188.593 14.3464 188.7 14.3385 188.825 14.3281V15.4844C188.695 15.5052 188.565 15.5234 188.434 15.5391C188.304 15.5547 188.171 15.5625 188.036 15.5625ZM194.043 15.6484C193.246 15.6484 192.556 15.474 191.973 15.125C191.394 14.7708 190.946 14.2682 190.629 13.6172C190.316 12.9661 190.16 12.1927 190.16 11.2969V11.2812C190.16 10.3802 190.316 9.60417 190.629 8.95312C190.946 8.30208 191.394 7.80208 191.973 7.45312C192.556 7.10417 193.246 6.92969 194.043 6.92969C194.845 6.92969 195.535 7.10417 196.113 7.45312C196.691 7.80208 197.137 8.30208 197.449 8.95312C197.767 9.60417 197.926 10.3802 197.926 11.2812V11.2969C197.926 12.1927 197.767 12.9661 197.449 13.6172C197.137 14.2682 196.691 14.7708 196.113 15.125C195.535 15.474 194.845 15.6484 194.043 15.6484ZM194.043 14.4453C194.574 14.4453 195.025 14.3203 195.394 14.0703C195.764 13.8203 196.045 13.4609 196.238 12.9922C196.436 12.5234 196.535 11.9583 196.535 11.2969V11.2812C196.535 10.6146 196.436 10.0469 196.238 9.57812C196.045 9.10938 195.764 8.7526 195.394 8.50781C195.025 8.25781 194.574 8.13281 194.043 8.13281C193.512 8.13281 193.061 8.25781 192.691 8.50781C192.321 8.7526 192.038 9.10938 191.84 9.57812C191.647 10.0469 191.551 10.6146 191.551 11.2812V11.2969C191.551 11.9583 191.647 12.5234 191.84 12.9922C192.038 13.4609 192.321 13.8203 192.691 14.0703C193.061 14.3203 193.512 14.4453 194.043 14.4453Z" fill="#746685"/>
<g clip-path="url(#clip2_46_12000)">
<rect y="32" width="20" height="20" rx="6" fill="#BD82FF"/>
<g clip-path="url(#clip3_46_12000)">
<path d="M8.22883 45.6095C7.94497 45.6096 7.67274 45.4968 7.47219 45.2959L5.18461 43.0092C4.93846 42.7629 4.93846 42.3638 5.18461 42.1176C5.43083 41.8714 5.82996 41.8714 6.07618 42.1176L8.22883 44.2702L13.9238 38.5752C14.17 38.3291 14.5692 38.3291 14.8154 38.5752C15.0615 38.8215 15.0615 39.2206 14.8154 39.4668L8.98547 45.2959C8.78492 45.4968 8.51269 45.6096 8.22883 45.6095Z" fill="white"/>
</g>
</g>
<path d="M36.1094 47.7656C35.3281 47.7656 34.6224 47.6276 33.9922 47.3516C33.3672 47.0755 32.8307 46.6797 32.3828 46.1641C31.9401 45.6484 31.599 45.0286 31.3594 44.3047C31.1198 43.5807 31 42.7682 31 41.8672V41.8516C31 40.6641 31.2109 39.6302 31.6328 38.75C32.0547 37.8646 32.6484 37.1797 33.4141 36.6953C34.1849 36.2057 35.0833 35.9609 36.1094 35.9609C36.9427 35.9609 37.6849 36.1094 38.3359 36.4062C38.9922 36.6979 39.5312 37.1094 39.9531 37.6406C40.3802 38.1719 40.6667 38.7943 40.8125 39.5078L40.8281 39.5859H39.4062L39.3828 39.5078C39.1536 38.7786 38.7604 38.2214 38.2031 37.8359C37.6458 37.4505 36.9479 37.2578 36.1094 37.2578C35.3646 37.2578 34.7161 37.4479 34.1641 37.8281C33.6172 38.2031 33.1927 38.7344 32.8906 39.4219C32.5885 40.1094 32.4375 40.9193 32.4375 41.8516V41.8672C32.4375 42.5755 32.5208 43.2135 32.6875 43.7812C32.8594 44.349 33.1042 44.8333 33.4219 45.2344C33.7448 45.6302 34.1328 45.9349 34.5859 46.1484C35.0391 46.362 35.5495 46.4688 36.1172 46.4688C36.7891 46.4688 37.3776 46.3359 37.8828 46.0703C38.3932 45.7995 38.7891 45.4245 39.0703 44.9453C39.3516 44.4661 39.4922 43.9089 39.4922 43.2734V43H36.3281V41.7656H40.8984V43.1406C40.8984 43.8333 40.7839 44.4635 40.5547 45.0312C40.3307 45.599 40.0078 46.0885 39.5859 46.5C39.1641 46.9062 38.6589 47.2188 38.0703 47.4375C37.4818 47.6562 36.8281 47.7656 36.1094 47.7656ZM46.5147 47.6484C45.7178 47.6484 45.0277 47.474 44.4444 47.125C43.8663 46.7708 43.4183 46.2682 43.1006 45.6172C42.7881 44.9661 42.6319 44.1927 42.6319 43.2969V43.2812C42.6319 42.3802 42.7881 41.6042 43.1006 40.9531C43.4183 40.3021 43.8663 39.8021 44.4444 39.4531C45.0277 39.1042 45.7178 38.9297 46.5147 38.9297C47.3168 38.9297 48.0069 39.1042 48.585 39.4531C49.1631 39.8021 49.6084 40.3021 49.9209 40.9531C50.2386 41.6042 50.3975 42.3802 50.3975 43.2812V43.2969C50.3975 44.1927 50.2386 44.9661 49.9209 45.6172C49.6084 46.2682 49.1631 46.7708 48.585 47.125C48.0069 47.474 47.3168 47.6484 46.5147 47.6484ZM46.5147 46.4453C47.0459 46.4453 47.4965 46.3203 47.8663 46.0703C48.236 45.8203 48.5173 45.4609 48.71 44.9922C48.9079 44.5234 49.0069 43.9583 49.0069 43.2969V43.2812C49.0069 42.6146 48.9079 42.0469 48.71 41.5781C48.5173 41.1094 48.236 40.7526 47.8663 40.5078C47.4965 40.2578 47.0459 40.1328 46.5147 40.1328C45.9834 40.1328 45.5329 40.2578 45.1631 40.5078C44.7933 40.7526 44.5095 41.1094 44.3116 41.5781C44.1189 42.0469 44.0225 42.6146 44.0225 43.2812V43.2969C44.0225 43.9583 44.1189 44.5234 44.3116 44.9922C44.5095 45.4609 44.7933 45.8203 45.1631 46.0703C45.5329 46.3203 45.9834 46.4453 46.5147 46.4453ZM55.8028 47.6484C55.0059 47.6484 54.3158 47.474 53.7325 47.125C53.1544 46.7708 52.7065 46.2682 52.3888 45.6172C52.0763 44.9661 51.92 44.1927 51.92 43.2969V43.2812C51.92 42.3802 52.0763 41.6042 52.3888 40.9531C52.7065 40.3021 53.1544 39.8021 53.7325 39.4531C54.3158 39.1042 55.0059 38.9297 55.8028 38.9297C56.6049 38.9297 57.295 39.1042 57.8731 39.4531C58.4513 39.8021 58.8966 40.3021 59.2091 40.9531C59.5268 41.6042 59.6856 42.3802 59.6856 43.2812V43.2969C59.6856 44.1927 59.5268 44.9661 59.2091 45.6172C58.8966 46.2682 58.4513 46.7708 57.8731 47.125C57.295 47.474 56.6049 47.6484 55.8028 47.6484ZM55.8028 46.4453C56.3341 46.4453 56.7846 46.3203 57.1544 46.0703C57.5242 45.8203 57.8054 45.4609 57.9981 44.9922C58.196 44.5234 58.295 43.9583 58.295 43.2969V43.2812C58.295 42.6146 58.196 42.0469 57.9981 41.5781C57.8054 41.1094 57.5242 40.7526 57.1544 40.5078C56.7846 40.2578 56.3341 40.1328 55.8028 40.1328C55.2716 40.1328 54.821 40.2578 54.4513 40.5078C54.0815 40.7526 53.7976 41.1094 53.5997 41.5781C53.407 42.0469 53.3106 42.6146 53.3106 43.2812V43.2969C53.3106 43.9583 53.407 44.5234 53.5997 44.9922C53.7976 45.4609 54.0815 45.8203 54.4513 46.0703C54.821 46.3203 55.2716 46.4453 55.8028 46.4453ZM64.7394 47.6484C64.031 47.6484 63.4112 47.4688 62.88 47.1094C62.3487 46.75 61.9373 46.2448 61.6456 45.5938C61.354 44.9375 61.2081 44.1719 61.2081 43.2969V43.2812C61.2081 42.401 61.354 41.6354 61.6456 40.9844C61.9373 40.3333 62.3461 39.8281 62.8722 39.4688C63.4034 39.1094 64.0258 38.9297 64.7394 38.9297C65.1248 38.9297 65.4868 38.9922 65.8253 39.1172C66.1691 39.237 66.4737 39.4062 66.7394 39.625C67.005 39.8438 67.2133 40.1042 67.3644 40.4062H67.4894V35.7344H68.8487V47.5H67.4894V46.1562H67.3644C67.1925 46.4688 66.9764 46.737 66.7159 46.9609C66.4555 47.1797 66.1586 47.349 65.8253 47.4688C65.492 47.5885 65.13 47.6484 64.7394 47.6484ZM65.0519 46.4453C65.5623 46.4453 66.0024 46.3177 66.3722 46.0625C66.742 45.8073 67.0258 45.4453 67.2237 44.9766C67.4217 44.5026 67.5206 43.9427 67.5206 43.2969V43.2812C67.5206 42.6302 67.4217 42.0703 67.2237 41.6016C67.0258 41.1328 66.742 40.7708 66.3722 40.5156C66.0024 40.2604 65.5623 40.1328 65.0519 40.1328C64.5415 40.1328 64.1014 40.2604 63.7316 40.5156C63.367 40.7656 63.0857 41.125 62.8878 41.5938C62.6951 42.0625 62.5987 42.625 62.5987 43.2812V43.2969C62.5987 43.9479 62.6951 44.5104 62.8878 44.9844C63.0857 45.4531 63.367 45.8151 63.7316 46.0703C64.1014 46.3203 64.5415 46.4453 65.0519 46.4453ZM75.7062 47.5V35.7344H77.0656V47.5H75.7062ZM79.5412 47.5V39.0781H80.9006V47.5H79.5412ZM80.2287 37.4531C79.9735 37.4531 79.7522 37.362 79.5647 37.1797C79.3824 36.9922 79.2912 36.7708 79.2912 36.5156C79.2912 36.2552 79.3824 36.0339 79.5647 35.8516C79.7522 35.6693 79.9735 35.5781 80.2287 35.5781C80.4892 35.5781 80.7105 35.6693 80.8928 35.8516C81.0751 36.0339 81.1662 36.2552 81.1662 36.5156C81.1662 36.7708 81.0751 36.9922 80.8928 37.1797C80.7105 37.362 80.4892 37.4531 80.2287 37.4531ZM86.7669 50.4688C86.0898 50.4688 85.4986 50.3724 84.9934 50.1797C84.4882 49.9922 84.0846 49.724 83.7825 49.375C83.4856 49.0312 83.3007 48.6302 83.2278 48.1719L83.2434 48.1641H84.6497L84.6575 48.1719C84.7304 48.4896 84.9492 48.75 85.3138 48.9531C85.6783 49.1615 86.1627 49.2656 86.7669 49.2656C87.5221 49.2656 88.1106 49.0938 88.5325 48.75C88.9596 48.4115 89.1731 47.9323 89.1731 47.3125V45.6094H89.0481C88.871 45.9167 88.6497 46.1797 88.3841 46.3984C88.1184 46.6172 87.819 46.7839 87.4856 46.8984C87.1523 47.0078 86.7929 47.0625 86.4075 47.0625C85.6835 47.0625 85.0559 46.8906 84.5247 46.5469C83.9986 46.1979 83.5924 45.7188 83.3059 45.1094C83.0195 44.5 82.8763 43.8021 82.8763 43.0156V43C82.8763 42.2135 83.0195 41.5156 83.3059 40.9062C83.5976 40.2917 84.0091 39.8099 84.5403 39.4609C85.0716 39.1068 85.7044 38.9297 86.4388 38.9297C86.8346 38.9297 87.1992 38.9922 87.5325 39.1172C87.8658 39.2422 88.1601 39.4193 88.4153 39.6484C88.6757 39.8776 88.8919 40.151 89.0638 40.4688H89.1575V39.0781H90.5169V47.3828C90.5169 48.0078 90.3632 48.5521 90.0559 49.0156C89.7539 49.4792 89.3216 49.8359 88.7591 50.0859C88.1966 50.3411 87.5325 50.4688 86.7669 50.4688ZM86.7044 45.8594C87.2252 45.8594 87.6705 45.7396 88.0403 45.5C88.4153 45.2552 88.7018 44.9193 88.8997 44.4922C89.1028 44.0651 89.2044 43.5729 89.2044 43.0156V43C89.2044 42.4427 89.1028 41.9479 88.8997 41.5156C88.7018 41.0833 88.4153 40.7448 88.0403 40.5C87.6705 40.2552 87.2252 40.1328 86.7044 40.1328C86.1835 40.1328 85.7408 40.2552 85.3763 40.5C85.0169 40.7448 84.7408 41.0833 84.5481 41.5156C84.3606 41.9479 84.2669 42.4427 84.2669 43V43.0156C84.2669 43.5729 84.3606 44.0651 84.5481 44.4922C84.7408 44.9193 85.0169 45.2552 85.3763 45.5C85.7408 45.7396 86.1835 45.8594 86.7044 45.8594ZM92.9613 47.5V35.7344H94.3206V40.3438H94.4456C94.6592 39.8958 94.9665 39.5495 95.3675 39.3047C95.7685 39.0547 96.279 38.9297 96.8988 38.9297C97.529 38.9297 98.0628 39.0521 98.5003 39.2969C98.9378 39.5365 99.2711 39.888 99.5003 40.3516C99.7295 40.8151 99.8441 41.3802 99.8441 42.0469V47.5H98.4847V42.375C98.4847 41.6146 98.3232 41.0521 98.0003 40.6875C97.6826 40.3177 97.1878 40.1328 96.5159 40.1328C96.068 40.1328 95.68 40.2292 95.3519 40.4219C95.0238 40.6146 94.7685 40.888 94.5863 41.2422C94.4092 41.5964 94.3206 42.0208 94.3206 42.5156V47.5H92.9613ZM105.132 47.5625C104.268 47.5625 103.64 47.388 103.249 47.0391C102.864 46.6901 102.671 46.1146 102.671 45.3125V40.2031H101.343V39.0781H102.671V36.8984H104.077V39.0781H105.921V40.2031H104.077V44.9688C104.077 45.4635 104.171 45.8203 104.359 46.0391C104.546 46.2526 104.859 46.3594 105.296 46.3594C105.416 46.3594 105.518 46.3568 105.601 46.3516C105.689 46.3464 105.796 46.3385 105.921 46.3281V47.4844C105.791 47.5052 105.661 47.5234 105.531 47.5391C105.4 47.5547 105.268 47.5625 105.132 47.5625ZM107.819 47.5V39.0781H109.178V47.5H107.819ZM108.506 37.4531C108.251 37.4531 108.03 37.362 107.842 37.1797C107.66 36.9922 107.569 36.7708 107.569 36.5156C107.569 36.2552 107.66 36.0339 107.842 35.8516C108.03 35.6693 108.251 35.5781 108.506 35.5781C108.767 35.5781 108.988 35.6693 109.17 35.8516C109.353 36.0339 109.444 36.2552 109.444 36.5156C109.444 36.7708 109.353 36.9922 109.17 37.1797C108.988 37.362 108.767 37.4531 108.506 37.4531ZM111.576 47.5V39.0781H112.935V40.3438H113.06C113.274 39.8958 113.581 39.5495 113.982 39.3047C114.383 39.0547 114.893 38.9297 115.513 38.9297C116.461 38.9297 117.188 39.2005 117.693 39.7422C118.203 40.2786 118.458 41.0469 118.458 42.0469V47.5H117.099V42.375C117.099 41.6146 116.938 41.0521 116.615 40.6875C116.297 40.3177 115.802 40.1328 115.13 40.1328C114.682 40.1328 114.294 40.2292 113.966 40.4219C113.638 40.6146 113.383 40.888 113.201 41.2422C113.024 41.5964 112.935 42.0208 112.935 42.5156V47.5H111.576ZM124.223 50.4688C123.546 50.4688 122.955 50.3724 122.45 50.1797C121.944 49.9922 121.541 49.724 121.239 49.375C120.942 49.0312 120.757 48.6302 120.684 48.1719L120.7 48.1641H122.106L122.114 48.1719C122.187 48.4896 122.405 48.75 122.77 48.9531C123.135 49.1615 123.619 49.2656 124.223 49.2656C124.978 49.2656 125.567 49.0938 125.989 48.75C126.416 48.4115 126.629 47.9323 126.629 47.3125V45.6094H126.504C126.327 45.9167 126.106 46.1797 125.84 46.3984C125.575 46.6172 125.275 46.7839 124.942 46.8984C124.609 47.0078 124.249 47.0625 123.864 47.0625C123.14 47.0625 122.512 46.8906 121.981 46.5469C121.455 46.1979 121.049 45.7188 120.762 45.1094C120.476 44.5 120.332 43.8021 120.332 43.0156V43C120.332 42.2135 120.476 41.5156 120.762 40.9062C121.054 40.2917 121.465 39.8099 121.997 39.4609C122.528 39.1068 123.161 38.9297 123.895 38.9297C124.291 38.9297 124.655 38.9922 124.989 39.1172C125.322 39.2422 125.616 39.4193 125.872 39.6484C126.132 39.8776 126.348 40.151 126.52 40.4688H126.614V39.0781H127.973V47.3828C127.973 48.0078 127.819 48.5521 127.512 49.0156C127.21 49.4792 126.778 49.8359 126.215 50.0859C125.653 50.3411 124.989 50.4688 124.223 50.4688ZM124.161 45.8594C124.681 45.8594 125.127 45.7396 125.497 45.5C125.872 45.2552 126.158 44.9193 126.356 44.4922C126.559 44.0651 126.661 43.5729 126.661 43.0156V43C126.661 42.4427 126.559 41.9479 126.356 41.5156C126.158 41.0833 125.872 40.7448 125.497 40.5C125.127 40.2552 124.681 40.1328 124.161 40.1328C123.64 40.1328 123.197 40.2552 122.832 40.5C122.473 40.7448 122.197 41.0833 122.004 41.5156C121.817 41.9479 121.723 42.4427 121.723 43V43.0156C121.723 43.5729 121.817 44.0651 122.004 44.4922C122.197 44.9193 122.473 45.2552 122.832 45.5C123.197 45.7396 123.64 45.8594 124.161 45.8594Z" fill="#746685"/>
<g clip-path="url(#clip4_46_12000)">
<rect y="64" width="20" height="20" rx="6" fill="#BD82FF"/>
<g clip-path="url(#clip5_46_12000)">
<path d="M8.22883 77.6095C7.94497 77.6096 7.67274 77.4968 7.47219 77.2959L5.18461 75.0092C4.93846 74.7629 4.93846 74.3638 5.18461 74.1176C5.43083 73.8714 5.82996 73.8714 6.07618 74.1176L8.22883 76.2702L13.9238 70.5752C14.17 70.3291 14.5692 70.3291 14.8154 70.5752C15.0615 70.8215 15.0615 71.2206 14.8154 71.4668L8.98547 77.2959C8.78492 77.4968 8.51269 77.6096 8.22883 77.6095Z" fill="white"/>
</g>
</g>
<path d="M36.1094 79.7656C35.3281 79.7656 34.6224 79.6276 33.9922 79.3516C33.3672 79.0755 32.8307 78.6797 32.3828 78.1641C31.9401 77.6484 31.599 77.0286 31.3594 76.3047C31.1198 75.5807 31 74.7682 31 73.8672V73.8516C31 72.6641 31.2109 71.6302 31.6328 70.75C32.0547 69.8646 32.6484 69.1797 33.4141 68.6953C34.1849 68.2057 35.0833 67.9609 36.1094 67.9609C36.9427 67.9609 37.6849 68.1094 38.3359 68.4062C38.9922 68.6979 39.5312 69.1094 39.9531 69.6406C40.3802 70.1719 40.6667 70.7943 40.8125 71.5078L40.8281 71.5859H39.4062L39.3828 71.5078C39.1536 70.7786 38.7604 70.2214 38.2031 69.8359C37.6458 69.4505 36.9479 69.2578 36.1094 69.2578C35.3646 69.2578 34.7161 69.4479 34.1641 69.8281C33.6172 70.2031 33.1927 70.7344 32.8906 71.4219C32.5885 72.1094 32.4375 72.9193 32.4375 73.8516V73.8672C32.4375 74.5755 32.5208 75.2135 32.6875 75.7812C32.8594 76.349 33.1042 76.8333 33.4219 77.2344C33.7448 77.6302 34.1328 77.9349 34.5859 78.1484C35.0391 78.362 35.5495 78.4688 36.1172 78.4688C36.7891 78.4688 37.3776 78.3359 37.8828 78.0703C38.3932 77.7995 38.7891 77.4245 39.0703 76.9453C39.3516 76.4661 39.4922 75.9089 39.4922 75.2734V75H36.3281V73.7656H40.8984V75.1406C40.8984 75.8333 40.7839 76.4635 40.5547 77.0312C40.3307 77.599 40.0078 78.0885 39.5859 78.5C39.1641 78.9062 38.6589 79.2188 38.0703 79.4375C37.4818 79.6562 36.8281 79.7656 36.1094 79.7656ZM46.5147 79.6484C45.7178 79.6484 45.0277 79.474 44.4444 79.125C43.8663 78.7708 43.4183 78.2682 43.1006 77.6172C42.7881 76.9661 42.6319 76.1927 42.6319 75.2969V75.2812C42.6319 74.3802 42.7881 73.6042 43.1006 72.9531C43.4183 72.3021 43.8663 71.8021 44.4444 71.4531C45.0277 71.1042 45.7178 70.9297 46.5147 70.9297C47.3168 70.9297 48.0069 71.1042 48.585 71.4531C49.1631 71.8021 49.6084 72.3021 49.9209 72.9531C50.2386 73.6042 50.3975 74.3802 50.3975 75.2812V75.2969C50.3975 76.1927 50.2386 76.9661 49.9209 77.6172C49.6084 78.2682 49.1631 78.7708 48.585 79.125C48.0069 79.474 47.3168 79.6484 46.5147 79.6484ZM46.5147 78.4453C47.0459 78.4453 47.4965 78.3203 47.8663 78.0703C48.236 77.8203 48.5173 77.4609 48.71 76.9922C48.9079 76.5234 49.0069 75.9583 49.0069 75.2969V75.2812C49.0069 74.6146 48.9079 74.0469 48.71 73.5781C48.5173 73.1094 48.236 72.7526 47.8663 72.5078C47.4965 72.2578 47.0459 72.1328 46.5147 72.1328C45.9834 72.1328 45.5329 72.2578 45.1631 72.5078C44.7933 72.7526 44.5095 73.1094 44.3116 73.5781C44.1189 74.0469 44.0225 74.6146 44.0225 75.2812V75.2969C44.0225 75.9583 44.1189 76.5234 44.3116 76.9922C44.5095 77.4609 44.7933 77.8203 45.1631 78.0703C45.5329 78.3203 45.9834 78.4453 46.5147 78.4453ZM55.8028 79.6484C55.0059 79.6484 54.3158 79.474 53.7325 79.125C53.1544 78.7708 52.7065 78.2682 52.3888 77.6172C52.0763 76.9661 51.92 76.1927 51.92 75.2969V75.2812C51.92 74.3802 52.0763 73.6042 52.3888 72.9531C52.7065 72.3021 53.1544 71.8021 53.7325 71.4531C54.3158 71.1042 55.0059 70.9297 55.8028 70.9297C56.6049 70.9297 57.295 71.1042 57.8731 71.4531C58.4513 71.8021 58.8966 72.3021 59.2091 72.9531C59.5268 73.6042 59.6856 74.3802 59.6856 75.2812V75.2969C59.6856 76.1927 59.5268 76.9661 59.2091 77.6172C58.8966 78.2682 58.4513 78.7708 57.8731 79.125C57.295 79.474 56.6049 79.6484 55.8028 79.6484ZM55.8028 78.4453C56.3341 78.4453 56.7846 78.3203 57.1544 78.0703C57.5242 77.8203 57.8054 77.4609 57.9981 76.9922C58.196 76.5234 58.295 75.9583 58.295 75.2969V75.2812C58.295 74.6146 58.196 74.0469 57.9981 73.5781C57.8054 73.1094 57.5242 72.7526 57.1544 72.5078C56.7846 72.2578 56.3341 72.1328 55.8028 72.1328C55.2716 72.1328 54.821 72.2578 54.4513 72.5078C54.0815 72.7526 53.7976 73.1094 53.5997 73.5781C53.407 74.0469 53.3106 74.6146 53.3106 75.2812V75.2969C53.3106 75.9583 53.407 76.5234 53.5997 76.9922C53.7976 77.4609 54.0815 77.8203 54.4513 78.0703C54.821 78.3203 55.2716 78.4453 55.8028 78.4453ZM64.7394 79.6484C64.031 79.6484 63.4112 79.4688 62.88 79.1094C62.3487 78.75 61.9373 78.2448 61.6456 77.5938C61.354 76.9375 61.2081 76.1719 61.2081 75.2969V75.2812C61.2081 74.401 61.354 73.6354 61.6456 72.9844C61.9373 72.3333 62.3461 71.8281 62.8722 71.4688C63.4034 71.1094 64.0258 70.9297 64.7394 70.9297C65.1248 70.9297 65.4868 70.9922 65.8253 71.1172C66.1691 71.237 66.4737 71.4062 66.7394 71.625C67.005 71.8438 67.2133 72.1042 67.3644 72.4062H67.4894V67.7344H68.8487V79.5H67.4894V78.1562H67.3644C67.1925 78.4688 66.9764 78.737 66.7159 78.9609C66.4555 79.1797 66.1586 79.349 65.8253 79.4688C65.492 79.5885 65.13 79.6484 64.7394 79.6484ZM65.0519 78.4453C65.5623 78.4453 66.0024 78.3177 66.3722 78.0625C66.742 77.8073 67.0258 77.4453 67.2237 76.9766C67.4217 76.5026 67.5206 75.9427 67.5206 75.2969V75.2812C67.5206 74.6302 67.4217 74.0703 67.2237 73.6016C67.0258 73.1328 66.742 72.7708 66.3722 72.5156C66.0024 72.2604 65.5623 72.1328 65.0519 72.1328C64.5415 72.1328 64.1014 72.2604 63.7316 72.5156C63.367 72.7656 63.0857 73.125 62.8878 73.5938C62.6951 74.0625 62.5987 74.625 62.5987 75.2812V75.2969C62.5987 75.9479 62.6951 76.5104 62.8878 76.9844C63.0857 77.4531 63.367 77.8151 63.7316 78.0703C64.1014 78.3203 64.5415 78.4453 65.0519 78.4453ZM78.5187 79.6484C77.8937 79.6484 77.3417 79.5547 76.8625 79.3672C76.3833 79.1745 75.9979 78.9062 75.7062 78.5625C75.4198 78.2188 75.2505 77.8151 75.1984 77.3516H76.5891C76.7036 77.7005 76.9276 77.9818 77.2609 78.1953C77.5943 78.4089 78.0292 78.5156 78.5656 78.5156C78.9458 78.5156 79.2792 78.4609 79.5656 78.3516C79.8573 78.237 80.0865 78.0833 80.2531 77.8906C80.4198 77.6927 80.5031 77.4661 80.5031 77.2109V77.1953C80.5031 76.9089 80.3885 76.6667 80.1594 76.4688C79.9302 76.2656 79.5552 76.1016 79.0344 75.9766L77.7297 75.6641C77.2036 75.5391 76.7714 75.3776 76.4328 75.1797C76.0943 74.9766 75.8443 74.7292 75.6828 74.4375C75.5214 74.1406 75.4406 73.7917 75.4406 73.3906V73.3828C75.4406 72.9141 75.576 72.4948 75.8469 72.125C76.1229 71.7552 76.4979 71.4635 76.9719 71.25C77.4458 71.0365 77.9797 70.9297 78.5734 70.9297C79.162 70.9297 79.6828 71.0234 80.1359 71.2109C80.5943 71.3932 80.9615 71.6536 81.2375 71.9922C81.5187 72.3307 81.6906 72.7292 81.7531 73.1875H80.4172C80.3286 72.8542 80.1255 72.5833 79.8078 72.375C79.4901 72.1667 79.076 72.0625 78.5656 72.0625C78.2323 72.0625 77.9354 72.1172 77.675 72.2266C77.4146 72.3307 77.2089 72.4766 77.0578 72.6641C76.9068 72.8516 76.8312 73.0703 76.8312 73.3203V73.3359C76.8312 73.5234 76.8807 73.6901 76.9797 73.8359C77.0786 73.9818 77.2323 74.1094 77.4406 74.2188C77.649 74.3281 77.9172 74.4245 78.2453 74.5078L79.5422 74.8203C80.3339 75.013 80.9224 75.2891 81.3078 75.6484C81.6984 76.0078 81.8937 76.4896 81.8937 77.0938V77.1094C81.8937 77.6094 81.7453 78.0521 81.4484 78.4375C81.1516 78.8177 80.7479 79.1146 80.2375 79.3281C79.7323 79.5417 79.1594 79.6484 78.5187 79.6484ZM83.8694 79.5V71.0781H85.2287V79.5H83.8694ZM84.5569 69.4531C84.3017 69.4531 84.0803 69.362 83.8928 69.1797C83.7105 68.9922 83.6194 68.7708 83.6194 68.5156C83.6194 68.2552 83.7105 68.0339 83.8928 67.8516C84.0803 67.6693 84.3017 67.5781 84.5569 67.5781C84.8173 67.5781 85.0386 67.6693 85.2209 67.8516C85.4032 68.0339 85.4944 68.2552 85.4944 68.5156C85.4944 68.7708 85.4032 68.9922 85.2209 69.1797C85.0386 69.362 84.8173 69.4531 84.5569 69.4531ZM87.4309 79.5V78.5156L92.2903 72.3281V72.2031H87.4388V71.0781H93.8919V72.0859L89.0559 78.25V78.375H93.9153V79.5H87.4309ZM99.2894 79.6484C98.4873 79.6484 97.7972 79.4714 97.2191 79.1172C96.6461 78.763 96.2034 78.263 95.8909 77.6172C95.5836 76.9661 95.43 76.2005 95.43 75.3203V75.3125C95.43 74.4427 95.5836 73.6797 95.8909 73.0234C96.2034 72.3672 96.6435 71.8542 97.2113 71.4844C97.779 71.1146 98.443 70.9297 99.2034 70.9297C99.9691 70.9297 100.625 71.1068 101.172 71.4609C101.724 71.8151 102.146 72.3099 102.438 72.9453C102.735 73.5755 102.883 74.3099 102.883 75.1484V75.6797H96.1331V74.5938H102.188L101.516 75.5859V75.0469C101.516 74.3854 101.417 73.8411 101.219 73.4141C101.021 72.987 100.748 72.6693 100.399 72.4609C100.05 72.2474 99.6488 72.1406 99.1956 72.1406C98.7425 72.1406 98.3363 72.2526 97.9769 72.4766C97.6227 72.6953 97.3415 73.0208 97.1331 73.4531C96.9248 73.8854 96.8206 74.4167 96.8206 75.0469V75.5859C96.8206 76.1849 96.9222 76.6979 97.1253 77.125C97.3284 77.5469 97.6175 77.8724 97.9925 78.1016C98.3675 78.3255 98.8102 78.4375 99.3206 78.4375C99.7008 78.4375 100.032 78.3854 100.313 78.2812C100.594 78.1771 100.826 78.0443 101.008 77.8828C101.19 77.7214 101.318 77.5573 101.391 77.3906L101.422 77.3203H102.782L102.766 77.3828C102.693 77.6693 102.563 77.9479 102.375 78.2188C102.193 78.4844 101.956 78.7266 101.664 78.9453C101.373 79.1589 101.026 79.3307 100.625 79.4609C100.229 79.5859 99.7842 79.6484 99.2894 79.6484Z" fill="#746685"/>
<g clip-path="url(#clip6_46_12000)">
<rect y="96" width="20" height="20" rx="6" fill="#BD82FF"/>
<g clip-path="url(#clip7_46_12000)">
<path d="M8.22883 109.609C7.94497 109.61 7.67274 109.497 7.47219 109.296L5.18461 107.009C4.93846 106.763 4.93846 106.364 5.18461 106.118C5.43083 105.871 5.82996 105.871 6.07618 106.118L8.22883 108.27L13.9238 102.575C14.17 102.329 14.5692 102.329 14.8154 102.575C15.0615 102.821 15.0615 103.221 14.8154 103.467L8.98547 109.296C8.78492 109.497 8.51269 109.61 8.22883 109.609Z" fill="white"/>
</g>
</g>
<path d="M31.4375 111.5V100.227H32.8047L39.2656 109.492L38.3281 109H39.0469V100.227H40.4375V111.5H39.0703L32.6094 102.266L33.5469 102.758H32.8281V111.5H31.4375ZM46.4366 111.648C45.6397 111.648 44.9496 111.474 44.3663 111.125C43.7881 110.771 43.3402 110.268 43.0225 109.617C42.71 108.966 42.5538 108.193 42.5538 107.297V107.281C42.5538 106.38 42.71 105.604 43.0225 104.953C43.3402 104.302 43.7881 103.802 44.3663 103.453C44.9496 103.104 45.6397 102.93 46.4366 102.93C47.2386 102.93 47.9288 103.104 48.5069 103.453C49.085 103.802 49.5303 104.302 49.8428 104.953C50.1605 105.604 50.3194 106.38 50.3194 107.281V107.297C50.3194 108.193 50.1605 108.966 49.8428 109.617C49.5303 110.268 49.085 110.771 48.5069 111.125C47.9288 111.474 47.2386 111.648 46.4366 111.648ZM46.4366 110.445C46.9678 110.445 47.4183 110.32 47.7881 110.07C48.1579 109.82 48.4392 109.461 48.6319 108.992C48.8298 108.523 48.9288 107.958 48.9288 107.297V107.281C48.9288 106.615 48.8298 106.047 48.6319 105.578C48.4392 105.109 48.1579 104.753 47.7881 104.508C47.4183 104.258 46.9678 104.133 46.4366 104.133C45.9053 104.133 45.4548 104.258 45.085 104.508C44.7152 104.753 44.4314 105.109 44.2334 105.578C44.0407 106.047 43.9444 106.615 43.9444 107.281V107.297C43.9444 107.958 44.0407 108.523 44.2334 108.992C44.4314 109.461 44.7152 109.82 45.085 110.07C45.4548 110.32 45.9053 110.445 46.4366 110.445ZM55.2559 111.562C54.3914 111.562 53.7638 111.388 53.3731 111.039C52.9877 110.69 52.795 110.115 52.795 109.312V104.203H51.4669V103.078H52.795V100.898H54.2013V103.078H56.045V104.203H54.2013V108.969C54.2013 109.464 54.295 109.82 54.4825 110.039C54.67 110.253 54.9825 110.359 55.42 110.359C55.5398 110.359 55.6414 110.357 55.7247 110.352C55.8132 110.346 55.92 110.339 56.045 110.328V111.484C55.9148 111.505 55.7846 111.523 55.6544 111.539C55.5242 111.555 55.3914 111.562 55.2559 111.562ZM65.2384 111.562C64.3739 111.562 63.7463 111.388 63.3556 111.039C62.9702 110.69 62.7775 110.115 62.7775 109.312V104.203H61.4494V103.078H62.7775V100.898H64.1838V103.078H66.0275V104.203H64.1838V108.969C64.1838 109.464 64.2775 109.82 64.465 110.039C64.6525 110.253 64.965 110.359 65.4025 110.359C65.5223 110.359 65.6239 110.357 65.7072 110.352C65.7957 110.346 65.9025 110.339 66.0275 110.328V111.484C65.8973 111.505 65.7671 111.523 65.6369 111.539C65.5067 111.555 65.3739 111.562 65.2384 111.562ZM71.2453 111.648C70.4484 111.648 69.7583 111.474 69.175 111.125C68.5969 110.771 68.149 110.268 67.8312 109.617C67.5187 108.966 67.3625 108.193 67.3625 107.297V107.281C67.3625 106.38 67.5187 105.604 67.8312 104.953C68.149 104.302 68.5969 103.802 69.175 103.453C69.7583 103.104 70.4484 102.93 71.2453 102.93C72.0474 102.93 72.7375 103.104 73.3156 103.453C73.8937 103.802 74.3391 104.302 74.6516 104.953C74.9693 105.604 75.1281 106.38 75.1281 107.281V107.297C75.1281 108.193 74.9693 108.966 74.6516 109.617C74.3391 110.268 73.8937 110.771 73.3156 111.125C72.7375 111.474 72.0474 111.648 71.2453 111.648ZM71.2453 110.445C71.7766 110.445 72.2271 110.32 72.5969 110.07C72.9667 109.82 73.2479 109.461 73.4406 108.992C73.6385 108.523 73.7375 107.958 73.7375 107.297V107.281C73.7375 106.615 73.6385 106.047 73.4406 105.578C73.2479 105.109 72.9667 104.753 72.5969 104.508C72.2271 104.258 71.7766 104.133 71.2453 104.133C70.7141 104.133 70.2635 104.258 69.8937 104.508C69.524 104.753 69.2401 105.109 69.0422 105.578C68.8495 106.047 68.7531 106.615 68.7531 107.281V107.297C68.7531 107.958 68.8495 108.523 69.0422 108.992C69.2401 109.461 69.524 109.82 69.8937 110.07C70.2635 110.32 70.7141 110.445 71.2453 110.445ZM80.5334 111.648C79.7366 111.648 79.0465 111.474 78.4631 111.125C77.885 110.771 77.4371 110.268 77.1194 109.617C76.8069 108.966 76.6506 108.193 76.6506 107.297V107.281C76.6506 106.38 76.8069 105.604 77.1194 104.953C77.4371 104.302 77.885 103.802 78.4631 103.453C79.0465 103.104 79.7366 102.93 80.5334 102.93C81.3355 102.93 82.0256 103.104 82.6037 103.453C83.1819 103.802 83.6272 104.302 83.9397 104.953C84.2574 105.604 84.4162 106.38 84.4162 107.281V107.297C84.4162 108.193 84.2574 108.966 83.9397 109.617C83.6272 110.268 83.1819 110.771 82.6037 111.125C82.0256 111.474 81.3355 111.648 80.5334 111.648ZM80.5334 110.445C81.0647 110.445 81.5152 110.32 81.885 110.07C82.2548 109.82 82.536 109.461 82.7287 108.992C82.9267 108.523 83.0256 107.958 83.0256 107.297V107.281C83.0256 106.615 82.9267 106.047 82.7287 105.578C82.536 105.109 82.2548 104.753 81.885 104.508C81.5152 104.258 81.0647 104.133 80.5334 104.133C80.0022 104.133 79.5517 104.258 79.1819 104.508C78.8121 104.753 78.5282 105.109 78.3303 105.578C78.1376 106.047 78.0412 106.615 78.0412 107.281V107.297C78.0412 107.958 78.1376 108.523 78.3303 108.992C78.5282 109.461 78.8121 109.82 79.1819 110.07C79.5517 110.32 80.0022 110.445 80.5334 110.445ZM94.1409 111.648C93.3545 111.648 92.6722 111.469 92.0941 111.109C91.5159 110.75 91.068 110.242 90.7503 109.586C90.4326 108.93 90.2738 108.156 90.2738 107.266V107.25C90.2738 106.375 90.43 105.615 90.7425 104.969C91.0602 104.323 91.5081 103.823 92.0863 103.469C92.6644 103.109 93.3467 102.93 94.1331 102.93C94.8154 102.93 95.404 103.049 95.8988 103.289C96.3935 103.529 96.7894 103.852 97.0863 104.258C97.3831 104.659 97.5732 105.109 97.6566 105.609L97.6644 105.656H96.3128L96.305 105.633C96.2008 105.216 95.9639 104.862 95.5941 104.57C95.2243 104.279 94.7373 104.133 94.1331 104.133C93.6279 104.133 93.1904 104.26 92.8206 104.516C92.4508 104.771 92.1644 105.133 91.9613 105.602C91.7633 106.065 91.6644 106.615 91.6644 107.25V107.266C91.6644 107.911 91.7659 108.474 91.9691 108.953C92.1722 109.427 92.4586 109.794 92.8284 110.055C93.1982 110.315 93.6331 110.445 94.1331 110.445C94.7008 110.445 95.1644 110.323 95.5238 110.078C95.8831 109.833 96.1409 109.477 96.2972 109.008L96.3128 108.961L97.6566 108.953L97.6409 109.039C97.5264 109.544 97.3232 109.995 97.0316 110.391C96.7399 110.781 96.3545 111.089 95.8753 111.312C95.3961 111.536 94.818 111.648 94.1409 111.648ZM99.5619 111.5V99.7344H100.921V111.5H99.5619ZM106.827 111.648C106.03 111.648 105.34 111.474 104.756 111.125C104.178 110.771 103.73 110.268 103.412 109.617C103.1 108.966 102.944 108.193 102.944 107.297V107.281C102.944 106.38 103.1 105.604 103.412 104.953C103.73 104.302 104.178 103.802 104.756 103.453C105.34 103.104 106.03 102.93 106.827 102.93C107.629 102.93 108.319 103.104 108.897 103.453C109.475 103.802 109.92 104.302 110.233 104.953C110.551 105.604 110.709 106.38 110.709 107.281V107.297C110.709 108.193 110.551 108.966 110.233 109.617C109.92 110.268 109.475 110.771 108.897 111.125C108.319 111.474 107.629 111.648 106.827 111.648ZM106.827 110.445C107.358 110.445 107.808 110.32 108.178 110.07C108.548 109.82 108.829 109.461 109.022 108.992C109.22 108.523 109.319 107.958 109.319 107.297V107.281C109.319 106.615 109.22 106.047 109.022 105.578C108.829 105.109 108.548 104.753 108.178 104.508C107.808 104.258 107.358 104.133 106.827 104.133C106.295 104.133 105.845 104.258 105.475 104.508C105.105 104.753 104.821 105.109 104.623 105.578C104.431 106.047 104.334 106.615 104.334 107.281V107.297C104.334 107.958 104.431 108.523 104.623 108.992C104.821 109.461 105.105 109.82 105.475 110.07C105.845 110.32 106.295 110.445 106.827 110.445ZM115.544 111.648C114.919 111.648 114.367 111.555 113.888 111.367C113.409 111.174 113.024 110.906 112.732 110.562C112.445 110.219 112.276 109.815 112.224 109.352H113.615C113.729 109.701 113.953 109.982 114.287 110.195C114.62 110.409 115.055 110.516 115.591 110.516C115.971 110.516 116.305 110.461 116.591 110.352C116.883 110.237 117.112 110.083 117.279 109.891C117.445 109.693 117.529 109.466 117.529 109.211V109.195C117.529 108.909 117.414 108.667 117.185 108.469C116.956 108.266 116.581 108.102 116.06 107.977L114.755 107.664C114.229 107.539 113.797 107.378 113.458 107.18C113.12 106.977 112.87 106.729 112.708 106.438C112.547 106.141 112.466 105.792 112.466 105.391V105.383C112.466 104.914 112.602 104.495 112.872 104.125C113.149 103.755 113.524 103.464 113.997 103.25C114.471 103.036 115.005 102.93 115.599 102.93C116.188 102.93 116.708 103.023 117.162 103.211C117.62 103.393 117.987 103.654 118.263 103.992C118.544 104.331 118.716 104.729 118.779 105.188H117.443C117.354 104.854 117.151 104.583 116.833 104.375C116.516 104.167 116.102 104.062 115.591 104.062C115.258 104.062 114.961 104.117 114.701 104.227C114.44 104.331 114.234 104.477 114.083 104.664C113.932 104.852 113.857 105.07 113.857 105.32V105.336C113.857 105.523 113.906 105.69 114.005 105.836C114.104 105.982 114.258 106.109 114.466 106.219C114.675 106.328 114.943 106.424 115.271 106.508L116.568 106.82C117.359 107.013 117.948 107.289 118.333 107.648C118.724 108.008 118.919 108.49 118.919 109.094V109.109C118.919 109.609 118.771 110.052 118.474 110.438C118.177 110.818 117.774 111.115 117.263 111.328C116.758 111.542 116.185 111.648 115.544 111.648ZM124.301 111.648C123.499 111.648 122.809 111.471 122.231 111.117C121.658 110.763 121.215 110.263 120.903 109.617C120.596 108.966 120.442 108.201 120.442 107.32V107.312C120.442 106.443 120.596 105.68 120.903 105.023C121.215 104.367 121.655 103.854 122.223 103.484C122.791 103.115 123.455 102.93 124.215 102.93C124.981 102.93 125.637 103.107 126.184 103.461C126.736 103.815 127.158 104.31 127.45 104.945C127.747 105.576 127.895 106.31 127.895 107.148V107.68H121.145V106.594H127.2L126.528 107.586V107.047C126.528 106.385 126.429 105.841 126.231 105.414C126.033 104.987 125.76 104.669 125.411 104.461C125.062 104.247 124.661 104.141 124.207 104.141C123.754 104.141 123.348 104.253 122.989 104.477C122.635 104.695 122.353 105.021 122.145 105.453C121.937 105.885 121.832 106.417 121.832 107.047V107.586C121.832 108.185 121.934 108.698 122.137 109.125C122.34 109.547 122.629 109.872 123.004 110.102C123.379 110.326 123.822 110.438 124.332 110.438C124.713 110.438 125.043 110.385 125.325 110.281C125.606 110.177 125.838 110.044 126.02 109.883C126.202 109.721 126.33 109.557 126.403 109.391L126.434 109.32H127.793L127.778 109.383C127.705 109.669 127.575 109.948 127.387 110.219C127.205 110.484 126.968 110.727 126.676 110.945C126.385 111.159 126.038 111.331 125.637 111.461C125.241 111.586 124.796 111.648 124.301 111.648Z" fill="#746685"/>
<g clip-path="url(#clip8_46_12000)">
<rect y="128" width="20" height="20" rx="6" fill="#BD82FF"/>
<g clip-path="url(#clip9_46_12000)">
<path d="M8.22883 141.609C7.94497 141.61 7.67274 141.497 7.47219 141.296L5.18461 139.009C4.93846 138.763 4.93846 138.364 5.18461 138.118C5.43083 137.871 5.82996 137.871 6.07618 138.118L8.22883 140.27L13.9238 134.575C14.17 134.329 14.5692 134.329 14.8154 134.575C15.0615 134.821 15.0615 135.221 14.8154 135.467L8.98547 141.296C8.78492 141.497 8.51269 141.61 8.22883 141.609Z" fill="white"/>
</g>
</g>
<path d="M31.4375 143.5V132.227H32.8047L39.2656 141.492L38.3281 141H39.0469V132.227H40.4375V143.5H39.0703L32.6094 134.266L33.5469 134.758H32.8281V143.5H31.4375ZM46.4366 143.648C45.6397 143.648 44.9496 143.474 44.3663 143.125C43.7881 142.771 43.3402 142.268 43.0225 141.617C42.71 140.966 42.5538 140.193 42.5538 139.297V139.281C42.5538 138.38 42.71 137.604 43.0225 136.953C43.3402 136.302 43.7881 135.802 44.3663 135.453C44.9496 135.104 45.6397 134.93 46.4366 134.93C47.2386 134.93 47.9288 135.104 48.5069 135.453C49.085 135.802 49.5303 136.302 49.8428 136.953C50.1605 137.604 50.3194 138.38 50.3194 139.281V139.297C50.3194 140.193 50.1605 140.966 49.8428 141.617C49.5303 142.268 49.085 142.771 48.5069 143.125C47.9288 143.474 47.2386 143.648 46.4366 143.648ZM46.4366 142.445C46.9678 142.445 47.4183 142.32 47.7881 142.07C48.1579 141.82 48.4392 141.461 48.6319 140.992C48.8298 140.523 48.9288 139.958 48.9288 139.297V139.281C48.9288 138.615 48.8298 138.047 48.6319 137.578C48.4392 137.109 48.1579 136.753 47.7881 136.508C47.4183 136.258 46.9678 136.133 46.4366 136.133C45.9053 136.133 45.4548 136.258 45.085 136.508C44.7152 136.753 44.4314 137.109 44.2334 137.578C44.0407 138.047 43.9444 138.615 43.9444 139.281V139.297C43.9444 139.958 44.0407 140.523 44.2334 140.992C44.4314 141.461 44.7152 141.82 45.085 142.07C45.4548 142.32 45.9053 142.445 46.4366 142.445ZM55.2559 143.562C54.3914 143.562 53.7638 143.388 53.3731 143.039C52.9877 142.69 52.795 142.115 52.795 141.312V136.203H51.4669V135.078H52.795V132.898H54.2013V135.078H56.045V136.203H54.2013V140.969C54.2013 141.464 54.295 141.82 54.4825 142.039C54.67 142.253 54.9825 142.359 55.42 142.359C55.5398 142.359 55.6414 142.357 55.7247 142.352C55.8132 142.346 55.92 142.339 56.045 142.328V143.484C55.9148 143.505 55.7846 143.523 55.6544 143.539C55.5242 143.555 55.3914 143.562 55.2559 143.562ZM65.2384 143.562C64.3739 143.562 63.7463 143.388 63.3556 143.039C62.9702 142.69 62.7775 142.115 62.7775 141.312V136.203H61.4494V135.078H62.7775V132.898H64.1838V135.078H66.0275V136.203H64.1838V140.969C64.1838 141.464 64.2775 141.82 64.465 142.039C64.6525 142.253 64.965 142.359 65.4025 142.359C65.5223 142.359 65.6239 142.357 65.7072 142.352C65.7957 142.346 65.9025 142.339 66.0275 142.328V143.484C65.8973 143.505 65.7671 143.523 65.6369 143.539C65.5067 143.555 65.3739 143.562 65.2384 143.562ZM71.2453 143.648C70.4484 143.648 69.7583 143.474 69.175 143.125C68.5969 142.771 68.149 142.268 67.8312 141.617C67.5187 140.966 67.3625 140.193 67.3625 139.297V139.281C67.3625 138.38 67.5187 137.604 67.8312 136.953C68.149 136.302 68.5969 135.802 69.175 135.453C69.7583 135.104 70.4484 134.93 71.2453 134.93C72.0474 134.93 72.7375 135.104 73.3156 135.453C73.8937 135.802 74.3391 136.302 74.6516 136.953C74.9693 137.604 75.1281 138.38 75.1281 139.281V139.297C75.1281 140.193 74.9693 140.966 74.6516 141.617C74.3391 142.268 73.8937 142.771 73.3156 143.125C72.7375 143.474 72.0474 143.648 71.2453 143.648ZM71.2453 142.445C71.7766 142.445 72.2271 142.32 72.5969 142.07C72.9667 141.82 73.2479 141.461 73.4406 140.992C73.6385 140.523 73.7375 139.958 73.7375 139.297V139.281C73.7375 138.615 73.6385 138.047 73.4406 137.578C73.2479 137.109 72.9667 136.753 72.5969 136.508C72.2271 136.258 71.7766 136.133 71.2453 136.133C70.7141 136.133 70.2635 136.258 69.8937 136.508C69.524 136.753 69.2401 137.109 69.0422 137.578C68.8495 138.047 68.7531 138.615 68.7531 139.281V139.297C68.7531 139.958 68.8495 140.523 69.0422 140.992C69.2401 141.461 69.524 141.82 69.8937 142.07C70.2635 142.32 70.7141 142.445 71.2453 142.445ZM80.5334 143.648C79.7366 143.648 79.0465 143.474 78.4631 143.125C77.885 142.771 77.4371 142.268 77.1194 141.617C76.8069 140.966 76.6506 140.193 76.6506 139.297V139.281C76.6506 138.38 76.8069 137.604 77.1194 136.953C77.4371 136.302 77.885 135.802 78.4631 135.453C79.0465 135.104 79.7366 134.93 80.5334 134.93C81.3355 134.93 82.0256 135.104 82.6037 135.453C83.1819 135.802 83.6272 136.302 83.9397 136.953C84.2574 137.604 84.4162 138.38 84.4162 139.281V139.297C84.4162 140.193 84.2574 140.966 83.9397 141.617C83.6272 142.268 83.1819 142.771 82.6037 143.125C82.0256 143.474 81.3355 143.648 80.5334 143.648ZM80.5334 142.445C81.0647 142.445 81.5152 142.32 81.885 142.07C82.2548 141.82 82.536 141.461 82.7287 140.992C82.9267 140.523 83.0256 139.958 83.0256 139.297V139.281C83.0256 138.615 82.9267 138.047 82.7287 137.578C82.536 137.109 82.2548 136.753 81.885 136.508C81.5152 136.258 81.0647 136.133 80.5334 136.133C80.0022 136.133 79.5517 136.258 79.1819 136.508C78.8121 136.753 78.5282 137.109 78.3303 137.578C78.1376 138.047 78.0412 138.615 78.0412 139.281V139.297C78.0412 139.958 78.1376 140.523 78.3303 140.992C78.5282 141.461 78.8121 141.82 79.1819 142.07C79.5517 142.32 80.0022 142.445 80.5334 142.445ZM91.2581 143.5V136.203H89.8597V135.078H91.2581V134.141C91.2581 133.578 91.3493 133.115 91.5316 132.75C91.7191 132.38 91.9951 132.107 92.3597 131.93C92.7243 131.747 93.1722 131.656 93.7034 131.656C93.8701 131.656 94.0264 131.664 94.1722 131.68C94.3232 131.69 94.4691 131.708 94.6097 131.734V132.82C94.5264 132.805 94.43 132.794 94.3206 132.789C94.2113 132.784 94.0967 132.781 93.9769 132.781C93.4925 132.781 93.1435 132.898 92.93 133.133C92.7217 133.367 92.6175 133.716 92.6175 134.18V135.078H94.5316V136.203H92.6175V143.5H91.2581ZM98.4056 143.648C97.8744 143.648 97.3952 143.547 96.9681 143.344C96.5462 143.141 96.2103 142.852 95.9603 142.477C95.7155 142.102 95.5931 141.659 95.5931 141.148V141.133C95.5931 140.633 95.7129 140.206 95.9525 139.852C96.1921 139.492 96.541 139.211 96.9994 139.008C97.4577 138.805 98.0124 138.685 98.6634 138.648L101.757 138.461V139.547L98.8275 139.734C98.1869 139.771 97.7181 139.904 97.4212 140.133C97.1296 140.362 96.9837 140.685 96.9837 141.102V141.117C96.9837 141.544 97.1452 141.878 97.4681 142.117C97.791 142.352 98.1973 142.469 98.6869 142.469C99.1504 142.469 99.5619 142.378 99.9212 142.195C100.281 142.008 100.562 141.755 100.765 141.438C100.973 141.12 101.077 140.76 101.077 140.359V137.734C101.077 137.214 100.919 136.818 100.601 136.547C100.288 136.271 99.8171 136.133 99.1869 136.133C98.6817 136.133 98.2676 136.224 97.9447 136.406C97.6218 136.583 97.4056 136.836 97.2962 137.164L97.2884 137.188H95.9291L95.9369 137.141C96.0098 136.698 96.1921 136.312 96.4837 135.984C96.7806 135.651 97.1634 135.393 97.6322 135.211C98.1009 135.023 98.6348 134.93 99.2337 134.93C99.9212 134.93 100.502 135.042 100.976 135.266C101.455 135.49 101.817 135.812 102.062 136.234C102.312 136.651 102.437 137.151 102.437 137.734V143.5H101.077V142.258H100.952C100.775 142.555 100.559 142.807 100.304 143.016C100.054 143.224 99.7702 143.383 99.4525 143.492C99.1348 143.596 98.7858 143.648 98.4056 143.648ZM104.756 143.5V135.078H106.116V136.328H106.241C106.402 135.885 106.676 135.542 107.061 135.297C107.446 135.052 107.923 134.93 108.491 134.93C108.621 134.93 108.748 134.938 108.873 134.953C109.004 134.964 109.103 134.974 109.17 134.984V136.305C109.03 136.279 108.892 136.26 108.756 136.25C108.626 136.234 108.485 136.227 108.334 136.227C107.902 136.227 107.519 136.312 107.186 136.484C106.853 136.656 106.59 136.896 106.397 137.203C106.209 137.51 106.116 137.87 106.116 138.281V143.5H104.756ZM117.332 143.648C116.801 143.648 116.322 143.547 115.895 143.344C115.473 143.141 115.137 142.852 114.887 142.477C114.642 142.102 114.52 141.659 114.52 141.148V141.133C114.52 140.633 114.64 140.206 114.879 139.852C115.119 139.492 115.468 139.211 115.926 139.008C116.385 138.805 116.939 138.685 117.59 138.648L120.684 138.461V139.547L117.754 139.734C117.114 139.771 116.645 139.904 116.348 140.133C116.056 140.362 115.911 140.685 115.911 141.102V141.117C115.911 141.544 116.072 141.878 116.395 142.117C116.718 142.352 117.124 142.469 117.614 142.469C118.077 142.469 118.489 142.378 118.848 142.195C119.207 142.008 119.489 141.755 119.692 141.438C119.9 141.12 120.004 140.76 120.004 140.359V137.734C120.004 137.214 119.846 136.818 119.528 136.547C119.215 136.271 118.744 136.133 118.114 136.133C117.609 136.133 117.194 136.224 116.872 136.406C116.549 136.583 116.332 136.836 116.223 137.164L116.215 137.188H114.856L114.864 137.141C114.937 136.698 115.119 136.312 115.411 135.984C115.707 135.651 116.09 135.393 116.559 135.211C117.028 135.023 117.562 134.93 118.161 134.93C118.848 134.93 119.429 135.042 119.903 135.266C120.382 135.49 120.744 135.812 120.989 136.234C121.239 136.651 121.364 137.151 121.364 137.734V143.5H120.004V142.258H119.879C119.702 142.555 119.486 142.807 119.231 143.016C118.981 143.224 118.697 143.383 118.379 143.492C118.062 143.596 117.713 143.648 117.332 143.648ZM124.918 143.5L122.558 135.078H123.918L125.574 141.812H125.699L127.582 135.078H128.871L130.753 141.812H130.878L132.535 135.078H133.886L131.527 143.5H130.16L128.277 136.984H128.152L126.277 143.5H124.918ZM137.596 143.648C137.065 143.648 136.586 143.547 136.159 143.344C135.737 143.141 135.401 142.852 135.151 142.477C134.906 142.102 134.784 141.659 134.784 141.148V141.133C134.784 140.633 134.904 140.206 135.143 139.852C135.383 139.492 135.732 139.211 136.19 139.008C136.648 138.805 137.203 138.685 137.854 138.648L140.948 138.461V139.547L138.018 139.734C137.378 139.771 136.909 139.904 136.612 140.133C136.32 140.362 136.174 140.685 136.174 141.102V141.117C136.174 141.544 136.336 141.878 136.659 142.117C136.982 142.352 137.388 142.469 137.878 142.469C138.341 142.469 138.753 142.378 139.112 142.195C139.471 142.008 139.753 141.755 139.956 141.438C140.164 141.12 140.268 140.76 140.268 140.359V137.734C140.268 137.214 140.109 136.818 139.792 136.547C139.479 136.271 139.008 136.133 138.378 136.133C137.872 136.133 137.458 136.224 137.135 136.406C136.812 136.583 136.596 136.836 136.487 137.164L136.479 137.188H135.12L135.128 137.141C135.2 136.698 135.383 136.312 135.674 135.984C135.971 135.651 136.354 135.393 136.823 135.211C137.292 135.023 137.825 134.93 138.424 134.93C139.112 134.93 139.693 135.042 140.167 135.266C140.646 135.49 141.008 135.812 141.253 136.234C141.503 136.651 141.628 137.151 141.628 137.734V143.5H140.268V142.258H140.143C139.966 142.555 139.75 142.807 139.495 143.016C139.245 143.224 138.961 143.383 138.643 143.492C138.325 143.596 137.976 143.648 137.596 143.648ZM144.353 146.453C144.265 146.453 144.166 146.448 144.056 146.438C143.947 146.432 143.845 146.422 143.752 146.406V145.289C143.835 145.305 143.926 145.315 144.025 145.32C144.124 145.326 144.22 145.328 144.314 145.328C144.699 145.328 145.015 145.229 145.259 145.031C145.509 144.833 145.71 144.492 145.861 144.008L146.017 143.508L142.9 135.078H144.353L146.947 142.859L146.408 142.008H147.048L146.509 142.859L149.095 135.078H150.525L147.236 144.016C147.007 144.646 146.765 145.138 146.509 145.492C146.254 145.846 145.955 146.094 145.611 146.234C145.272 146.38 144.853 146.453 144.353 146.453Z" fill="#746685"/>
<g clip-path="url(#clip10_46_12000)">
<rect y="160" width="20" height="20" rx="6" fill="#BD82FF"/>
<g clip-path="url(#clip11_46_12000)">
<path d="M8.22883 173.609C7.94497 173.61 7.67274 173.497 7.47219 173.296L5.18461 171.009C4.93846 170.763 4.93846 170.364 5.18461 170.118C5.43083 169.871 5.82996 169.871 6.07618 170.118L8.22883 172.27L13.9238 166.575C14.17 166.329 14.5692 166.329 14.8154 166.575C15.0615 166.821 15.0615 167.221 14.8154 167.467L8.98547 173.296C8.78492 173.497 8.51269 173.61 8.22883 173.609Z" fill="white"/>
</g>
</g>
<path d="M31.4375 175.5V164.227H32.8047L39.2656 173.492L38.3281 173H39.0469V164.227H40.4375V175.5H39.0703L32.6094 166.266L33.5469 166.758H32.8281V175.5H31.4375ZM46.4366 175.648C45.6397 175.648 44.9496 175.474 44.3663 175.125C43.7881 174.771 43.3402 174.268 43.0225 173.617C42.71 172.966 42.5538 172.193 42.5538 171.297V171.281C42.5538 170.38 42.71 169.604 43.0225 168.953C43.3402 168.302 43.7881 167.802 44.3663 167.453C44.9496 167.104 45.6397 166.93 46.4366 166.93C47.2386 166.93 47.9288 167.104 48.5069 167.453C49.085 167.802 49.5303 168.302 49.8428 168.953C50.1605 169.604 50.3194 170.38 50.3194 171.281V171.297C50.3194 172.193 50.1605 172.966 49.8428 173.617C49.5303 174.268 49.085 174.771 48.5069 175.125C47.9288 175.474 47.2386 175.648 46.4366 175.648ZM46.4366 174.445C46.9678 174.445 47.4183 174.32 47.7881 174.07C48.1579 173.82 48.4392 173.461 48.6319 172.992C48.8298 172.523 48.9288 171.958 48.9288 171.297V171.281C48.9288 170.615 48.8298 170.047 48.6319 169.578C48.4392 169.109 48.1579 168.753 47.7881 168.508C47.4183 168.258 46.9678 168.133 46.4366 168.133C45.9053 168.133 45.4548 168.258 45.085 168.508C44.7152 168.753 44.4314 169.109 44.2334 169.578C44.0407 170.047 43.9444 170.615 43.9444 171.281V171.297C43.9444 171.958 44.0407 172.523 44.2334 172.992C44.4314 173.461 44.7152 173.82 45.085 174.07C45.4548 174.32 45.9053 174.445 46.4366 174.445ZM55.2559 175.562C54.3914 175.562 53.7638 175.388 53.3731 175.039C52.9877 174.69 52.795 174.115 52.795 173.312V168.203H51.4669V167.078H52.795V164.898H54.2013V167.078H56.045V168.203H54.2013V172.969C54.2013 173.464 54.295 173.82 54.4825 174.039C54.67 174.253 54.9825 174.359 55.42 174.359C55.5398 174.359 55.6414 174.357 55.7247 174.352C55.8132 174.346 55.92 174.339 56.045 174.328V175.484C55.9148 175.505 55.7846 175.523 55.6544 175.539C55.5242 175.555 55.3914 175.562 55.2559 175.562ZM66.4338 175.648C66.0431 175.648 65.6811 175.589 65.3478 175.469C65.0145 175.349 64.7176 175.18 64.4572 174.961C64.1968 174.737 63.9806 174.469 63.8088 174.156H63.6838V175.5H62.3244V163.734H63.6838V168.406H63.8088C63.965 168.104 64.1733 167.844 64.4338 167.625C64.6994 167.406 65.0015 167.237 65.34 167.117C65.6838 166.992 66.0483 166.93 66.4338 166.93C67.1473 166.93 67.7671 167.109 68.2931 167.469C68.8244 167.828 69.2358 168.333 69.5275 168.984C69.8192 169.635 69.965 170.401 69.965 171.281V171.297C69.965 172.172 69.8192 172.938 69.5275 173.594C69.2358 174.245 68.8244 174.75 68.2931 175.109C67.7671 175.469 67.1473 175.648 66.4338 175.648ZM66.1213 174.445C66.6369 174.445 67.077 174.32 67.4416 174.07C67.8061 173.815 68.0848 173.453 68.2775 172.984C68.4754 172.51 68.5744 171.948 68.5744 171.297V171.281C68.5744 170.625 68.4754 170.062 68.2775 169.594C68.0848 169.125 67.8061 168.766 67.4416 168.516C67.077 168.26 66.6369 168.133 66.1213 168.133C65.6108 168.133 65.1707 168.26 64.8009 168.516C64.4311 168.771 64.1473 169.133 63.9494 169.602C63.7515 170.07 63.6525 170.63 63.6525 171.281V171.297C63.6525 171.943 63.7515 172.503 63.9494 172.977C64.1473 173.445 64.4311 173.807 64.8009 174.062C65.1707 174.318 65.6108 174.445 66.1213 174.445ZM71.9875 175.5V163.734H73.3469V175.5H71.9875ZM78.6116 175.648C77.9761 175.648 77.4423 175.529 77.01 175.289C76.5777 175.044 76.2522 174.69 76.0334 174.227C75.8199 173.758 75.7131 173.193 75.7131 172.531V167.078H77.0725V172.203C77.0725 172.958 77.2183 173.521 77.51 173.891C77.8069 174.26 78.2912 174.445 78.9631 174.445C79.3329 174.445 79.6584 174.391 79.9397 174.281C80.2261 174.172 80.4657 174.016 80.6584 173.812C80.8511 173.604 80.9944 173.354 81.0881 173.062C81.1871 172.766 81.2366 172.432 81.2366 172.062V167.078H82.5959V175.5H81.2366V174.242H81.1116C80.9761 174.539 80.7912 174.794 80.5569 175.008C80.3225 175.216 80.0412 175.375 79.7131 175.484C79.3902 175.594 79.023 175.648 78.6116 175.648ZM84.97 175.5V167.078H86.3294V168.328H86.4544C86.6158 167.885 86.8893 167.542 87.2747 167.297C87.6601 167.052 88.1367 166.93 88.7044 166.93C88.8346 166.93 88.9622 166.938 89.0872 166.953C89.2174 166.964 89.3164 166.974 89.3841 166.984V168.305C89.2434 168.279 89.1054 168.26 88.97 168.25C88.8398 168.234 88.6992 168.227 88.5481 168.227C88.1158 168.227 87.733 168.312 87.3997 168.484C87.0664 168.656 86.8033 168.896 86.6106 169.203C86.4231 169.51 86.3294 169.87 86.3294 170.281V175.5H84.97ZM91.055 175.5V167.078H92.4144V168.328H92.5394C92.7008 167.885 92.9743 167.542 93.3597 167.297C93.7451 167.052 94.2217 166.93 94.7894 166.93C94.9196 166.93 95.0472 166.938 95.1722 166.953C95.3024 166.964 95.4014 166.974 95.4691 166.984V168.305C95.3284 168.279 95.1904 168.26 95.055 168.25C94.9248 168.234 94.7842 168.227 94.6331 168.227C94.2008 168.227 93.818 168.312 93.4847 168.484C93.1514 168.656 92.8883 168.896 92.6956 169.203C92.5081 169.51 92.4144 169.87 92.4144 170.281V175.5H91.055ZM97.7806 178.453C97.6921 178.453 97.5931 178.448 97.4837 178.438C97.3744 178.432 97.2728 178.422 97.1791 178.406V177.289C97.2624 177.305 97.3535 177.315 97.4525 177.32C97.5515 177.326 97.6478 177.328 97.7416 177.328C98.127 177.328 98.4421 177.229 98.6869 177.031C98.9369 176.833 99.1374 176.492 99.2884 176.008L99.4447 175.508L96.3275 167.078H97.7806L100.374 174.859L99.8353 174.008H100.476L99.9369 174.859L102.523 167.078H103.952L100.663 176.016C100.434 176.646 100.192 177.138 99.9369 177.492C99.6817 177.846 99.3822 178.094 99.0384 178.234C98.6999 178.38 98.2806 178.453 97.7806 178.453Z" fill="#746685"/>
<defs>
<clipPath id="clip0_46_12000">
<rect width="20" height="20" fill="white"/>
</clipPath>
<clipPath id="clip1_46_12000">
<rect width="10" height="10" fill="white" transform="translate(5 5)"/>
</clipPath>
<clipPath id="clip2_46_12000">
<rect width="20" height="20" fill="white" transform="translate(0 32)"/>
</clipPath>
<clipPath id="clip3_46_12000">
<rect width="10" height="10" fill="white" transform="translate(5 37)"/>
</clipPath>
<clipPath id="clip4_46_12000">
<rect width="20" height="20" fill="white" transform="translate(0 64)"/>
</clipPath>
<clipPath id="clip5_46_12000">
<rect width="10" height="10" fill="white" transform="translate(5 69)"/>
</clipPath>
<clipPath id="clip6_46_12000">
<rect width="20" height="20" fill="white" transform="translate(0 96)"/>
</clipPath>
<clipPath id="clip7_46_12000">
<rect width="10" height="10" fill="white" transform="translate(5 101)"/>
</clipPath>
<clipPath id="clip8_46_12000">
<rect width="20" height="20" fill="white" transform="translate(0 128)"/>
</clipPath>
<clipPath id="clip9_46_12000">
<rect width="10" height="10" fill="white" transform="translate(5 133)"/>
</clipPath>
<clipPath id="clip10_46_12000">
<rect width="20" height="20" fill="white" transform="translate(0 160)"/>
</clipPath>
<clipPath id="clip11_46_12000">
<rect width="10" height="10" fill="white" transform="translate(5 165)"/>
</clipPath>
</defs>
</svg>
