<svg width="44" height="44" viewBox="0 0 44 44" fill="none" xmlns="http://www.w3.org/2000/svg">
<rect width="44" height="44" rx="10" fill="#F25D29"/>
<path d="M29.4225 23C29.0035 23.003 28.601 22.8442 28.3074 22.56L22.0587 16.61L15.831 22.54C15.4558 23.006 14.8292 23.2211 14.2273 23.0907C13.6254 22.9603 13.1588 22.5082 13.0331 21.9337C12.9074 21.3592 13.1457 20.7678 13.6429 20.42L21.0067 13.42C21.29 13.1602 21.6652 13.0104 22.0587 13C22.4771 13.0004 22.8781 13.1586 23.1738 13.44L30.5376 20.44C31.1541 21.0291 31.1541 21.9809 30.5376 22.57C30.2416 22.8496 29.8398 23.0045 29.4225 23Z" fill="white"/>
<path d="M22.0587 31C21.1872 31 20.4807 30.3284 20.4807 29.5V14.5C20.4807 13.6716 21.1872 13 22.0587 13C22.9302 13 23.6367 13.6716 23.6367 14.5V29.5C23.6367 30.3284 22.9302 31 22.0587 31Z" fill="white"/>
</svg>
