<svg width="30" height="30" viewBox="0 0 30 30" fill="none" xmlns="http://www.w3.org/2000/svg">
<rect width="30" height="30" rx="15" fill="#27AE60"/>
<path d="M10.6875 20.5V19.1406L14.3828 15.3594C14.8932 14.8438 15.2891 14.4193 15.5703 14.0859C15.8568 13.7474 16.0573 13.4505 16.1719 13.1953C16.2865 12.9349 16.3438 12.6615 16.3438 12.375V12.3516C16.3438 12.0078 16.2682 11.7005 16.1172 11.4297C15.9661 11.1589 15.75 10.9479 15.4688 10.7969C15.1875 10.6406 14.8516 10.5625 14.4609 10.5625C14.0651 10.5625 13.7161 10.6458 13.4141 10.8125C13.112 10.974 12.8776 11.2005 12.7109 11.4922C12.5443 11.7839 12.4609 12.125 12.4609 12.5156L12.4531 12.5469L10.5781 12.5391L10.5703 12.5156C10.5703 11.8125 10.7396 11.1927 11.0781 10.6562C11.4167 10.1198 11.8854 9.70052 12.4844 9.39844C13.0833 9.09635 13.776 8.94531 14.5625 8.94531C15.2917 8.94531 15.9401 9.08333 16.5078 9.35938C17.0807 9.63542 17.5286 10.0156 17.8516 10.5C18.1745 10.9844 18.3359 11.5443 18.3359 12.1797V12.2031C18.3359 12.625 18.2552 13.0391 18.0938 13.4453C17.9323 13.8464 17.6562 14.2865 17.2656 14.7656C16.8802 15.2448 16.3464 15.8151 15.6641 16.4766L12.875 19.1875L13.4062 18.2969V19.1875L12.875 18.8359H18.5078V20.5H10.6875Z" fill="white"/>
</svg>
