<svg width="36" height="36" viewBox="0 0 36 36" fill="none" xmlns="http://www.w3.org/2000/svg">
<rect width="36" height="36" rx="18" fill="#708FE8"/>
<path fill-rule="evenodd" clip-rule="evenodd" d="M25.2264 14.7308C25.4169 15.1949 25.8683 15.4985 26.37 15.5C27.0509 15.5055 27.6 16.0591 27.6 16.74V18.88C27.6 19.5648 27.0448 20.12 26.36 20.12C25.8583 20.1215 25.4069 20.4251 25.2164 20.8892C25.026 21.3534 25.134 21.8865 25.49 22.24C25.9676 22.7295 25.9676 23.5105 25.49 24L23.99 25.5C23.5005 25.9776 22.7194 25.9776 22.23 25.5C22.0042 25.2608 21.6889 25.1267 21.36 25.13C21.0294 25.1273 20.7114 25.2568 20.4767 25.4896C20.242 25.7225 20.11 26.0394 20.11 26.37C20.11 27.0548 19.5548 27.61 18.87 27.61H16.73C16.0452 27.61 15.49 27.0548 15.49 26.37C15.49 26.0394 15.358 25.7225 15.1233 25.4896C14.8886 25.2568 14.5706 25.1273 14.24 25.13C13.9111 25.1267 13.5958 25.2608 13.37 25.5C12.8805 25.9776 12.0995 25.9776 11.61 25.5L10.11 24C9.63237 23.5105 9.63237 22.7295 10.11 22.24C10.466 21.8865 10.574 21.3534 10.3836 20.8892C10.1931 20.4251 9.7417 20.1215 9.24 20.12C8.91113 20.12 8.59573 19.9894 8.36319 19.7568C8.13064 19.5243 8 19.2089 8 18.88V16.74C8 16.0552 8.55517 15.5 9.24 15.5C9.7417 15.4985 10.1931 15.1949 10.3836 14.7308C10.574 14.2666 10.466 13.7335 10.11 13.38C9.63237 12.8905 9.63237 12.1095 10.11 11.62L11.61 10.12C12.0995 9.64237 12.8805 9.64237 13.37 10.12C13.5958 10.3592 13.9111 10.4933 14.24 10.49C14.5723 10.4927 14.8918 10.3619 15.1269 10.1269C15.3619 9.89185 15.4927 9.57234 15.49 9.24C15.49 8.55517 16.0452 8 16.73 8H18.88C19.5648 8 20.12 8.55517 20.12 9.24C20.1173 9.57234 20.2481 9.89185 20.4831 10.1269C20.7182 10.3619 21.0377 10.4927 21.37 10.49C21.6989 10.4933 22.0142 10.3592 22.24 10.12C22.7294 9.64237 23.5105 9.64237 24 10.12L25.5 11.62C25.9776 12.1095 25.9776 12.8905 25.5 13.38C25.144 13.7335 25.036 14.2666 25.2264 14.7308ZM23.8 20.31C24.1904 19.3582 25.0843 18.7081 26.11 18.63L26.08 16.99C25.0654 16.901 24.1855 16.2527 23.8 15.31C23.4224 14.3651 23.5953 13.289 24.25 12.51L23.1 11.36C22.6123 11.7684 21.9961 11.9915 21.36 11.99C19.9429 11.9865 18.7586 10.9104 18.62 9.5H16.98C16.8458 10.9126 15.659 11.9912 14.24 11.99C13.6039 11.9915 12.9877 11.7684 12.5 11.36L11.38 12.51C12.0245 13.295 12.1859 14.3705 11.8 15.31C11.4145 16.2527 10.5346 16.901 9.52 16.99V18.63C10.5346 18.719 11.4145 19.3673 11.8 20.31C12.1776 21.2549 12.0047 22.331 11.35 23.11L12.5 24.26C12.9877 23.8516 13.6039 23.6285 14.24 23.63C15.6571 23.6335 16.8414 24.7096 16.98 26.12H18.62C18.745 24.7029 19.9374 23.6193 21.36 23.63C21.9961 23.6285 22.6123 23.8516 23.1 24.26L24.22 23.11C23.5755 22.325 23.4141 21.2495 23.8 20.31Z" fill="white"/>
<path fill-rule="evenodd" clip-rule="evenodd" d="M14.34 17.81C14.34 15.8991 15.8891 14.35 17.8 14.35C18.7176 14.35 19.5977 14.7145 20.2466 15.3634C20.8955 16.0123 21.26 16.8924 21.26 17.81C21.26 19.7209 19.7109 21.27 17.8 21.27C15.8891 21.27 14.34 19.7209 14.34 17.81ZM15.8 17.81C15.8 18.9146 16.6954 19.81 17.8 19.81C18.9046 19.81 19.8 18.9146 19.8 17.81C19.8 16.7054 18.9046 15.81 17.8 15.81C16.6954 15.81 15.8 16.7054 15.8 17.81Z" fill="white"/>
</svg>
