<svg width="24" height="24" viewBox="0 0 24 24" fill="none" xmlns="http://www.w3.org/2000/svg">
<path fill-rule="evenodd" clip-rule="evenodd" d="M21.6717 6.16739L15.185 1.37239C13.2876 -0.0128022 10.7124 -0.0128022 8.815 1.37239L2.34 6.16739C1.08635 7.07055 0.340453 8.51897 0.333332 10.0641V18.7324C0.403361 21.5245 2.72109 23.7326 5.51333 23.6674H18.4867C21.2789 23.7326 23.5966 21.5245 23.6667 18.7324V10.0524C23.6567 8.51398 22.9161 7.07189 21.6717 6.16739ZM21.9167 18.7324C21.8471 20.5582 20.3126 21.983 18.4867 21.9174H5.51333C3.6898 21.9766 2.15919 20.5553 2.08333 18.7324V10.0641C2.08956 9.0723 2.5712 8.14373 3.37833 7.56739L9.85333 2.78406C11.1321 1.85023 12.8679 1.85023 14.1467 2.78406L20.6217 7.57906C21.4281 8.14538 21.9106 9.06697 21.9167 10.0524V18.7324ZM6.75 16.3757H17.25C17.7332 16.3757 18.125 16.7675 18.125 17.2507C18.125 17.734 17.7332 18.1257 17.25 18.1257H6.75C6.26675 18.1257 5.875 17.734 5.875 17.2507C5.875 16.7675 6.26675 16.3757 6.75 16.3757Z" fill="#CBD2E4"/>
</svg>
