<svg width="24" height="24" viewBox="0 0 24 24" fill="none" xmlns="http://www.w3.org/2000/svg">
<path fill-rule="evenodd" clip-rule="evenodd" d="M5.64113 0.333374H18.6145C21.5698 0.434805 23.8862 2.90774 23.7945 5.86337V13.47C23.8384 14.8975 23.3116 16.2836 22.3306 17.3215C21.3496 18.3594 19.9954 18.9635 18.5678 19H7.46113C6.69252 19.0159 5.96362 19.3446 5.4428 19.91L2.6778 22.8617C2.44354 23.1172 2.11438 23.2649 1.7678 23.27C1.40984 23.2609 1.07038 23.1091 0.824967 22.8483C0.579556 22.5876 0.448559 22.2396 0.461129 21.8817V5.86337C0.369392 2.90774 2.68581 0.434805 5.64113 0.333374ZM18.6145 17.25C20.6036 17.1494 22.1369 15.4595 22.0445 13.47V5.86337C22.1369 3.87388 20.6036 2.18402 18.6145 2.08337H5.64113C3.65203 2.18402 2.11864 3.87388 2.21113 5.86337V20.7967L4.11279 18.72C4.98245 17.7949 6.19151 17.2641 7.46113 17.25H18.6145Z" fill="#CBD2E4"/>
<path d="M7.75279 8.20837H13.5861C14.0694 8.20837 14.4611 7.81662 14.4611 7.33337C14.4611 6.85012 14.0694 6.45837 13.5861 6.45837H7.75279C7.26954 6.45837 6.87779 6.85012 6.87779 7.33337C6.87779 7.81662 7.26954 8.20837 7.75279 8.20837Z" fill="#CBD2E4"/>
<path d="M16.5028 11.125H7.75279C7.26954 11.125 6.87779 11.5168 6.87779 12C6.87779 12.4833 7.26954 12.875 7.75279 12.875H16.5028C16.986 12.875 17.3778 12.4833 17.3778 12C17.3778 11.5168 16.986 11.125 16.5028 11.125Z" fill="#CBD2E4"/>
</svg>
