<svg width="20" height="20" viewBox="0 0 20 20" fill="none" xmlns="http://www.w3.org/2000/svg">
<path fill-rule="evenodd" clip-rule="evenodd" d="M15.6252 4.16667H13.4002L12.3918 3.06667C12.0228 2.70382 11.526 2.50034 11.0085 2.5H8.57516C8.04863 2.50441 7.54527 2.71714 7.17516 3.09167L6.1835 4.16667H3.9585C3.61332 4.16667 3.3335 4.44649 3.3335 4.79167C3.3335 5.13684 3.61332 5.41667 3.9585 5.41667H15.6252C15.9703 5.41667 16.2502 5.13684 16.2502 4.79167C16.2502 4.44649 15.9703 4.16667 15.6252 4.16667ZM8.07516 3.95C8.20816 3.81782 8.38766 3.74303 8.57516 3.74167H11.0085C11.1882 3.74113 11.3613 3.80976 11.4918 3.93333L11.7002 4.15833H7.8835L8.07516 3.95Z" fill="#828282"/>
<path fill-rule="evenodd" clip-rule="evenodd" d="M3.52516 7.93333V14.1667C3.52516 16.2193 5.18917 17.8833 7.24183 17.8833H12.3418C14.3945 17.8833 16.0585 16.2193 16.0585 14.1667V7.93333C16.0585 7.01286 15.3123 6.26667 14.3918 6.26667H5.22516C4.77739 6.25771 4.34485 6.42934 4.02504 6.74288C3.70524 7.05642 3.52507 7.48547 3.52516 7.93333ZM7.91683 10.875C7.91683 11.2202 7.63701 11.5 7.29183 11.5C6.94665 11.5 6.66683 11.2202 6.66683 10.875V8.9C6.66683 8.55482 6.94665 8.275 7.29183 8.275C7.63701 8.275 7.91683 8.55482 7.91683 8.9V10.875ZM9.79183 14.7917C10.137 14.7917 10.4168 14.5118 10.4168 14.1667V8.9C10.4168 8.55482 10.137 8.275 9.79183 8.275C9.44665 8.275 9.16683 8.55482 9.16683 8.9V14.1667C9.16683 14.5118 9.44665 14.7917 9.79183 14.7917ZM12.9168 10.875C12.9168 11.2202 12.637 11.5 12.2918 11.5C11.9467 11.5 11.6668 11.2202 11.6668 10.875V8.9C11.6668 8.55482 11.9467 8.275 12.2918 8.275C12.637 8.275 12.9168 8.55482 12.9168 8.9V10.875Z" fill="#828282"/>
</svg>
