<svg width="167" height="169" viewBox="0 0 167 169" fill="none" xmlns="http://www.w3.org/2000/svg">
<g clip-path="url(#clip0_246_2734)">
<path d="M0 20C0 8.9543 8.95431 0 20 0H83.5H95.3817C101.101 0 106.547 2.44889 110.343 6.72765L119.282 16.804C123.078 21.0827 128.524 23.5316 134.243 23.5316H147C158.046 23.5316 167 32.486 167 43.5316V149C167 160.046 158.046 169 147 169H20C8.9543 169 0 160.046 0 149V20Z" fill="#BEE0EA"/>
<path d="M0 20C0 8.95431 8.95431 0 20 0H41.75H54.485C59.7038 0 64.7159 2.03995 68.4515 5.68442L77.6735 14.6816C81.4091 18.3261 86.4212 20.366 91.6401 20.366H147C158.046 20.366 167 29.3203 167 40.366V144C167 155.046 158.046 164 147 164H20C8.9543 164 0 155.046 0 144V20Z" fill="#E1F0F4"/>
</g>
<defs>
<clipPath id="clip0_246_2734">
<rect width="167" height="169" fill="white"/>
</clipPath>
</defs>
</svg>
