<svg width="24" height="25" viewBox="0 0 24 25" fill="none" xmlns="http://www.w3.org/2000/svg">
<path d="M9.64657 3.6138H4.31419C2.751 3.61473 1.27817 4.3466 0.333344 5.59194V4.28956C0.336597 3.23703 0.757836 2.2289 1.50439 1.48696C2.25095 0.745011 3.26166 0.330022 4.31419 0.333286H9.64657C10.2418 0.330015 10.8137 0.564165 11.2357 0.983881C11.6577 1.4036 11.895 1.97424 11.895 2.56944C11.9018 3.80642 12.9065 4.80562 14.1435 4.8056H19.4513C21.6383 4.79879 23.4186 6.56261 23.4321 8.74959V10.0643C22.4873 8.81891 21.0144 8.08704 19.4513 8.08611H14.1189C13.7776 8.08695 13.4513 7.94577 13.2182 7.69639C12.9851 7.44702 12.8663 7.11194 12.8902 6.77145C12.8805 5.92204 12.5329 5.11147 11.9242 4.51893C11.3156 3.92639 10.4959 3.60068 9.64657 3.6138Z" fill="white"/>
<path d="M23.4567 20.3235V12.9516C23.4431 10.7646 21.6628 9.00079 19.4758 9.00761H14.1435C12.9065 9.00763 11.9018 8.00843 11.895 6.77145C11.895 6.17625 11.6577 5.6056 11.2357 5.18589C10.8137 4.76617 10.2418 4.53202 9.64657 4.53529H4.31419C2.12719 4.52848 0.346875 6.29231 0.333344 8.47928V20.3235C0.336597 21.3761 0.757836 22.3842 1.50439 23.1261C2.25095 23.8681 3.26166 24.2831 4.31419 24.2798H19.4758C20.5284 24.2831 21.5391 23.8681 22.2856 23.1261C23.0322 22.3842 23.4534 21.3761 23.4567 20.3235Z" fill="white"/>
</svg>
