<svg width="30" height="30" viewBox="0 0 30 30" fill="none" xmlns="http://www.w3.org/2000/svg">
<rect width="30" height="30" rx="15" fill="#27AE60"/>
<path d="M14.7578 20.7266C13.9349 20.7266 13.2135 20.5885 12.5938 20.3125C11.9792 20.0365 11.4922 19.6536 11.1328 19.1641C10.7786 18.6693 10.5755 18.099 10.5234 17.4531L10.5156 17.3594H12.4375L12.4453 17.4453C12.4818 17.763 12.599 18.0469 12.7969 18.2969C12.9948 18.5417 13.2604 18.7344 13.5938 18.875C13.9271 19.0104 14.3151 19.0781 14.7578 19.0781C15.1901 19.0781 15.5677 19.0026 15.8906 18.8516C16.2188 18.7005 16.474 18.4922 16.6562 18.2266C16.8385 17.9609 16.9297 17.6536 16.9297 17.3047V17.2891C16.9297 16.6953 16.724 16.2396 16.3125 15.9219C15.901 15.6042 15.3333 15.4453 14.6094 15.4453H13.2734V13.9453H14.5703C14.9818 13.9453 15.3438 13.8724 15.6562 13.7266C15.9688 13.5807 16.2109 13.3828 16.3828 13.1328C16.5547 12.8776 16.6406 12.5859 16.6406 12.2578V12.2422C16.6406 11.8932 16.5651 11.5964 16.4141 11.3516C16.2682 11.1068 16.0521 10.9193 15.7656 10.7891C15.4844 10.6589 15.1432 10.5938 14.7422 10.5938C14.3464 10.5938 13.9948 10.6615 13.6875 10.7969C13.3854 10.9323 13.1432 11.125 12.9609 11.375C12.7786 11.6198 12.6693 11.9089 12.6328 12.2422L12.625 12.3203H10.7578L10.7656 12.2266C10.8229 11.5755 11.0208 11.0104 11.3594 10.5312C11.7031 10.0469 12.1615 9.67188 12.7344 9.40625C13.3125 9.13542 13.9818 9 14.7422 9C15.5182 9 16.1927 9.1276 16.7656 9.38281C17.3385 9.63281 17.7812 9.97917 18.0938 10.4219C18.4115 10.8646 18.5703 11.3828 18.5703 11.9766V11.9922C18.5703 12.4557 18.4661 12.8672 18.2578 13.2266C18.0547 13.5807 17.7734 13.875 17.4141 14.1094C17.0599 14.3438 16.6562 14.5078 16.2031 14.6016V14.6406C17.0365 14.7188 17.7057 14.9948 18.2109 15.4688C18.7161 15.9375 18.9688 16.5625 18.9688 17.3438V17.3594C18.9688 18.0156 18.7917 18.599 18.4375 19.1094C18.0833 19.6146 17.5885 20.0104 16.9531 20.2969C16.3229 20.5833 15.5911 20.7266 14.7578 20.7266Z" fill="white"/>
</svg>
