<svg width="30" height="30" viewBox="0 0 30 30" fill="none" xmlns="http://www.w3.org/2000/svg">
<path d="M14.5056 4.38386L7.69306 16.3214C7.43495 16.7629 7.4357 17.3095 7.69502 17.7504C7.95434 18.1912 8.43172 18.4574 8.94306 18.4464H12.5181C12.9777 18.443 13.4197 18.6233 13.7459 18.9472C14.0721 19.271 14.2556 19.7117 14.2556 20.1714V24.6839C14.2598 25.2321 14.6207 25.7135 15.1457 25.8713C15.6708 26.0291 16.2373 25.8264 16.5431 25.3714L23.1431 15.4714C23.4319 15.0358 23.4591 14.477 23.214 14.0154C22.9689 13.5538 22.4907 13.2635 21.9681 13.2589H18.5681C17.6154 13.2589 16.8431 12.4865 16.8431 11.5339V5.00886C16.847 4.43961 16.4659 3.93958 15.916 3.79254C15.366 3.6455 14.7862 3.88859 14.5056 4.38386Z" fill="#BD82FF"/>
</svg>
