<svg width="24" height="24" viewBox="0 0 24 24" fill="none" xmlns="http://www.w3.org/2000/svg">
<path d="M13.24 15.6199L9.83 16.3499C9.69707 16.3645 9.56294 16.3645 9.43 16.3499C8.95699 16.354 8.50246 16.1664 8.17 15.8299C7.74274 15.3916 7.56592 14.7671 7.7 14.1699L8.43 10.7699C8.58508 10.1013 8.93275 9.49292 9.43 9.01989L15.13 3.31989H6.13C5.01465 3.30634 3.94101 3.74343 3.15228 4.53216C2.36354 5.3209 1.92645 6.39453 1.94 7.50989V17.8599C1.94 20.1464 3.79354 21.9999 6.08 21.9999H16.44C18.7265 21.9999 20.58 20.1464 20.58 17.8599V9.06989L15 14.6599C14.5195 15.1447 13.9077 15.4784 13.24 15.6199Z" fill="#F25D29"/>
<path fill-rule="evenodd" clip-rule="evenodd" d="M16.77 3.10989C17.9273 1.78215 19.9367 1.63067 21.28 2.76989C21.843 3.41817 22.1238 4.26446 22.06 5.12072C21.9961 5.97698 21.5929 6.77228 20.94 7.32989L14.27 13.9999C13.9182 14.3326 13.4767 14.5551 13 14.6399L9.62001 15.3999C9.34191 15.481 9.04186 15.3991 8.84346 15.188C8.64506 14.977 8.58191 14.6724 8.68001 14.3999L9.41001 10.9999C9.52153 10.5368 9.76056 10.1141 10.1 9.77989L16.77 3.10989ZM17.18 7.76989L19.42 5.52989C19.6954 5.23438 19.6872 4.77388 19.4016 4.48827C19.116 4.20266 18.6555 4.19453 18.36 4.46989L16.12 6.70989C15.8275 7.00271 15.8275 7.47707 16.12 7.76989C16.4128 8.06235 16.8872 8.06235 17.18 7.76989Z" fill="#F25D29"/>
</svg>
