<svg width="44" height="44" viewBox="0 0 44 44" fill="none" xmlns="http://www.w3.org/2000/svg">
<path fill-rule="evenodd" clip-rule="evenodd" d="M25.6666 40.3335H17.8933C14.0035 40.3335 10.2729 38.7883 7.52241 36.0377C4.77188 33.2872 3.22665 29.5567 3.22665 25.6668V17.8935C3.22665 9.79332 9.79314 3.22683 17.8933 3.22683H25.6666C33.7668 3.22683 40.3333 9.79332 40.3333 17.8935V25.6668C40.3333 33.767 33.7668 40.3335 25.6666 40.3335ZM13.8497 21.8645C12.5891 23.1113 11.8799 24.8106 11.88 26.5835V28.7102C11.88 29.2014 12.142 29.6553 12.5675 29.9009C12.9929 30.1466 13.517 30.1466 13.9425 29.9009C14.3679 29.6553 14.63 29.2014 14.63 28.7102V26.5835C14.6046 25.5257 15.0137 24.5036 15.7619 23.7554C16.5101 23.0072 17.5321 22.5981 18.59 22.6235L26.9866 22.6235L22.935 26.6752C22.4301 27.2169 22.445 28.0612 22.9687 28.5848C23.4923 29.1084 24.3365 29.1233 24.8783 28.6185L31.2766 22.2202C31.4009 22.093 31.5004 21.9438 31.57 21.7802C31.7168 21.4409 31.7168 21.0561 31.57 20.7168C31.5004 20.5532 31.4009 20.404 31.2766 20.2768L24.8783 13.9518C24.6185 13.6972 24.2704 13.5527 23.9066 13.5485C23.5436 13.5564 23.1969 13.7003 22.935 13.9518C22.3988 14.4887 22.3988 15.3583 22.935 15.8952L26.9866 19.9468L18.59 19.9468C16.8171 19.9272 15.1102 20.6178 13.8497 21.8645Z" fill="#BD82FF"/>
</svg>
