<svg width="24" height="25" viewBox="0 0 24 25" fill="none" xmlns="http://www.w3.org/2000/svg">
<path d="M13.2085 22.0416C13.2022 21.561 12.8141 21.1729 12.3335 21.1666C11.8529 21.1729 11.4648 21.561 11.4585 22.0416V23.7916C11.4585 24.2749 11.8502 24.6666 12.3335 24.6666C12.8167 24.6666 13.2085 24.2749 13.2085 23.7916V22.0416Z" fill="#CBD2E4"/>
<path fill-rule="evenodd" clip-rule="evenodd" d="M22.8335 13H18.4818C17.9986 13 17.6068 12.6082 17.6068 12.125C17.6068 11.6417 17.9986 11.25 18.4818 11.25H21.9235C21.4889 6.63082 17.8282 2.97503 13.2085 2.54663V13.42C14.7567 13.8462 15.7513 15.3515 15.5363 16.9429C15.3212 18.5343 13.9627 19.7215 12.3568 19.7215C10.751 19.7215 9.39248 18.5343 9.1774 16.9429C8.96233 15.3515 9.95693 13.8462 11.5052 13.42V2.54663C6.88545 2.97503 3.22476 6.63082 2.79016 11.25H5.6485C6.13175 11.25 6.5235 11.6417 6.5235 12.125C6.5235 12.6082 6.13175 13 5.6485 13H1.8335C1.35025 13 0.958496 12.6082 0.958496 12.125C0.958496 5.84272 6.05126 0.74996 12.3335 0.74996C18.6157 0.74996 23.7085 5.84272 23.7085 12.125C23.7085 12.6082 23.3167 13 22.8335 13ZM10.8752 16.5C10.8752 17.3054 11.5281 17.9583 12.3335 17.9583C13.1389 17.9583 13.7918 17.3054 13.7918 16.5C13.7918 15.6945 13.1389 15.0416 12.3335 15.0416C11.9467 15.0416 11.5758 15.1953 11.3023 15.4688C11.0288 15.7423 10.8752 16.1132 10.8752 16.5Z" fill="#CBD2E4"/>
</svg>
