<svg width="16" height="16" viewBox="0 0 16 16" fill="none" xmlns="http://www.w3.org/2000/svg">
<path d="M15.8045 14.862L11.8252 10.8826C12.9096 9.55637 13.4428 7.86404 13.3144 6.15568C13.1861 4.44733 12.406 2.85366 11.1356 1.70432C9.86516 0.554984 8.20158 -0.0620951 6.48895 -0.0192739C4.77632 0.0235473 3.14566 0.722992 1.93426 1.93439C0.72287 3.14578 0.0234252 4.77644 -0.019396 6.48907C-0.0622172 8.2017 0.554862 9.86528 1.7042 11.1357C2.85354 12.4061 4.44721 13.1862 6.15556 13.3145C7.86392 13.4429 9.55625 12.9097 10.8825 11.8253L14.8619 15.8046C14.9876 15.9261 15.156 15.9933 15.3308 15.9918C15.5056 15.9902 15.6728 15.9201 15.7964 15.7965C15.92 15.6729 15.9901 15.5057 15.9916 15.3309C15.9932 15.1561 15.926 14.9877 15.8045 14.862ZM6.66652 12C5.61169 12 4.58054 11.6872 3.70348 11.1011C2.82642 10.5151 2.14283 9.68216 1.73916 8.70762C1.3355 7.73308 1.22988 6.66073 1.43567 5.62616C1.64145 4.5916 2.14941 3.64129 2.89529 2.89541C3.64117 2.14953 4.59147 1.64158 5.62604 1.43579C6.6606 1.23 7.73296 1.33562 8.7075 1.73929C9.68204 2.14295 10.515 2.82654 11.101 3.7036C11.6871 4.58066 11.9999 5.61181 11.9999 6.66664C11.9983 8.08064 11.4359 9.43628 10.436 10.4361C9.43615 11.436 8.08052 11.9984 6.66652 12Z" fill="#746685"/>
</svg>
