<svg width="19" height="19" viewBox="0 0 19 19" fill="none" xmlns="http://www.w3.org/2000/svg">
<rect width="19" height="19" rx="9.5" fill="#EB5757"/>
<g clip-path="url(#clip0_904_6693)">
<path d="M10.1188 9.50048L12.8721 6.74755C13.043 6.57665 13.043 6.29956 12.8721 6.12867C12.7012 5.95776 12.4241 5.95776 12.2532 6.12867L9.50023 8.88188L6.74731 6.12867C6.5764 5.95776 6.29931 5.95776 6.12842 6.12867C5.95753 6.29957 5.95752 6.57666 6.12842 6.74755L8.88163 9.50048L6.12842 12.2534C5.95752 12.4243 5.95752 12.7014 6.12842 12.8723C6.29933 13.0432 6.57642 13.0432 6.74731 12.8723L9.50023 10.1191L12.2532 12.8723C12.4241 13.0432 12.7012 13.0432 12.872 12.8723C13.0429 12.7014 13.0429 12.4243 12.872 12.2534L10.1188 9.50048Z" fill="white"/>
</g>
<defs>
<clipPath id="clip0_904_6693">
<rect width="7" height="7" fill="white" transform="translate(6 6)"/>
</clipPath>
</defs>
</svg>
