<svg width="40" height="40" viewBox="0 0 40 40" fill="none" xmlns="http://www.w3.org/2000/svg">
<circle cx="20" cy="20" r="20" fill="#F25D29" fill-opacity="0.3"/>
<g clip-path="url(#clip0_263_11477)">
<path d="M24.5835 10.7643C23.6451 10.7789 22.7272 11.0408 21.9224 11.5237C21.1177 12.0065 20.4546 12.6932 20.0001 13.5143C19.5457 12.6932 18.8826 12.0065 18.0778 11.5237C17.2731 11.0408 16.3552 10.7789 15.4168 10.7643C13.9209 10.8293 12.5115 11.4837 11.4966 12.5845C10.4817 13.6853 9.94367 15.1431 10.0001 16.6393C10.0001 22.2851 19.1301 28.806 19.5185 29.0826L20.0001 29.4235L20.4818 29.0826C20.8701 28.8076 30.0001 22.2851 30.0001 16.6393C30.0566 15.1431 29.5186 13.6853 28.5036 12.5845C27.4887 11.4837 26.0793 10.8293 24.5835 10.7643Z" fill="#F25D29"/>
</g>
<defs>
<clipPath id="clip0_263_11477">
<rect width="20" height="20" fill="white" transform="translate(10 10)"/>
</clipPath>
</defs>
</svg>
