<svg width="24" height="24" viewBox="0 0 24 24" fill="none" xmlns="http://www.w3.org/2000/svg">
<path d="M12.35 1.82671H2.795C2.38263 1.82671 2.04834 1.49241 2.04834 1.08004C2.04834 0.667668 2.38263 0.333374 2.795 0.333374H12.35C13.0761 0.333367 13.7722 0.622593 14.2845 1.13709C14.7969 1.65159 15.0831 2.34898 15.08 3.07504C15.1172 3.73055 15.6601 4.24276 16.3167 4.24171H22.08C22.3712 4.20538 22.6572 4.34033 22.8144 4.5882C22.9715 4.83607 22.9715 5.15234 22.8144 5.40021C22.6572 5.64808 22.3712 5.78304 22.08 5.74671H16.3167C14.827 5.74692 13.6121 4.55286 13.5867 3.06337C13.5803 2.38302 13.0304 1.83304 12.35 1.82671Z" fill="#F7F8FA"/>
<path fill-rule="evenodd" clip-rule="evenodd" d="M18.685 7.04165H14.0183C13.7542 7.04165 13.54 6.8275 13.54 6.56332C13.54 4.63032 11.973 3.06332 10.04 3.06332H5.37334C4.03879 3.05711 2.75678 3.58291 1.81092 4.52439C0.865063 5.46587 0.333321 6.74543 0.333336 8.07999V18.58C0.339751 21.3415 2.57681 23.5786 5.33834 23.585H18.685C21.4374 23.5658 23.6603 21.3325 23.6667 18.58V12.035C23.6603 9.28444 21.4355 7.05447 18.685 7.04165ZM22.185 18.58C22.185 20.513 20.618 22.08 18.685 22.08H5.315C3.38201 22.08 1.815 20.513 1.815 18.58V8.07999C1.815 6.14699 3.38201 4.57999 5.315 4.57999H9.98167C10.5137 4.5706 11.0272 4.7754 11.4068 5.14837C11.7863 5.52134 12.0001 6.03119 12 6.56332C12.0064 7.65413 12.8925 8.53501 13.9833 8.53499H18.65C20.583 8.53499 22.15 10.102 22.15 12.035L22.185 18.58Z" fill="#F7F8FA"/>
</svg>
