<svg width="167" height="169" viewBox="0 0 167 169" fill="none" xmlns="http://www.w3.org/2000/svg">
<g clip-path="url(#clip0_246_2732)">
<path d="M0 20C0 8.9543 8.95431 0 20 0H83.5H95.3817C101.101 0 106.547 2.44889 110.343 6.72765L119.282 16.804C123.078 21.0827 128.524 23.5316 134.243 23.5316H147C158.046 23.5316 167 32.486 167 43.5316V149C167 160.046 158.046 169 147 169H20C8.9543 169 0 160.046 0 149V20Z" fill="#B7EEC6"/>
<path d="M0 20C0 8.95432 8.95431 0 20 0H41.75H54.4973C59.7088 0 64.7145 2.03422 68.4486 5.66959L77.6764 14.6532C81.4105 18.2886 86.4162 20.3228 91.6277 20.3228H147C158.046 20.3228 167 29.2771 167 40.3228V143.652C167 154.698 158.046 163.652 147 163.652H20C8.9543 163.652 0 154.698 0 143.652V20Z" fill="#E1F4E6"/>
</g>
<defs>
<clipPath id="clip0_246_2732">
<rect width="167" height="169" fill="white"/>
</clipPath>
</defs>
</svg>
