<svg width="16" height="16" viewBox="0 0 16 16" fill="none" xmlns="http://www.w3.org/2000/svg">
<g clip-path="url(#clip0_300_6380)">
<path d="M11.6667 0.611435C10.916 0.623112 10.1817 0.832671 9.5379 1.21895C8.8941 1.60523 8.36363 2.15455 8.00005 2.81143C7.63648 2.15455 7.10601 1.60523 6.46221 1.21895C5.81841 0.832671 5.08409 0.623112 4.33339 0.611435C3.13668 0.663429 2.00919 1.18694 1.19724 2.06759C0.385293 2.94824 -0.0451135 4.11445 5.35741e-05 5.31144C5.35741e-05 9.8281 7.30405 15.0448 7.61472 15.2661L8.00005 15.5388L8.38539 15.2661C8.69605 15.0461 16.0001 9.8281 16.0001 5.31144C16.0452 4.11445 15.6148 2.94824 14.8029 2.06759C13.9909 1.18694 12.8634 0.663429 11.6667 0.611435ZM8.00005 13.8974C5.83139 12.2774 1.33339 8.29744 1.33339 5.31144C1.28781 4.46791 1.57763 3.64059 2.13963 3.0099C2.70163 2.37921 3.49021 1.99634 4.33339 1.94477C5.17656 1.99634 5.96515 2.37921 6.52714 3.0099C7.08914 3.64059 7.37896 4.46791 7.33339 5.31144H8.66672C8.62115 4.46791 8.91096 3.64059 9.47296 3.0099C10.035 2.37921 10.8235 1.99634 11.6667 1.94477C12.5099 1.99634 13.2985 2.37921 13.8605 3.0099C14.4225 3.64059 14.7123 4.46791 14.6667 5.31144C14.6667 8.29877 10.1687 12.2774 8.00005 13.8974Z" fill="#BD82FF"/>
</g>
<defs>
<clipPath id="clip0_300_6380">
<rect width="16" height="16" fill="white"/>
</clipPath>
</defs>
</svg>
