<svg width="70" height="70" viewBox="0 0 70 70" fill="none" xmlns="http://www.w3.org/2000/svg">
<g filter="url(#filter0_i_203_7353)">
<rect width="70" height="70" rx="35" fill="white" fill-opacity="0.2"/>
<path fill-rule="evenodd" clip-rule="evenodd" d="M40.6894 28.9025V25.0025C40.6901 23.9837 40.2762 23.0084 39.5429 22.3011C38.8096 21.5937 37.8201 21.2152 36.8019 21.2525H32.7019C31.6837 21.2152 30.6942 21.5937 29.9609 22.3011C29.2276 23.0084 28.8137 23.9837 28.8144 25.0025V28.9025C26.2284 29.8183 24.6555 32.4398 25.0644 35.1525L26.2519 42.365C26.8227 45.2647 29.3974 47.3328 32.3519 47.265H37.2019C40.1564 47.3328 42.7311 45.2647 43.3019 42.365L44.4894 35.1525C44.8922 32.4261 43.2953 29.7996 40.6894 28.9025ZM36.0019 38.665L36.2644 39.44C36.3795 39.7948 36.3194 40.1831 36.1024 40.4863C35.8854 40.7896 35.5373 40.9719 35.1644 40.9775H34.2394C33.8665 40.9719 33.5184 40.7896 33.3014 40.4863C33.0844 40.1831 33.0243 39.7948 33.1394 39.44L33.4019 38.665C33.5434 38.2272 33.433 37.747 33.1144 37.415C32.4061 36.5735 32.4775 35.3255 33.2772 34.5702C34.0769 33.815 35.3269 33.815 36.1266 34.5702C36.9263 35.3255 36.9977 36.5735 36.2894 37.415C35.9708 37.747 35.8604 38.2272 36.0019 38.665ZM30.6894 28.4775H31.1394V28.49H38.8144V25.0025C38.7671 23.9371 37.8676 23.1102 36.8019 23.1525H32.7019C31.6362 23.1102 30.7367 23.9371 30.6894 25.0025V28.4775Z" fill="#BD82FF"/>
<rect x="0.5" y="0.5" width="69" height="69" rx="34.5" stroke="white"/>
</g>
<defs>
<filter id="filter0_i_203_7353" x="0" y="0" width="74" height="74" filterUnits="userSpaceOnUse" color-interpolation-filters="sRGB">
<feFlood flood-opacity="0" result="BackgroundImageFix"/>
<feBlend mode="normal" in="SourceGraphic" in2="BackgroundImageFix" result="shape"/>
<feColorMatrix in="SourceAlpha" type="matrix" values="0 0 0 0 0 0 0 0 0 0 0 0 0 0 0 0 0 0 127 0" result="hardAlpha"/>
<feOffset dx="4" dy="4"/>
<feGaussianBlur stdDeviation="4"/>
<feComposite in2="hardAlpha" operator="arithmetic" k2="-1" k3="1"/>
<feColorMatrix type="matrix" values="0 0 0 0 1 0 0 0 0 1 0 0 0 0 1 0 0 0 0.5 0"/>
<feBlend mode="normal" in2="shape" result="effect1_innerShadow_203_7353"/>
</filter>
</defs>
</svg>
