<svg width="30" height="30" viewBox="0 0 30 30" fill="none" xmlns="http://www.w3.org/2000/svg">
<path d="M14.9924 10.7415C12.6363 10.7415 10.7263 12.6515 10.7263 15.0076C10.7263 17.3637 12.6363 19.2737 14.9924 19.2737C17.3485 19.2737 19.2585 17.3637 19.2585 15.0076C19.2626 13.8749 18.8144 12.7875 18.0135 11.9865C17.2125 11.1856 16.1251 10.7374 14.9924 10.7415Z" fill="white"/>
<path fill-rule="evenodd" clip-rule="evenodd" d="M20.8583 0H9.1417C4.09288 0 0 4.09288 0 9.1417V20.8583C0 25.9071 4.09288 30 9.1417 30H20.8583C25.9071 30 30 25.9071 30 20.8583V9.1417C30 4.09288 25.9071 0 20.8583 0ZM14.9924 21.5439C11.386 21.5356 8.46445 18.614 8.45607 15.0076C8.44991 12.355 10.0439 9.96044 12.4934 8.94247C14.9429 7.92451 17.7646 8.48407 19.6402 10.3598C21.5159 12.2354 22.0755 15.0571 21.0575 17.5066C20.0396 19.9561 17.645 21.5501 14.9924 21.5439Z" fill="white"/>
</svg>
