<svg width="127" height="95" viewBox="0 0 127 95" fill="none" xmlns="http://www.w3.org/2000/svg">
<g filter="url(#filter0_d_568_12821)">
<g filter="url(#filter1_bi_568_12821)">
<rect x="20" y="12" width="87" height="55" rx="16" fill="white" fill-opacity="0.2"/>
<rect x="20.5" y="12.5" width="86" height="54" rx="15.5" stroke="white"/>
</g>
<path d="M40.9219 47V35.3887H40.7559L37.25 37.8691V35.4961L40.9316 32.9082H43.4414V47H40.9219ZM52.3584 47.3516C49.0088 47.3516 46.9971 44.5098 46.9971 39.959V39.9395C46.9971 35.3887 49.0088 32.5566 52.3584 32.5566C55.708 32.5566 57.7393 35.3887 57.7393 39.9395V39.959C57.7393 44.5098 55.708 47.3516 52.3584 47.3516ZM52.3584 45.3105C54.1553 45.3105 55.2002 43.2988 55.2002 39.959V39.9395C55.2002 36.5996 54.1553 34.6074 52.3584 34.6074C50.5616 34.6074 49.5362 36.5996 49.5362 39.9395V39.959C49.5362 43.2988 50.5616 45.3105 52.3584 45.3105ZM65.4942 47.3516C62.1446 47.3516 60.1329 44.5098 60.1329 39.959V39.9395C60.1329 35.3887 62.1446 32.5566 65.4942 32.5566C68.8438 32.5566 70.8751 35.3887 70.8751 39.9395V39.959C70.8751 44.5098 68.8438 47.3516 65.4942 47.3516ZM65.4942 45.3105C67.2911 45.3105 68.336 43.2988 68.336 39.959V39.9395C68.336 36.5996 67.2911 34.6074 65.4942 34.6074C63.6973 34.6074 62.672 36.5996 62.672 39.9395V39.959C62.672 43.2988 63.6973 45.3105 65.4942 45.3105ZM76.4327 40.5156C74.4601 40.5156 73.2687 39.0215 73.2687 36.6191V36.6094C73.2687 34.207 74.4601 32.7129 76.4327 32.7129C78.3956 32.7129 79.5968 34.207 79.5968 36.6094V36.6191C79.5968 39.0215 78.3956 40.5156 76.4327 40.5156ZM78.1905 47H76.1788L85.7003 32.9082H87.712L78.1905 47ZM76.4327 39.0996C77.3214 39.0996 77.839 38.1914 77.839 36.6191V36.6094C77.839 35.0273 77.3214 34.1289 76.4327 34.1289C75.5343 34.1289 75.0363 35.0273 75.0363 36.6094V36.6191C75.0363 38.1914 75.5343 39.0996 76.4327 39.0996ZM87.4581 47.1953C85.4855 47.1953 84.2843 45.6914 84.2843 43.2891V43.2793C84.2843 40.877 85.4855 39.3926 87.4581 39.3926C89.421 39.3926 90.6222 40.877 90.6222 43.2793V43.2891C90.6222 45.6914 89.421 47.1953 87.4581 47.1953ZM87.4581 45.7793C88.3468 45.7793 88.8644 44.8711 88.8644 43.2891V43.2793C88.8644 41.707 88.3468 40.8086 87.4581 40.8086C86.5597 40.8086 86.0519 41.707 86.0519 43.2793V43.2891C86.0519 44.8711 86.5597 45.7793 87.4581 45.7793Z" fill="#4C4752"/>
</g>
<defs>
<filter id="filter0_d_568_12821" x="0" y="0" width="127" height="95" filterUnits="userSpaceOnUse" color-interpolation-filters="sRGB">
<feFlood flood-opacity="0" result="BackgroundImageFix"/>
<feColorMatrix in="SourceAlpha" type="matrix" values="0 0 0 0 0 0 0 0 0 0 0 0 0 0 0 0 0 0 127 0" result="hardAlpha"/>
<feOffset dy="8"/>
<feGaussianBlur stdDeviation="10"/>
<feComposite in2="hardAlpha" operator="out"/>
<feColorMatrix type="matrix" values="0 0 0 0 0.458824 0 0 0 0 0.329412 0 0 0 0 0.717647 0 0 0 0.2 0"/>
<feBlend mode="normal" in2="BackgroundImageFix" result="effect1_dropShadow_568_12821"/>
<feBlend mode="normal" in="SourceGraphic" in2="effect1_dropShadow_568_12821" result="shape"/>
</filter>
<filter id="filter1_bi_568_12821" x="10" y="2" width="107" height="75" filterUnits="userSpaceOnUse" color-interpolation-filters="sRGB">
<feFlood flood-opacity="0" result="BackgroundImageFix"/>
<feGaussianBlur in="BackgroundImageFix" stdDeviation="5"/>
<feComposite in2="SourceAlpha" operator="in" result="effect1_backgroundBlur_568_12821"/>
<feBlend mode="normal" in="SourceGraphic" in2="effect1_backgroundBlur_568_12821" result="shape"/>
<feColorMatrix in="SourceAlpha" type="matrix" values="0 0 0 0 0 0 0 0 0 0 0 0 0 0 0 0 0 0 127 0" result="hardAlpha"/>
<feOffset dx="4" dy="4"/>
<feGaussianBlur stdDeviation="10"/>
<feComposite in2="hardAlpha" operator="arithmetic" k2="-1" k3="1"/>
<feColorMatrix type="matrix" values="0 0 0 0 1 0 0 0 0 1 0 0 0 0 1 0 0 0 1 0"/>
<feBlend mode="normal" in2="shape" result="effect2_innerShadow_568_12821"/>
</filter>
</defs>
</svg>
