<svg width="32" height="32" viewBox="0 0 32 32" fill="none" xmlns="http://www.w3.org/2000/svg">
<rect width="32" height="32" rx="16" fill="#212224"/>
<path d="M9 13C8.44772 13 8 13.4477 8 14V17.76C8 18.3123 8.44772 18.76 9 18.76C9.55228 18.76 10 18.3123 10 17.76V14C10 13.4477 9.55228 13 9 13Z" fill="white"/>
<path d="M16 13C15.4477 13 15 13.4477 15 14V17.76C15 18.3123 15.4477 18.76 16 18.76C16.5523 18.76 17 18.3123 17 17.76V14C17 13.4477 16.5523 13 16 13Z" fill="white"/>
<path d="M23 13C22.4477 13 22 13.4477 22 14V17.76C22 18.3123 22.4477 18.76 23 18.76C23.5523 18.76 24 18.3123 24 17.76V14C24 13.4477 23.5523 13 23 13Z" fill="white"/>
</svg>
