<svg width="21" height="22" viewBox="0 0 21 22" fill="none" xmlns="http://www.w3.org/2000/svg">
<path fill-rule="evenodd" clip-rule="evenodd" d="M13.3626 1.43706L19.1984 5.74759C20.3231 6.56154 20.9923 7.86297 21 9.25127V17.0544C20.9277 19.5566 18.8494 21.5312 16.3468 21.4755H4.66421C2.1574 21.5374 0.072272 19.561 0 17.0544V9.25127C0.0076922 7.86297 0.676885 6.56154 1.80158 5.74759L7.63737 1.43706C9.34129 0.187645 11.6587 0.187645 13.3626 1.43706ZM5.52632 16.8002H15.4737C15.9315 16.8002 16.3026 16.4291 16.3026 15.9713C16.3026 15.5135 15.9315 15.1423 15.4737 15.1423H5.52632C5.0685 15.1423 4.69737 15.5135 4.69737 15.9713C4.69737 16.4291 5.0685 16.8002 5.52632 16.8002Z" fill="white"/>
</svg>
