<svg width="71" height="70" viewBox="0 0 71 70" fill="none" xmlns="http://www.w3.org/2000/svg">
<g filter="url(#filter0_i_203_7231)">
<rect x="0.5" width="70" height="70" rx="35" fill="white" fill-opacity="0.2"/>
<path d="M35.7251 34.1874C37.772 34.1877 39.4409 32.5465 39.4751 30.4999V29.0999C39.4752 28.269 39.1417 27.4728 38.5495 26.89C37.9573 26.3072 37.1559 25.9865 36.3251 25.9999H35.1376C33.4304 26.0068 32.05 27.3927 32.0501 29.0999V30.4999C32.0833 32.5177 33.7074 34.1473 35.7251 34.1874Z" fill="#BD82FF"/>
<path d="M48.9751 40.6374L48.8251 38.7499C48.6629 37.802 47.8491 37.1037 46.8876 37.0874H41.4876C41.4047 37.0745 41.3204 37.0745 41.2376 37.0874C40.7585 36.5493 40.0705 36.2441 39.3501 36.2499H32.1125C31.3496 36.2466 30.6269 36.5918 30.1501 37.1874C29.9458 37.1127 29.73 37.0747 29.5126 37.0749H24.1125C23.147 37.0923 22.3318 37.7971 22.175 38.7499L22.025 40.6999C21.8994 41.2979 22.0438 41.9209 22.4196 42.4027C22.7954 42.8845 23.3645 43.1762 23.975 43.1999H29.6625C29.7747 43.2128 29.8879 43.2128 30.0001 43.1999C30.4958 43.7471 31.1992 44.0602 31.9376 44.0624H39.5251C40.241 44.059 40.9238 43.7606 41.4126 43.2374H47.0251C47.6578 43.2199 48.248 42.9146 48.6278 42.4082C49.0076 41.9018 49.1355 41.2498 48.9751 40.6374Z" fill="#BD82FF"/>
<path d="M44.2501 35.1374C45.7688 35.1374 47.0001 33.9062 47.0001 32.3874V31.3249C47.0003 30.7006 46.7481 30.1028 46.3008 29.6672C45.8535 29.2317 45.2491 28.9955 44.6251 29.0124H43.75C42.4729 29.0124 41.4376 30.0478 41.4376 31.3249V32.3874C41.4374 33.1277 41.7357 33.8368 42.265 34.3544C42.7943 34.872 43.5099 35.1542 44.2501 35.1374Z" fill="#BD82FF"/>
<path d="M26.8126 35.1374C28.3313 35.1374 29.5626 33.9062 29.5626 32.3874V31.3249C29.5626 30.0478 28.5272 29.0124 27.2501 29.0124H26.3751C25.0979 29.0124 24.0626 30.0478 24.0626 31.3249V32.3874C24.0626 33.9062 25.2938 35.1374 26.8126 35.1374Z" fill="#BD82FF"/>
<rect x="1" y="0.5" width="69" height="69" rx="34.5" stroke="white"/>
</g>
<defs>
<filter id="filter0_i_203_7231" x="0.5" y="0" width="74" height="74" filterUnits="userSpaceOnUse" color-interpolation-filters="sRGB">
<feFlood flood-opacity="0" result="BackgroundImageFix"/>
<feBlend mode="normal" in="SourceGraphic" in2="BackgroundImageFix" result="shape"/>
<feColorMatrix in="SourceAlpha" type="matrix" values="0 0 0 0 0 0 0 0 0 0 0 0 0 0 0 0 0 0 127 0" result="hardAlpha"/>
<feOffset dx="4" dy="4"/>
<feGaussianBlur stdDeviation="4"/>
<feComposite in2="hardAlpha" operator="arithmetic" k2="-1" k3="1"/>
<feColorMatrix type="matrix" values="0 0 0 0 1 0 0 0 0 1 0 0 0 0 1 0 0 0 0.5 0"/>
<feBlend mode="normal" in2="shape" result="effect1_innerShadow_203_7231"/>
</filter>
</defs>
</svg>
