<svg width="36" height="36" viewBox="0 0 36 36" fill="none" xmlns="http://www.w3.org/2000/svg">
<rect width="36" height="36" rx="10" fill="#212224"/>
<g clip-path="url(#clip0_55_3096)">
<path d="M17.2493 11.9999C17.102 11.4269 16.7683 10.9191 16.3007 10.5566C15.8332 10.194 15.2583 9.99725 14.6667 9.99725C14.075 9.99725 13.5002 10.194 13.0326 10.5566C12.565 10.9191 12.2313 11.4269 12.084 11.9999H10V13.3332H12.084C12.2313 13.9062 12.565 14.414 13.0326 14.7765C13.5002 15.1391 14.075 15.3358 14.6667 15.3358C15.2583 15.3358 15.8332 15.1391 16.3007 14.7765C16.7683 14.414 17.102 13.9062 17.2493 13.3332H26V11.9999H17.2493Z" fill="white"/>
<path d="M21.3333 15.3337C20.742 15.3336 20.1674 15.53 19.6999 15.892C19.2324 16.2541 18.8985 16.7612 18.7507 17.3337H10V18.6671H18.7507C18.898 19.2401 19.2317 19.7478 19.6993 20.1104C20.1668 20.4729 20.7417 20.6697 21.3333 20.6697C21.925 20.6697 22.4998 20.4729 22.9674 20.1104C23.435 19.7478 23.7687 19.2401 23.916 18.6671H26V17.3337H23.916C23.7682 16.7612 23.4342 16.2541 22.9667 15.892C22.4992 15.53 21.9246 15.3336 21.3333 15.3337Z" fill="white"/>
<path d="M14.6667 20.6663C14.0754 20.6661 13.5008 20.8625 13.0333 21.2245C12.5658 21.5866 12.2318 22.0937 12.084 22.6663H10V23.9996H12.084C12.2313 24.5726 12.565 25.0804 13.0326 25.4429C13.5002 25.8055 14.075 26.0022 14.6667 26.0022C15.2583 26.0022 15.8332 25.8055 16.3007 25.4429C16.7683 25.0804 17.102 24.5726 17.2493 23.9996H26V22.6663H17.2493C17.1015 22.0937 16.7676 21.5866 16.3001 21.2245C15.8326 20.8625 15.258 20.6661 14.6667 20.6663Z" fill="white"/>
</g>
<defs>
<clipPath id="clip0_55_3096">
<rect width="16" height="16" fill="white" transform="translate(10 10)"/>
</clipPath>
</defs>
</svg>
