<svg width="87" height="59" viewBox="0 0 87 59" fill="none" xmlns="http://www.w3.org/2000/svg">
<path d="M10.2763 22V17.752H16.0331C16.9902 17.752 17.7275 17.5566 18.2451 17.166C18.7724 16.7656 19.0361 16.1943 19.0361 15.4521V15.4229C19.0361 14.9443 18.914 14.5342 18.6699 14.1924C18.4355 13.8506 18.0839 13.5918 17.6152 13.416C17.1562 13.2402 16.5849 13.1523 15.9013 13.1523H10.2763V9.41699H15.6083C16.5361 9.41699 17.2392 9.22168 17.7177 8.83105C18.1962 8.43066 18.4355 7.88867 18.4355 7.20508V7.17578C18.4355 6.54102 18.206 6.03809 17.747 5.66699C17.288 5.2959 16.663 5.11035 15.872 5.11035H10.2763V0.862305H17.5566C19.0117 0.862305 20.2519 1.07715 21.2773 1.50684C22.3124 1.92676 23.1035 2.53711 23.6503 3.33789C24.1972 4.12891 24.4706 5.08105 24.4706 6.19434V6.22363C24.4706 7.04395 24.2802 7.78125 23.8994 8.43555C23.5185 9.08984 22.996 9.62695 22.332 10.0469C21.6777 10.457 20.9404 10.7158 20.1201 10.8232V10.9404C21.0673 10.96 21.9365 11.1895 22.7275 11.6289C23.5283 12.0684 24.1679 12.6592 24.6464 13.4014C25.1249 14.1338 25.3642 14.959 25.3642 15.877V15.9062C25.3642 17.127 25.0566 18.1963 24.4413 19.1143C23.8261 20.0225 22.9619 20.7305 21.8486 21.2383C20.7353 21.7461 19.4218 22 17.9081 22H10.2763ZM7.17084 22V0.862305H13.3818V22H7.17084ZM27.2106 22V0.862305H42.1227V5.78418H33.4215V9.15332H41.5807V13.7236H33.4215V17.0781H42.1227V22H27.2106ZM53.3441 22.3809C51.5179 22.3809 49.9359 22.127 48.598 21.6191C47.2699 21.1113 46.2298 20.374 45.4779 19.4072C44.7357 18.4307 44.3255 17.249 44.2474 15.8623L44.2328 15.584H49.9457L49.975 15.7158C50.0628 16.0967 50.2679 16.4287 50.5902 16.7119C50.9125 16.9951 51.3177 17.2197 51.806 17.3857C52.2943 17.542 52.8314 17.6201 53.4173 17.6201C54.0423 17.6201 54.5746 17.542 55.014 17.3857C55.4632 17.2295 55.8099 17.0146 56.0541 16.7412C56.2982 16.4678 56.4203 16.1553 56.4203 15.8037V15.7891C56.4203 15.291 56.181 14.915 55.7025 14.6611C55.224 14.4072 54.3988 14.1729 53.2269 13.958L51.1029 13.5771C49.0033 13.2061 47.3919 12.498 46.2689 11.4531C45.1556 10.4082 44.599 9.06543 44.599 7.4248V7.41016C44.599 5.99414 44.9701 4.76855 45.7123 3.7334C46.4642 2.69824 47.4945 1.89746 48.8031 1.33105C50.1117 0.764648 51.6009 0.481445 53.2709 0.481445C55.1556 0.481445 56.7425 0.745117 58.0316 1.27246C59.3207 1.7998 60.307 2.55176 60.9906 3.52832C61.6742 4.49512 62.0453 5.6377 62.1039 6.95605L62.1185 7.27832H56.4056L56.391 7.13184C56.3519 6.74121 56.1957 6.40918 55.9222 6.13574C55.6586 5.85254 55.3021 5.63281 54.8529 5.47656C54.4134 5.32031 53.9105 5.24219 53.3441 5.24219C52.7777 5.24219 52.2992 5.32031 51.9086 5.47656C51.5277 5.62305 51.2396 5.82812 51.0443 6.0918C50.849 6.3457 50.7513 6.63379 50.7513 6.95605V6.9707C50.7513 7.44922 50.9906 7.82031 51.4691 8.08398C51.9476 8.33789 52.7142 8.5625 53.7689 8.75781L55.8929 9.13867C57.4066 9.41211 58.6566 9.80762 59.6429 10.3252C60.6293 10.8428 61.3617 11.5068 61.8402 12.3174C62.3285 13.1182 62.5726 14.0898 62.5726 15.2324V15.2471C62.5726 16.7021 62.2064 17.9668 61.474 19.041C60.7513 20.1055 59.7015 20.9307 58.3246 21.5166C56.9476 22.0928 55.2875 22.3809 53.3441 22.3809ZM68.8575 22V5.78418H63.2911V0.862305H80.6348V5.78418H75.0684V22H68.8575ZM3.85994 52.2285V47.6436H8.70858C9.73397 47.6436 10.5347 47.3896 11.1109 46.8818C11.6969 46.3643 11.9898 45.6025 11.9898 44.5967V44.5674C11.9898 43.5518 11.6969 42.7949 11.1109 42.2969C10.5347 41.7891 9.73397 41.5352 8.70858 41.5352H3.85994V36.8623H10.1881C11.8385 36.8623 13.2642 37.1797 14.4654 37.8145C15.6763 38.4492 16.609 39.3428 17.2633 40.4951C17.9273 41.6475 18.2594 43.0049 18.2594 44.5674V44.5967C18.2594 46.1592 17.9273 47.5117 17.2633 48.6543C16.609 49.7969 15.6763 50.6807 14.4654 51.3057C13.2642 51.9209 11.8385 52.2285 10.1881 52.2285H3.85994ZM0.739826 58V36.8623H6.95076V58H0.739826ZM20.2522 58V36.8623H29.7737C31.5901 36.8623 33.1184 37.1406 34.3587 37.6973C35.6087 38.2539 36.5559 39.0693 37.2005 40.1436C37.845 41.2178 38.1673 42.5361 38.1673 44.0986V44.1279C38.1673 45.4463 37.8548 46.6523 37.2298 47.7461C36.6145 48.8398 35.7942 49.6357 34.7688 50.1338L38.7825 58H31.8392L28.4993 51.0566C28.4602 51.0566 28.4163 51.0566 28.3675 51.0566C28.3186 51.0566 28.2698 51.0566 28.221 51.0566H26.4632V58H20.2522ZM26.4632 46.6768H29.0559C29.8958 46.6768 30.5696 46.4375 31.0774 45.959C31.5852 45.4805 31.8392 44.8555 31.8392 44.084V44.0547C31.8392 43.2832 31.5804 42.6582 31.0628 42.1797C30.5452 41.6914 29.8763 41.4473 29.0559 41.4473H26.4632V46.6768ZM40.4971 58V36.8623H46.708V58H40.4971ZM59.3942 58.3809C57.236 58.3809 55.3708 57.9512 53.7985 57.0918C52.236 56.2324 51.03 54.9873 50.1804 53.3564C49.3405 51.7256 48.9206 49.748 48.9206 47.4238V47.4092C48.9206 45.085 49.3454 43.1123 50.195 41.4912C51.0446 39.8604 52.2507 38.6201 53.8132 37.7705C55.3855 36.9111 57.2458 36.4814 59.3942 36.4814C61.3571 36.4814 63.071 36.8672 64.5358 37.6387C66.0105 38.4102 67.1579 39.46 67.9782 40.7881C68.7985 42.1064 69.2087 43.5957 69.2087 45.2559V45.3877H63.2614L63.2468 45.2119C63.1882 44.5088 62.9978 43.8838 62.6755 43.3369C62.363 42.7803 61.9284 42.3457 61.3718 42.0332C60.8249 41.7109 60.1657 41.5498 59.3942 41.5498C58.5446 41.5498 57.8073 41.7793 57.1823 42.2383C56.5671 42.6973 56.0886 43.3613 55.7468 44.2305C55.4148 45.0996 55.2487 46.1543 55.2487 47.3945V47.4092C55.2487 48.6592 55.4148 49.7285 55.7468 50.6172C56.0886 51.4961 56.572 52.165 57.197 52.624C57.822 53.083 58.5593 53.3125 59.4089 53.3125C60.1218 53.3125 60.7565 53.1611 61.3132 52.8584C61.8698 52.5557 62.319 52.1309 62.6608 51.584C63.0026 51.0273 63.2077 50.3779 63.2761 49.6357L63.2907 49.4746H69.238V49.6357C69.238 51.2861 68.8181 52.7705 67.9782 54.0889C67.1482 55.4072 65.9958 56.4521 64.5212 57.2236C63.0466 57.9951 61.3376 58.3809 59.3942 58.3809ZM71.3774 58V36.8623H86.2895V41.7842H77.5883V45.1533H85.7475V49.7236H77.5883V53.0781H86.2895V58H71.3774Z" fill="#BD82FF"/>
</svg>
