<svg width="343" height="69" viewBox="0 0 343 69" fill="none" xmlns="http://www.w3.org/2000/svg">
<path d="M78.511 17V4.31738H80.7258L87.2737 13.3789L85.4016 12.4033H86.7112V4.31738H89.26V17H87.0452L80.4885 7.90332L82.3606 8.87891H81.051V17H78.511ZM96.122 17.2021C95.1377 17.2021 94.2881 17.0029 93.5732 16.6045C92.8584 16.2002 92.3105 15.623 91.9297 14.873C91.5488 14.1172 91.3584 13.2178 91.3584 12.1748V12.1572C91.3584 11.1143 91.5517 10.2178 91.9385 9.46777C92.3252 8.71777 92.873 8.14062 93.582 7.73633C94.2969 7.33203 95.1435 7.12988 96.122 7.12988C97.1064 7.12988 97.9531 7.33203 98.6621 7.73633C99.3769 8.14062 99.9277 8.71777 100.314 9.46777C100.701 10.2178 100.895 11.1143 100.895 12.1572V12.1748C100.895 13.2178 100.704 14.1172 100.323 14.873C99.9424 15.623 99.3945 16.2002 98.6797 16.6045C97.9707 17.0029 97.1181 17.2021 96.122 17.2021ZM96.122 15.1895C96.5791 15.1895 96.9658 15.0723 97.2822 14.8379C97.5986 14.5977 97.8418 14.252 98.0117 13.8008C98.1816 13.3496 98.2666 12.8076 98.2666 12.1748V12.1572C98.2666 11.5244 98.1816 10.9854 98.0117 10.54C97.8418 10.0889 97.5986 9.74316 97.2822 9.50293C96.9658 9.2627 96.5791 9.14258 96.122 9.14258C95.6767 9.14258 95.2929 9.2627 94.9707 9.50293C94.6543 9.74316 94.4111 10.0889 94.2412 10.54C94.0713 10.9854 93.9863 11.5244 93.9863 12.1572V12.1748C93.9863 12.8076 94.0683 13.3496 94.2324 13.8008C94.4023 14.252 94.6455 14.5977 94.9619 14.8379C95.2842 15.0723 95.6709 15.1895 96.122 15.1895ZM109.785 17.1494C109.169 17.1494 108.621 17.0322 108.141 16.7979C107.666 16.5576 107.294 16.2207 107.025 15.7871C106.755 15.3477 106.621 14.835 106.621 14.249V14.2314C106.621 13.6514 106.764 13.1533 107.051 12.7373C107.344 12.3213 107.769 11.9961 108.326 11.7617C108.888 11.5215 109.571 11.3779 110.373 11.3311L113.977 11.1201V12.6846L110.76 12.8955C110.209 12.9248 109.799 13.042 109.53 13.2471C109.26 13.4521 109.125 13.7305 109.125 14.082V14.0996C109.125 14.4629 109.266 14.75 109.547 14.9609C109.829 15.1719 110.192 15.2773 110.637 15.2773C111.036 15.2773 111.39 15.1982 111.701 15.04C112.011 14.8818 112.257 14.668 112.439 14.3984C112.621 14.1289 112.711 13.8242 112.711 13.4844V10.4082C112.711 9.98633 112.571 9.66113 112.289 9.43262C112.014 9.2041 111.613 9.08984 111.085 9.08984C110.622 9.08984 110.245 9.17188 109.952 9.33594C109.664 9.49414 109.471 9.7168 109.371 10.0039L109.363 10.0391H106.99L106.998 9.95117C107.063 9.38281 107.274 8.8877 107.631 8.46582C107.995 8.04395 108.481 7.71582 109.09 7.48145C109.705 7.24707 110.417 7.12988 111.226 7.12988C112.081 7.12988 112.808 7.25879 113.406 7.5166C114.003 7.77441 114.457 8.14941 114.768 8.6416C115.084 9.12793 115.243 9.71387 115.243 10.3994V17H112.711V15.7168H112.553C112.389 16.0156 112.169 16.2734 111.894 16.4902C111.624 16.7012 111.308 16.8652 110.945 16.9824C110.587 17.0938 110.201 17.1494 109.785 17.1494ZM121.779 17.2021C120.772 17.2021 119.913 17.0059 119.204 16.6133C118.501 16.2148 117.965 15.6406 117.596 14.8906C117.227 14.1348 117.042 13.2236 117.042 12.1572V12.1396C117.042 11.0791 117.227 10.1768 117.596 9.43262C117.965 8.68262 118.501 8.11133 119.204 7.71875C119.913 7.32617 120.769 7.12988 121.771 7.12988C122.626 7.12988 123.361 7.27637 123.977 7.56934C124.598 7.8623 125.087 8.27539 125.444 8.80859C125.802 9.3418 126.019 9.96875 126.095 10.6895L126.086 10.7158H123.704L123.695 10.6982C123.613 10.2295 123.411 9.85449 123.089 9.57324C122.767 9.28613 122.333 9.14258 121.788 9.14258C121.331 9.14258 120.942 9.25977 120.619 9.49414C120.303 9.72266 120.063 10.0596 119.899 10.5049C119.734 10.9502 119.652 11.4951 119.652 12.1396V12.1572C119.652 12.8076 119.734 13.3613 119.899 13.8184C120.068 14.2695 120.312 14.6123 120.628 14.8467C120.944 15.0752 121.331 15.1895 121.788 15.1895C122.316 15.1895 122.734 15.0664 123.045 14.8203C123.361 14.5684 123.575 14.1992 123.687 13.7129L123.704 13.6865L126.086 13.6777L126.077 13.7305C125.989 14.4336 125.767 15.0459 125.409 15.5674C125.052 16.083 124.568 16.4844 123.959 16.7715C123.35 17.0586 122.623 17.2021 121.779 17.2021ZM132.122 17.2021C131.114 17.2021 130.256 17.0059 129.547 16.6133C128.844 16.2148 128.307 15.6406 127.938 14.8906C127.569 14.1348 127.385 13.2236 127.385 12.1572V12.1396C127.385 11.0791 127.569 10.1768 127.938 9.43262C128.307 8.68262 128.844 8.11133 129.547 7.71875C130.256 7.32617 131.111 7.12988 132.113 7.12988C132.969 7.12988 133.704 7.27637 134.319 7.56934C134.94 7.8623 135.43 8.27539 135.787 8.80859C136.144 9.3418 136.361 9.96875 136.437 10.6895L136.429 10.7158H134.047L134.038 10.6982C133.956 10.2295 133.754 9.85449 133.431 9.57324C133.109 9.28613 132.676 9.14258 132.131 9.14258C131.674 9.14258 131.284 9.25977 130.962 9.49414C130.645 9.72266 130.405 10.0596 130.241 10.5049C130.077 10.9502 129.995 11.4951 129.995 12.1396V12.1572C129.995 12.8076 130.077 13.3613 130.241 13.8184C130.411 14.2695 130.654 14.6123 130.971 14.8467C131.287 15.0752 131.674 15.1895 132.131 15.1895C132.658 15.1895 133.077 15.0664 133.388 14.8203C133.704 14.5684 133.918 14.1992 134.029 13.7129L134.047 13.6865L136.429 13.6777L136.42 13.7305C136.332 14.4336 136.109 15.0459 135.752 15.5674C135.394 16.083 134.911 16.4844 134.302 16.7715C133.692 17.0586 132.966 17.2021 132.122 17.2021ZM142.456 17.2021C141.477 17.2021 140.633 17 139.924 16.5957C139.221 16.1914 138.679 15.6143 138.298 14.8643C137.917 14.1084 137.727 13.2148 137.727 12.1836V12.1748C137.727 11.1494 137.915 10.2588 138.29 9.50293C138.67 8.74707 139.207 8.16406 139.898 7.75391C140.595 7.33789 141.413 7.12988 142.35 7.12988C143.288 7.12988 144.099 7.33203 144.785 7.73633C145.47 8.13477 145.998 8.69727 146.367 9.42383C146.736 10.1504 146.92 11.0029 146.92 11.9814V12.7812H139.01V11.1729H145.69L144.486 12.6934V11.665C144.486 11.085 144.398 10.6016 144.222 10.2148C144.046 9.82812 143.8 9.53809 143.484 9.34473C143.173 9.14551 142.81 9.0459 142.394 9.0459C141.978 9.0459 141.612 9.14844 141.295 9.35352C140.979 9.55273 140.727 9.84863 140.54 10.2412C140.358 10.6279 140.267 11.1025 140.267 11.665V12.7021C140.267 13.2412 140.358 13.7041 140.54 14.0908C140.721 14.4775 140.979 14.7734 141.313 14.9785C141.647 15.1836 142.045 15.2861 142.508 15.2861C142.883 15.2861 143.203 15.2305 143.466 15.1191C143.73 15.0078 143.941 14.8789 144.099 14.7324C144.263 14.5801 144.375 14.4424 144.433 14.3193L144.459 14.2666L146.841 14.2578L146.824 14.3545C146.748 14.6592 146.61 14.9785 146.411 15.3125C146.211 15.6406 145.936 15.9482 145.584 16.2354C145.239 16.5225 144.805 16.7568 144.284 16.9385C143.768 17.1143 143.159 17.2021 142.456 17.2021ZM152.614 17.2021C151.74 17.2021 150.993 17.082 150.372 16.8418C149.757 16.5957 149.274 16.2588 148.922 15.8311C148.576 15.4033 148.374 14.9141 148.316 14.3633L148.307 14.3193H150.829L150.838 14.3545C150.944 14.6592 151.143 14.9082 151.436 15.1016C151.735 15.2949 152.136 15.3916 152.64 15.3916C152.974 15.3916 153.261 15.3477 153.501 15.2598C153.747 15.1719 153.941 15.0488 154.081 14.8906C154.222 14.7324 154.292 14.5449 154.292 14.3281V14.3193C154.292 14.0557 154.187 13.8418 153.976 13.6777C153.765 13.5078 153.413 13.3672 152.921 13.2559L151.313 12.9131C150.697 12.7842 150.185 12.5967 149.775 12.3506C149.364 12.0986 149.057 11.791 148.852 11.4277C148.653 11.0645 148.553 10.6426 148.553 10.1621V10.1533C148.553 9.54395 148.72 9.01367 149.054 8.5625C149.388 8.11133 149.857 7.75977 150.46 7.50781C151.07 7.25586 151.776 7.12988 152.578 7.12988C153.422 7.12988 154.14 7.25879 154.732 7.5166C155.323 7.76855 155.778 8.1084 156.094 8.53613C156.416 8.95801 156.595 9.43262 156.63 9.95996V9.98633H154.248L154.239 9.95117C154.169 9.68164 153.993 9.44727 153.712 9.24805C153.437 9.04297 153.059 8.94043 152.578 8.94043C152.28 8.94043 152.016 8.98438 151.787 9.07227C151.559 9.1543 151.38 9.27441 151.251 9.43262C151.122 9.59082 151.058 9.77832 151.058 9.99512V10.0127C151.058 10.1768 151.102 10.3232 151.19 10.4521C151.278 10.5811 151.421 10.6924 151.62 10.7861C151.82 10.8799 152.083 10.9648 152.411 11.041L154.02 11.3838C154.992 11.5947 155.707 11.9111 156.164 12.333C156.627 12.7549 156.859 13.3203 156.859 14.0293V14.0469C156.859 14.6797 156.677 15.2363 156.314 15.7168C155.95 16.1914 155.449 16.5576 154.811 16.8154C154.178 17.0732 153.446 17.2021 152.614 17.2021ZM162.393 17.2021C161.52 17.2021 160.773 17.082 160.152 16.8418C159.537 16.5957 159.054 16.2588 158.702 15.8311C158.356 15.4033 158.154 14.9141 158.096 14.3633L158.087 14.3193H160.609L160.618 14.3545C160.724 14.6592 160.923 14.9082 161.216 15.1016C161.515 15.2949 161.916 15.3916 162.42 15.3916C162.754 15.3916 163.041 15.3477 163.281 15.2598C163.527 15.1719 163.721 15.0488 163.861 14.8906C164.002 14.7324 164.072 14.5449 164.072 14.3281V14.3193C164.072 14.0557 163.967 13.8418 163.756 13.6777C163.545 13.5078 163.193 13.3672 162.701 13.2559L161.093 12.9131C160.477 12.7842 159.965 12.5967 159.555 12.3506C159.144 12.0986 158.837 11.791 158.632 11.4277C158.433 11.0645 158.333 10.6426 158.333 10.1621V10.1533C158.333 9.54395 158.5 9.01367 158.834 8.5625C159.168 8.11133 159.637 7.75977 160.24 7.50781C160.85 7.25586 161.556 7.12988 162.358 7.12988C163.202 7.12988 163.92 7.25879 164.512 7.5166C165.103 7.76855 165.558 8.1084 165.874 8.53613C166.196 8.95801 166.375 9.43262 166.41 9.95996V9.98633H164.028L164.019 9.95117C163.949 9.68164 163.773 9.44727 163.492 9.24805C163.217 9.04297 162.839 8.94043 162.358 8.94043C162.06 8.94043 161.796 8.98438 161.567 9.07227C161.339 9.1543 161.16 9.27441 161.031 9.43262C160.902 9.59082 160.838 9.77832 160.838 9.99512V10.0127C160.838 10.1768 160.882 10.3232 160.97 10.4521C161.058 10.5811 161.201 10.6924 161.4 10.7861C161.6 10.8799 161.863 10.9648 162.191 11.041L163.8 11.3838C164.772 11.5947 165.487 11.9111 165.944 12.333C166.407 12.7549 166.639 13.3203 166.639 14.0293V14.0469C166.639 14.6797 166.457 15.2363 166.094 15.7168C165.73 16.1914 165.229 16.5576 164.591 16.8154C163.958 17.0732 163.226 17.2021 162.393 17.2021ZM176.891 17.0439C175.725 17.0439 174.884 16.8389 174.369 16.4287C173.853 16.0127 173.595 15.333 173.595 14.3896V9.26562H172.11V7.33203H173.595V5.02051H176.188V7.33203H178.174V9.26562H176.188V13.8096C176.188 14.249 176.285 14.5684 176.478 14.7676C176.677 14.9668 176.994 15.0664 177.427 15.0664C177.591 15.0664 177.726 15.0635 177.831 15.0576C177.937 15.0518 178.051 15.043 178.174 15.0312V16.9297C178.016 16.959 177.826 16.9854 177.603 17.0088C177.38 17.0322 177.143 17.0439 176.891 17.0439ZM184.289 17.2021C183.305 17.2021 182.455 17.0029 181.74 16.6045C181.025 16.2002 180.478 15.623 180.097 14.873C179.716 14.1172 179.525 13.2178 179.525 12.1748V12.1572C179.525 11.1143 179.719 10.2178 180.106 9.46777C180.492 8.71777 181.04 8.14062 181.749 7.73633C182.464 7.33203 183.311 7.12988 184.289 7.12988C185.273 7.12988 186.12 7.33203 186.829 7.73633C187.544 8.14062 188.095 8.71777 188.482 9.46777C188.868 10.2178 189.062 11.1143 189.062 12.1572V12.1748C189.062 13.2178 188.871 14.1172 188.49 14.873C188.109 15.623 187.562 16.2002 186.847 16.6045C186.138 17.0029 185.285 17.2021 184.289 17.2021ZM184.289 15.1895C184.746 15.1895 185.133 15.0723 185.449 14.8379C185.766 14.5977 186.009 14.252 186.179 13.8008C186.349 13.3496 186.434 12.8076 186.434 12.1748V12.1572C186.434 11.5244 186.349 10.9854 186.179 10.54C186.009 10.0889 185.766 9.74316 185.449 9.50293C185.133 9.2627 184.746 9.14258 184.289 9.14258C183.844 9.14258 183.46 9.2627 183.138 9.50293C182.821 9.74316 182.578 10.0889 182.408 10.54C182.238 10.9854 182.153 11.5244 182.153 12.1572V12.1748C182.153 12.8076 182.235 13.3496 182.399 13.8008C182.569 14.252 182.813 14.5977 183.129 14.8379C183.451 15.0723 183.838 15.1895 184.289 15.1895ZM199.569 17.2021C198.561 17.2021 197.703 17.0059 196.994 16.6133C196.291 16.2148 195.754 15.6406 195.385 14.8906C195.016 14.1348 194.832 13.2236 194.832 12.1572V12.1396C194.832 11.0791 195.016 10.1768 195.385 9.43262C195.754 8.68262 196.291 8.11133 196.994 7.71875C197.703 7.32617 198.558 7.12988 199.56 7.12988C200.416 7.12988 201.151 7.27637 201.766 7.56934C202.387 7.8623 202.876 8.27539 203.234 8.80859C203.591 9.3418 203.808 9.96875 203.884 10.6895L203.875 10.7158H201.494L201.485 10.6982C201.403 10.2295 201.201 9.85449 200.878 9.57324C200.556 9.28613 200.123 9.14258 199.578 9.14258C199.121 9.14258 198.731 9.25977 198.409 9.49414C198.092 9.72266 197.852 10.0596 197.688 10.5049C197.524 10.9502 197.442 11.4951 197.442 12.1396V12.1572C197.442 12.8076 197.524 13.3613 197.688 13.8184C197.858 14.2695 198.101 14.6123 198.417 14.8467C198.734 15.0752 199.121 15.1895 199.578 15.1895C200.105 15.1895 200.524 15.0664 200.834 14.8203C201.151 14.5684 201.365 14.1992 201.476 13.7129L201.494 13.6865L203.875 13.6777L203.867 13.7305C203.779 14.4336 203.556 15.0459 203.199 15.5674C202.841 16.083 202.358 16.4844 201.749 16.7715C201.139 17.0586 200.413 17.2021 199.569 17.2021ZM208.294 17.1494C207.679 17.1494 207.131 17.0322 206.651 16.7979C206.176 16.5576 205.804 16.2207 205.534 15.7871C205.265 15.3477 205.13 14.835 205.13 14.249V14.2314C205.13 13.6514 205.274 13.1533 205.561 12.7373C205.854 12.3213 206.279 11.9961 206.835 11.7617C207.398 11.5215 208.08 11.3779 208.883 11.3311L212.487 11.1201V12.6846L209.27 12.8955C208.719 12.9248 208.309 13.042 208.039 13.2471C207.77 13.4521 207.635 13.7305 207.635 14.082V14.0996C207.635 14.4629 207.776 14.75 208.057 14.9609C208.338 15.1719 208.701 15.2773 209.147 15.2773C209.545 15.2773 209.9 15.1982 210.21 15.04C210.521 14.8818 210.767 14.668 210.948 14.3984C211.13 14.1289 211.221 13.8242 211.221 13.4844V10.4082C211.221 9.98633 211.08 9.66113 210.799 9.43262C210.524 9.2041 210.122 9.08984 209.595 9.08984C209.132 9.08984 208.754 9.17188 208.461 9.33594C208.174 9.49414 207.981 9.7168 207.881 10.0039L207.872 10.0391H205.499L205.508 9.95117C205.572 9.38281 205.783 8.8877 206.141 8.46582C206.504 8.04395 206.99 7.71582 207.6 7.48145C208.215 7.24707 208.927 7.12988 209.736 7.12988C210.591 7.12988 211.318 7.25879 211.915 7.5166C212.513 7.77441 212.967 8.14941 213.278 8.6416C213.594 9.12793 213.752 9.71387 213.752 10.3994V17H211.221V15.7168H211.063C210.899 16.0156 210.679 16.2734 210.404 16.4902C210.134 16.7012 209.818 16.8652 209.454 16.9824C209.097 17.0938 208.71 17.1494 208.294 17.1494ZM216.026 17V7.33203H218.593V8.85254H218.742C218.947 8.30762 219.284 7.88574 219.753 7.58691C220.227 7.28223 220.784 7.12988 221.423 7.12988C221.862 7.12988 222.258 7.20312 222.609 7.34961C222.967 7.49023 223.271 7.69238 223.523 7.95605C223.781 8.21973 223.975 8.54199 224.103 8.92285H224.253C224.405 8.55957 224.622 8.24609 224.903 7.98242C225.19 7.71289 225.527 7.50488 225.914 7.3584C226.307 7.20605 226.725 7.12988 227.171 7.12988C227.815 7.12988 228.372 7.26172 228.841 7.52539C229.309 7.78906 229.67 8.16406 229.922 8.65039C230.18 9.13086 230.308 9.70508 230.308 10.373V17H227.742V11.0146C227.742 10.6221 227.683 10.2969 227.566 10.0391C227.449 9.77539 227.27 9.5791 227.03 9.4502C226.796 9.32129 226.5 9.25684 226.142 9.25684C225.797 9.25684 225.495 9.33594 225.237 9.49414C224.985 9.64648 224.789 9.86035 224.648 10.1357C224.508 10.4053 224.437 10.7158 224.437 11.0674V17H221.88V10.8916C221.88 10.5459 221.815 10.2529 221.686 10.0127C221.563 9.7666 221.382 9.5791 221.141 9.4502C220.907 9.32129 220.623 9.25684 220.289 9.25684C219.955 9.25684 219.659 9.33887 219.401 9.50293C219.149 9.66699 218.95 9.89551 218.804 10.1885C218.663 10.4756 218.593 10.8037 218.593 11.1729V17H216.026ZM236.81 17.2021C235.832 17.2021 234.988 17 234.279 16.5957C233.576 16.1914 233.034 15.6143 232.653 14.8643C232.272 14.1084 232.082 13.2148 232.082 12.1836V12.1748C232.082 11.1494 232.269 10.2588 232.644 9.50293C233.025 8.74707 233.561 8.16406 234.253 7.75391C234.95 7.33789 235.767 7.12988 236.705 7.12988C237.642 7.12988 238.454 7.33203 239.139 7.73633C239.825 8.13477 240.352 8.69727 240.721 9.42383C241.09 10.1504 241.275 11.0029 241.275 11.9814V12.7812H233.365V11.1729H240.045L238.84 12.6934V11.665C238.84 11.085 238.753 10.6016 238.577 10.2148C238.401 9.82812 238.155 9.53809 237.838 9.34473C237.528 9.14551 237.165 9.0459 236.749 9.0459C236.333 9.0459 235.966 9.14844 235.65 9.35352C235.334 9.55273 235.082 9.84863 234.894 10.2412C234.713 10.6279 234.622 11.1025 234.622 11.665V12.7021C234.622 13.2412 234.713 13.7041 234.894 14.0908C235.076 14.4775 235.334 14.7734 235.668 14.9785C236.002 15.1836 236.4 15.2861 236.863 15.2861C237.238 15.2861 237.557 15.2305 237.821 15.1191C238.085 15.0078 238.296 14.8789 238.454 14.7324C238.618 14.5801 238.729 14.4424 238.788 14.3193L238.814 14.2666L241.196 14.2578L241.178 14.3545C241.102 14.6592 240.964 14.9785 240.765 15.3125C240.566 15.6406 240.291 15.9482 239.939 16.2354C239.593 16.5225 239.16 16.7568 238.638 16.9385C238.123 17.1143 237.513 17.2021 236.81 17.2021ZM243.127 17V7.33203H245.694V8.85254H245.843C246.001 8.31934 246.288 7.90918 246.704 7.62207C247.126 7.3291 247.648 7.18262 248.269 7.18262C248.445 7.18262 248.615 7.19434 248.779 7.21777C248.949 7.23535 249.095 7.26172 249.218 7.29688V9.53809C249.031 9.49121 248.84 9.45605 248.647 9.43262C248.453 9.40918 248.254 9.39746 248.049 9.39746C247.569 9.39746 247.15 9.48535 246.792 9.66113C246.441 9.83691 246.168 10.0889 245.975 10.417C245.787 10.7451 245.694 11.1377 245.694 11.5947V17H243.127ZM253.162 17.1494C252.547 17.1494 251.999 17.0322 251.519 16.7979C251.044 16.5576 250.672 16.2207 250.402 15.7871C250.133 15.3477 249.998 14.835 249.998 14.249V14.2314C249.998 13.6514 250.142 13.1533 250.429 12.7373C250.722 12.3213 251.147 11.9961 251.703 11.7617C252.266 11.5215 252.948 11.3779 253.751 11.3311L257.355 11.1201V12.6846L254.138 12.8955C253.587 12.9248 253.177 13.042 252.907 13.2471C252.638 13.4521 252.503 13.7305 252.503 14.082V14.0996C252.503 14.4629 252.644 14.75 252.925 14.9609C253.206 15.1719 253.569 15.2773 254.015 15.2773C254.413 15.2773 254.768 15.1982 255.078 15.04C255.389 14.8818 255.635 14.668 255.816 14.3984C255.998 14.1289 256.089 13.8242 256.089 13.4844V10.4082C256.089 9.98633 255.948 9.66113 255.667 9.43262C255.392 9.2041 254.99 9.08984 254.463 9.08984C254 9.08984 253.622 9.17188 253.329 9.33594C253.042 9.49414 252.849 9.7168 252.749 10.0039L252.74 10.0391H250.367L250.376 9.95117C250.44 9.38281 250.651 8.8877 251.009 8.46582C251.372 8.04395 251.858 7.71582 252.468 7.48145C253.083 7.24707 253.795 7.12988 254.604 7.12988C255.459 7.12988 256.186 7.25879 256.783 7.5166C257.381 7.77441 257.835 8.14941 258.146 8.6416C258.462 9.12793 258.62 9.71387 258.62 10.3994V17H256.089V15.7168H255.931C255.767 16.0156 255.547 16.2734 255.272 16.4902C255.002 16.7012 254.686 16.8652 254.322 16.9824C253.965 17.0938 253.578 17.1494 253.162 17.1494ZM261.65 12.8164L261.413 4.31738H264.217L263.988 12.8164H261.65ZM262.819 17.2461C262.327 17.2461 261.937 17.1172 261.65 16.8594C261.369 16.5957 261.228 16.2383 261.228 15.7871C261.228 15.3301 261.369 14.9697 261.65 14.7061C261.937 14.4424 262.327 14.3105 262.819 14.3105C263.311 14.3105 263.698 14.4424 263.979 14.7061C264.266 14.9697 264.41 15.3301 264.41 15.7871C264.41 16.2383 264.266 16.5957 263.979 16.8594C263.698 17.1172 263.311 17.2461 262.819 17.2461Z" fill="#4C4752"/>
<path d="M8.70563 46V35.9922H5.07281V34.7266H13.7447V35.9922H10.1119V46H8.70563ZM17.4781 46.1484C16.6813 46.1484 15.9911 45.974 15.4078 45.625C14.8297 45.2708 14.3818 44.7682 14.0641 44.1172C13.7516 43.4661 13.5953 42.6927 13.5953 41.7969V41.7812C13.5953 40.8802 13.7516 40.1042 14.0641 39.4531C14.3818 38.8021 14.8297 38.3021 15.4078 37.9531C15.9911 37.6042 16.6813 37.4297 17.4781 37.4297C18.2802 37.4297 18.9703 37.6042 19.5484 37.9531C20.1266 38.3021 20.5719 38.8021 20.8844 39.4531C21.2021 40.1042 21.3609 40.8802 21.3609 41.7812V41.7969C21.3609 42.6927 21.2021 43.4661 20.8844 44.1172C20.5719 44.7682 20.1266 45.2708 19.5484 45.625C18.9703 45.974 18.2802 46.1484 17.4781 46.1484ZM17.4781 44.9453C18.0094 44.9453 18.4599 44.8203 18.8297 44.5703C19.1995 44.3203 19.4807 43.9609 19.6734 43.4922C19.8714 43.0234 19.9703 42.4583 19.9703 41.7969V41.7812C19.9703 41.1146 19.8714 40.5469 19.6734 40.0781C19.4807 39.6094 19.1995 39.2526 18.8297 39.0078C18.4599 38.7578 18.0094 38.6328 17.4781 38.6328C16.9469 38.6328 16.4964 38.7578 16.1266 39.0078C15.7568 39.2526 15.4729 39.6094 15.275 40.0781C15.0823 40.5469 14.9859 41.1146 14.9859 41.7812V41.7969C14.9859 42.4583 15.0823 43.0234 15.275 43.4922C15.4729 43.9609 15.7568 44.3203 16.1266 44.5703C16.4964 44.8203 16.9469 44.9453 17.4781 44.9453ZM30.5309 46.1484C29.9059 46.1484 29.3539 46.0547 28.8747 45.8672C28.3955 45.6745 28.0101 45.4062 27.7184 45.0625C27.432 44.7188 27.2627 44.3151 27.2106 43.8516H28.6013C28.7158 44.2005 28.9398 44.4818 29.2731 44.6953C29.6065 44.9089 30.0414 45.0156 30.5778 45.0156C30.958 45.0156 31.2914 44.9609 31.5778 44.8516C31.8695 44.737 32.0986 44.5833 32.2653 44.3906C32.432 44.1927 32.5153 43.9661 32.5153 43.7109V43.6953C32.5153 43.4089 32.4007 43.1667 32.1716 42.9688C31.9424 42.7656 31.5674 42.6016 31.0466 42.4766L29.7419 42.1641C29.2158 42.0391 28.7835 41.8776 28.445 41.6797C28.1065 41.4766 27.8565 41.2292 27.695 40.9375C27.5335 40.6406 27.4528 40.2917 27.4528 39.8906V39.8828C27.4528 39.4141 27.5882 38.9948 27.8591 38.625C28.1351 38.2552 28.5101 37.9635 28.9841 37.75C29.458 37.5365 29.9919 37.4297 30.5856 37.4297C31.1742 37.4297 31.695 37.5234 32.1481 37.7109C32.6065 37.8932 32.9736 38.1536 33.2497 38.4922C33.5309 38.8307 33.7028 39.2292 33.7653 39.6875H32.4294C32.3408 39.3542 32.1377 39.0833 31.82 38.875C31.5023 38.6667 31.0882 38.5625 30.5778 38.5625C30.2445 38.5625 29.9476 38.6172 29.6872 38.7266C29.4268 38.8307 29.221 38.9766 29.07 39.1641C28.919 39.3516 28.8434 39.5703 28.8434 39.8203V39.8359C28.8434 40.0234 28.8929 40.1901 28.9919 40.3359C29.0908 40.4818 29.2445 40.6094 29.4528 40.7188C29.6611 40.8281 29.9294 40.9245 30.2575 41.0078L31.5544 41.3203C32.346 41.513 32.9346 41.7891 33.32 42.1484C33.7106 42.5078 33.9059 42.9896 33.9059 43.5938V43.6094C33.9059 44.1094 33.7575 44.5521 33.4606 44.9375C33.1638 45.3177 32.7601 45.6146 32.2497 45.8281C31.7445 46.0417 31.1716 46.1484 30.5309 46.1484ZM38.7644 46.0625C37.8998 46.0625 37.2722 45.888 36.8816 45.5391C36.4961 45.1901 36.3034 44.6146 36.3034 43.8125V38.7031H34.9753V37.5781H36.3034V35.3984H37.7097V37.5781H39.5534V38.7031H37.7097V43.4688C37.7097 43.9635 37.8034 44.3203 37.9909 44.5391C38.1784 44.7526 38.4909 44.8594 38.9284 44.8594C39.0482 44.8594 39.1498 44.8568 39.2331 44.8516C39.3217 44.8464 39.4284 44.8385 39.5534 44.8281V45.9844C39.4232 46.0052 39.293 46.0234 39.1628 46.0391C39.0326 46.0547 38.8998 46.0625 38.7644 46.0625ZM43.7322 46.1484C43.2009 46.1484 42.7218 46.0469 42.2947 45.8438C41.8728 45.6406 41.5369 45.3516 41.2869 44.9766C41.0421 44.6016 40.9197 44.1589 40.9197 43.6484V43.6328C40.9197 43.1328 41.0395 42.7057 41.2791 42.3516C41.5186 41.9922 41.8676 41.7109 42.3259 41.5078C42.7843 41.3047 43.339 41.1849 43.99 41.1484L47.0838 40.9609V42.0469L44.1541 42.2344C43.5134 42.2708 43.0447 42.4036 42.7478 42.6328C42.4561 42.862 42.3103 43.1849 42.3103 43.6016V43.6172C42.3103 44.0443 42.4718 44.3776 42.7947 44.6172C43.1176 44.8516 43.5239 44.9688 44.0134 44.9688C44.477 44.9688 44.8884 44.8776 45.2478 44.6953C45.6072 44.5078 45.8884 44.2552 46.0916 43.9375C46.2999 43.6198 46.4041 43.2604 46.4041 42.8594V40.2344C46.4041 39.7135 46.2452 39.3177 45.9275 39.0469C45.615 38.7708 45.1436 38.6328 44.5134 38.6328C44.0082 38.6328 43.5942 38.724 43.2713 38.9062C42.9483 39.0833 42.7322 39.3359 42.6228 39.6641L42.615 39.6875H41.2556L41.2634 39.6406C41.3364 39.1979 41.5186 38.8125 41.8103 38.4844C42.1072 38.151 42.49 37.8932 42.9588 37.7109C43.4275 37.5234 43.9614 37.4297 44.5603 37.4297C45.2478 37.4297 45.8285 37.5417 46.3025 37.7656C46.7817 37.9896 47.1436 38.3125 47.3884 38.7344C47.6384 39.151 47.7634 39.651 47.7634 40.2344V46H46.4041V44.7578H46.2791C46.102 45.0547 45.8858 45.3073 45.6306 45.5156C45.3806 45.724 45.0968 45.8828 44.7791 45.9922C44.4614 46.0964 44.1124 46.1484 43.7322 46.1484ZM50.0828 46V37.5781H51.4422V38.8281H51.5672C51.7286 38.3854 52.0021 38.0417 52.3875 37.7969C52.7729 37.5521 53.2495 37.4297 53.8172 37.4297C53.9474 37.4297 54.075 37.4375 54.2 37.4531C54.3302 37.4635 54.4292 37.474 54.4969 37.4844V38.8047C54.3563 38.7786 54.2182 38.7604 54.0828 38.75C53.9526 38.7344 53.812 38.7266 53.6609 38.7266C53.2286 38.7266 52.8458 38.8125 52.5125 38.9844C52.1792 39.1562 51.9161 39.3958 51.7234 39.7031C51.5359 40.0104 51.4422 40.3698 51.4422 40.7812V46H50.0828ZM59.16 46.0625C58.2954 46.0625 57.6678 45.888 57.2772 45.5391C56.8918 45.1901 56.6991 44.6146 56.6991 43.8125V38.7031H55.3709V37.5781H56.6991V35.3984H58.1053V37.5781H59.9491V38.7031H58.1053V43.4688C58.1053 43.9635 58.1991 44.3203 58.3866 44.5391C58.5741 44.7526 58.8866 44.8594 59.3241 44.8594C59.4439 44.8594 59.5454 44.8568 59.6288 44.8516C59.7173 44.8464 59.8241 44.8385 59.9491 44.8281V45.9844C59.8189 46.0052 59.6886 46.0234 59.5584 46.0391C59.4282 46.0547 59.2954 46.0625 59.16 46.0625ZM66.1816 46V37.5781H67.5409V46H66.1816ZM66.8691 35.9531C66.6139 35.9531 66.3925 35.862 66.205 35.6797C66.0227 35.4922 65.9316 35.2708 65.9316 35.0156C65.9316 34.7552 66.0227 34.5339 66.205 34.3516C66.3925 34.1693 66.6139 34.0781 66.8691 34.0781C67.1295 34.0781 67.3508 34.1693 67.5331 34.3516C67.7154 34.5339 67.8066 34.7552 67.8066 35.0156C67.8066 35.2708 67.7154 35.4922 67.5331 35.6797C67.3508 35.862 67.1295 35.9531 66.8691 35.9531ZM73.0478 46.1484C72.3395 46.1484 71.7197 45.9688 71.1884 45.6094C70.6572 45.25 70.2457 44.7448 69.9541 44.0938C69.6624 43.4375 69.5166 42.6719 69.5166 41.7969V41.7812C69.5166 40.901 69.6624 40.1354 69.9541 39.4844C70.2457 38.8333 70.6546 38.3281 71.1806 37.9688C71.7119 37.6094 72.3343 37.4297 73.0478 37.4297C73.4332 37.4297 73.7952 37.4922 74.1338 37.6172C74.4775 37.737 74.7822 37.9062 75.0478 38.125C75.3134 38.3438 75.5218 38.6042 75.6728 38.9062H75.7978V34.2344H77.1572V46H75.7978V44.6562H75.6728C75.5009 44.9688 75.2848 45.237 75.0244 45.4609C74.764 45.6797 74.4671 45.849 74.1338 45.9688C73.8004 46.0885 73.4384 46.1484 73.0478 46.1484ZM73.3603 44.9453C73.8707 44.9453 74.3108 44.8177 74.6806 44.5625C75.0504 44.3073 75.3343 43.9453 75.5322 43.4766C75.7301 43.0026 75.8291 42.4427 75.8291 41.7969V41.7812C75.8291 41.1302 75.7301 40.5703 75.5322 40.1016C75.3343 39.6328 75.0504 39.2708 74.6806 39.0156C74.3108 38.7604 73.8707 38.6328 73.3603 38.6328C72.8499 38.6328 72.4098 38.7604 72.04 39.0156C71.6754 39.2656 71.3942 39.625 71.1963 40.0938C71.0035 40.5625 70.9072 41.125 70.9072 41.7812V41.7969C70.9072 42.4479 71.0035 43.0104 71.1963 43.4844C71.3942 43.9531 71.6754 44.3151 72.04 44.5703C72.4098 44.8203 72.8499 44.9453 73.3603 44.9453ZM83.0391 46.1484C82.237 46.1484 81.5469 45.9714 80.9688 45.6172C80.3958 45.263 79.9531 44.763 79.6406 44.1172C79.3333 43.4661 79.1797 42.7005 79.1797 41.8203V41.8125C79.1797 40.9427 79.3333 40.1797 79.6406 39.5234C79.9531 38.8672 80.3932 38.3542 80.9609 37.9844C81.5286 37.6146 82.1927 37.4297 82.9531 37.4297C83.7188 37.4297 84.375 37.6068 84.9219 37.9609C85.474 38.3151 85.8958 38.8099 86.1875 39.4453C86.4844 40.0755 86.6328 40.8099 86.6328 41.6484V42.1797H79.8828V41.0938H85.9375L85.2656 42.0859V41.5469C85.2656 40.8854 85.1667 40.3411 84.9688 39.9141C84.7708 39.487 84.4974 39.1693 84.1484 38.9609C83.7995 38.7474 83.3984 38.6406 82.9453 38.6406C82.4922 38.6406 82.0859 38.7526 81.7266 38.9766C81.3724 39.1953 81.0911 39.5208 80.8828 39.9531C80.6745 40.3854 80.5703 40.9167 80.5703 41.5469V42.0859C80.5703 42.6849 80.6719 43.1979 80.875 43.625C81.0781 44.0469 81.3672 44.3724 81.7422 44.6016C82.1172 44.8255 82.5599 44.9375 83.0703 44.9375C83.4505 44.9375 83.7812 44.8854 84.0625 44.7812C84.3438 44.6771 84.5755 44.5443 84.7578 44.3828C84.9401 44.2214 85.0677 44.0573 85.1406 43.8906L85.1719 43.8203H86.5312L86.5156 43.8828C86.4427 44.1693 86.3125 44.4479 86.125 44.7188C85.9427 44.9844 85.7057 45.2266 85.4141 45.4453C85.1224 45.6589 84.776 45.8307 84.375 45.9609C83.9792 46.0859 83.5339 46.1484 83.0391 46.1484ZM88.5772 46V37.5781H89.9366V38.8438H90.0616C90.2751 38.3958 90.5824 38.0495 90.9834 37.8047C91.3845 37.5547 91.8949 37.4297 92.5147 37.4297C93.4626 37.4297 94.1892 37.7005 94.6944 38.2422C95.2048 38.7786 95.46 39.5469 95.46 40.5469V46H94.1006V40.875C94.1006 40.1146 93.9392 39.5521 93.6162 39.1875C93.2985 38.8177 92.8037 38.6328 92.1319 38.6328C91.684 38.6328 91.2959 38.7292 90.9678 38.9219C90.6397 39.1146 90.3845 39.388 90.2022 39.7422C90.0251 40.0964 89.9366 40.5208 89.9366 41.0156V46H88.5772ZM100.748 46.0625C99.8835 46.0625 99.2559 45.888 98.8653 45.5391C98.4799 45.1901 98.2872 44.6146 98.2872 43.8125V38.7031H96.9591V37.5781H98.2872V35.3984H99.6934V37.5781H101.537V38.7031H99.6934V43.4688C99.6934 43.9635 99.7872 44.3203 99.9747 44.5391C100.162 44.7526 100.475 44.8594 100.912 44.8594C101.032 44.8594 101.134 44.8568 101.217 44.8516C101.305 44.8464 101.412 44.8385 101.537 44.8281V45.9844C101.407 46.0052 101.277 46.0234 101.147 46.0391C101.016 46.0547 100.884 46.0625 100.748 46.0625ZM103.435 46V37.5781H104.794V46H103.435ZM104.122 35.9531C103.867 35.9531 103.646 35.862 103.458 35.6797C103.276 35.4922 103.185 35.2708 103.185 35.0156C103.185 34.7552 103.276 34.5339 103.458 34.3516C103.646 34.1693 103.867 34.0781 104.122 34.0781C104.383 34.0781 104.604 34.1693 104.786 34.3516C104.969 34.5339 105.06 34.7552 105.06 35.0156C105.06 35.2708 104.969 35.4922 104.786 35.6797C104.604 35.862 104.383 35.9531 104.122 35.9531ZM107.754 46V38.7031H106.356V37.5781H107.754V36.6406C107.754 36.0781 107.845 35.6146 108.028 35.25C108.215 34.8802 108.491 34.6068 108.856 34.4297C109.22 34.2474 109.668 34.1562 110.199 34.1562C110.366 34.1562 110.522 34.1641 110.668 34.1797C110.819 34.1901 110.965 34.2083 111.106 34.2344V35.3203C111.022 35.3047 110.926 35.2943 110.817 35.2891C110.707 35.2839 110.593 35.2812 110.473 35.2812C109.988 35.2812 109.639 35.3984 109.426 35.6328C109.218 35.8672 109.113 36.2161 109.113 36.6797V37.5781H111.028V38.7031H109.113V46H107.754ZM113.542 48.9531C113.454 48.9531 113.355 48.9479 113.245 48.9375C113.136 48.9323 113.034 48.9219 112.941 48.9062V47.7891C113.024 47.8047 113.115 47.8151 113.214 47.8203C113.313 47.8255 113.409 47.8281 113.503 47.8281C113.889 47.8281 114.204 47.7292 114.448 47.5312C114.698 47.3333 114.899 46.9922 115.05 46.5078L115.206 46.0078L112.089 37.5781H113.542L116.136 45.3594L115.597 44.5078H116.238L115.698 45.3594L118.284 37.5781H119.714L116.425 46.5156C116.196 47.1458 115.954 47.638 115.698 47.9922C115.443 48.3464 115.144 48.5938 114.8 48.7344C114.461 48.8802 114.042 48.9531 113.542 48.9531ZM121.377 46V37.5781H122.737V46H121.377ZM122.065 35.9531C121.809 35.9531 121.588 35.862 121.401 35.6797C121.218 35.4922 121.127 35.2708 121.127 35.0156C121.127 34.7552 121.218 34.5339 121.401 34.3516C121.588 34.1693 121.809 34.0781 122.065 34.0781C122.325 34.0781 122.546 34.1693 122.729 34.3516C122.911 34.5339 123.002 34.7552 123.002 35.0156C123.002 35.2708 122.911 35.4922 122.729 35.6797C122.546 35.862 122.325 35.9531 122.065 35.9531ZM125.134 46V37.5781H126.493V38.8438H126.618C126.832 38.3958 127.139 38.0495 127.54 37.8047C127.941 37.5547 128.452 37.4297 129.072 37.4297C130.019 37.4297 130.746 37.7005 131.251 38.2422C131.762 38.7786 132.017 39.5469 132.017 40.5469V46H130.658V40.875C130.658 40.1146 130.496 39.5521 130.173 39.1875C129.855 38.8177 129.361 38.6328 128.689 38.6328C128.241 38.6328 127.853 38.7292 127.525 38.9219C127.197 39.1146 126.941 39.388 126.759 39.7422C126.582 40.0964 126.493 40.5208 126.493 41.0156V46H125.134ZM137.782 48.9688C137.104 48.9688 136.513 48.8724 136.008 48.6797C135.503 48.4922 135.099 48.224 134.797 47.875C134.5 47.5312 134.315 47.1302 134.243 46.6719L134.258 46.6641H135.664L135.672 46.6719C135.745 46.9896 135.964 47.25 136.328 47.4531C136.693 47.6615 137.177 47.7656 137.782 47.7656C138.537 47.7656 139.125 47.5938 139.547 47.25C139.974 46.9115 140.188 46.4323 140.188 45.8125V44.1094H140.063C139.886 44.4167 139.664 44.6797 139.399 44.8984C139.133 45.1172 138.834 45.2839 138.5 45.3984C138.167 45.5078 137.808 45.5625 137.422 45.5625C136.698 45.5625 136.071 45.3906 135.539 45.0469C135.013 44.6979 134.607 44.2188 134.321 43.6094C134.034 43 133.891 42.3021 133.891 41.5156V41.5C133.891 40.7135 134.034 40.0156 134.321 39.4062C134.612 38.7917 135.024 38.3099 135.555 37.9609C136.086 37.6068 136.719 37.4297 137.453 37.4297C137.849 37.4297 138.214 37.4922 138.547 37.6172C138.881 37.7422 139.175 37.9193 139.43 38.1484C139.69 38.3776 139.907 38.651 140.078 38.9688H140.172V37.5781H141.532V45.8828C141.532 46.5078 141.378 47.0521 141.071 47.5156C140.769 47.9792 140.336 48.3359 139.774 48.5859C139.211 48.8411 138.547 48.9688 137.782 48.9688ZM137.719 44.3594C138.24 44.3594 138.685 44.2396 139.055 44C139.43 43.7552 139.716 43.4193 139.914 42.9922C140.118 42.5651 140.219 42.0729 140.219 41.5156V41.5C140.219 40.9427 140.118 40.4479 139.914 40.0156C139.716 39.5833 139.43 39.2448 139.055 39C138.685 38.7552 138.24 38.6328 137.719 38.6328C137.198 38.6328 136.756 38.7552 136.391 39C136.032 39.2448 135.756 39.5833 135.563 40.0156C135.375 40.4479 135.282 40.9427 135.282 41.5V41.5156C135.282 42.0729 135.375 42.5651 135.563 42.9922C135.756 43.4193 136.032 43.7552 136.391 44C136.756 44.2396 137.198 44.3594 137.719 44.3594ZM151.123 46.1484C150.498 46.1484 149.946 46.0547 149.467 45.8672C148.988 45.6745 148.603 45.4062 148.311 45.0625C148.024 44.7188 147.855 44.3151 147.803 43.8516H149.194C149.308 44.2005 149.532 44.4818 149.866 44.6953C150.199 44.9089 150.634 45.0156 151.17 45.0156C151.551 45.0156 151.884 44.9609 152.17 44.8516C152.462 44.737 152.691 44.5833 152.858 44.3906C153.024 44.1927 153.108 43.9661 153.108 43.7109V43.6953C153.108 43.4089 152.993 43.1667 152.764 42.9688C152.535 42.7656 152.16 42.6016 151.639 42.4766L150.334 42.1641C149.808 42.0391 149.376 41.8776 149.038 41.6797C148.699 41.4766 148.449 41.2292 148.288 40.9375C148.126 40.6406 148.045 40.2917 148.045 39.8906V39.8828C148.045 39.4141 148.181 38.9948 148.452 38.625C148.728 38.2552 149.103 37.9635 149.577 37.75C150.051 37.5365 150.584 37.4297 151.178 37.4297C151.767 37.4297 152.288 37.5234 152.741 37.7109C153.199 37.8932 153.566 38.1536 153.842 38.4922C154.123 38.8307 154.295 39.2292 154.358 39.6875H153.022C152.933 39.3542 152.73 39.0833 152.413 38.875C152.095 38.6667 151.681 38.5625 151.17 38.5625C150.837 38.5625 150.54 38.6172 150.28 38.7266C150.019 38.8307 149.814 38.9766 149.663 39.1641C149.511 39.3516 149.436 39.5703 149.436 39.8203V39.8359C149.436 40.0234 149.485 40.1901 149.584 40.3359C149.683 40.4818 149.837 40.6094 150.045 40.7188C150.254 40.8281 150.522 40.9245 150.85 41.0078L152.147 41.3203C152.939 41.513 153.527 41.7891 153.913 42.1484C154.303 42.5078 154.498 42.9896 154.498 43.5938V43.6094C154.498 44.1094 154.35 44.5521 154.053 44.9375C153.756 45.3177 153.353 45.6146 152.842 45.8281C152.337 46.0417 151.764 46.1484 151.123 46.1484ZM159.357 46.0625C158.492 46.0625 157.865 45.888 157.474 45.5391C157.089 45.1901 156.896 44.6146 156.896 43.8125V38.7031H155.568V37.5781H156.896V35.3984H158.302V37.5781H160.146V38.7031H158.302V43.4688C158.302 43.9635 158.396 44.3203 158.583 44.5391C158.771 44.7526 159.083 44.8594 159.521 44.8594C159.641 44.8594 159.742 44.8568 159.826 44.8516C159.914 44.8464 160.021 44.8385 160.146 44.8281V45.9844C160.016 46.0052 159.886 46.0234 159.755 46.0391C159.625 46.0547 159.492 46.0625 159.357 46.0625ZM165.364 46.1484C164.567 46.1484 163.877 45.974 163.293 45.625C162.715 45.2708 162.267 44.7682 161.95 44.1172C161.637 43.4661 161.481 42.6927 161.481 41.7969V41.7812C161.481 40.8802 161.637 40.1042 161.95 39.4531C162.267 38.8021 162.715 38.3021 163.293 37.9531C163.877 37.6042 164.567 37.4297 165.364 37.4297C166.166 37.4297 166.856 37.6042 167.434 37.9531C168.012 38.3021 168.458 38.8021 168.77 39.4531C169.088 40.1042 169.247 40.8802 169.247 41.7812V41.7969C169.247 42.6927 169.088 43.4661 168.77 44.1172C168.458 44.7682 168.012 45.2708 167.434 45.625C166.856 45.974 166.166 46.1484 165.364 46.1484ZM165.364 44.9453C165.895 44.9453 166.346 44.8203 166.715 44.5703C167.085 44.3203 167.366 43.9609 167.559 43.4922C167.757 43.0234 167.856 42.4583 167.856 41.7969V41.7812C167.856 41.1146 167.757 40.5469 167.559 40.0781C167.366 39.6094 167.085 39.2526 166.715 39.0078C166.346 38.7578 165.895 38.6328 165.364 38.6328C164.833 38.6328 164.382 38.7578 164.012 39.0078C163.642 39.2526 163.359 39.6094 163.161 40.0781C162.968 40.5469 162.872 41.1146 162.872 41.7812V41.7969C162.872 42.4583 162.968 43.0234 163.161 43.4922C163.359 43.9609 163.642 44.3203 164.012 44.5703C164.382 44.8203 164.833 44.9453 165.364 44.9453ZM171.191 46V37.5781H172.55V38.8438H172.675C172.889 38.3958 173.196 38.0495 173.597 37.8047C173.998 37.5547 174.509 37.4297 175.128 37.4297C176.076 37.4297 176.803 37.7005 177.308 38.2422C177.819 38.7786 178.074 39.5469 178.074 40.5469V46H176.714V40.875C176.714 40.1146 176.553 39.5521 176.23 39.1875C175.912 38.8177 175.417 38.6328 174.746 38.6328C174.298 38.6328 173.91 38.7292 173.582 38.9219C173.253 39.1146 172.998 39.388 172.816 39.7422C172.639 40.0964 172.55 40.5208 172.55 41.0156V46H171.191ZM183.807 46.1484C183.005 46.1484 182.315 45.9714 181.737 45.6172C181.164 45.263 180.721 44.763 180.409 44.1172C180.101 43.4661 179.948 42.7005 179.948 41.8203V41.8125C179.948 40.9427 180.101 40.1797 180.409 39.5234C180.721 38.8672 181.161 38.3542 181.729 37.9844C182.297 37.6146 182.961 37.4297 183.721 37.4297C184.487 37.4297 185.143 37.6068 185.69 37.9609C186.242 38.3151 186.664 38.8099 186.956 39.4453C187.253 40.0755 187.401 40.8099 187.401 41.6484V42.1797H180.651V41.0938H186.706L186.034 42.0859V41.5469C186.034 40.8854 185.935 40.3411 185.737 39.9141C185.539 39.487 185.266 39.1693 184.917 38.9609C184.568 38.7474 184.167 38.6406 183.713 38.6406C183.26 38.6406 182.854 38.7526 182.495 38.9766C182.141 39.1953 181.859 39.5208 181.651 39.9531C181.443 40.3854 181.338 40.9167 181.338 41.5469V42.0859C181.338 42.6849 181.44 43.1979 181.643 43.625C181.846 44.0469 182.135 44.3724 182.51 44.6016C182.885 44.8255 183.328 44.9375 183.838 44.9375C184.219 44.9375 184.549 44.8854 184.831 44.7812C185.112 44.6771 185.344 44.5443 185.526 44.3828C185.708 44.2214 185.836 44.0573 185.909 43.8906L185.94 43.8203H187.299L187.284 43.8828C187.211 44.1693 187.081 44.4479 186.893 44.7188C186.711 44.9844 186.474 45.2266 186.182 45.4453C185.891 45.6589 185.544 45.8307 185.143 45.9609C184.747 46.0859 184.302 46.1484 183.807 46.1484ZM192.236 46.1484C191.611 46.1484 191.059 46.0547 190.58 45.8672C190.101 45.6745 189.715 45.4062 189.423 45.0625C189.137 44.7188 188.968 44.3151 188.916 43.8516H190.306C190.421 44.2005 190.645 44.4818 190.978 44.6953C191.311 44.9089 191.746 45.0156 192.283 45.0156C192.663 45.0156 192.996 44.9609 193.283 44.8516C193.574 44.737 193.804 44.5833 193.97 44.3906C194.137 44.1927 194.22 43.9661 194.22 43.7109V43.6953C194.22 43.4089 194.106 43.1667 193.877 42.9688C193.647 42.7656 193.272 42.6016 192.752 42.4766L191.447 42.1641C190.921 42.0391 190.489 41.8776 190.15 41.6797C189.811 41.4766 189.561 41.2292 189.4 40.9375C189.239 40.6406 189.158 40.2917 189.158 39.8906V39.8828C189.158 39.4141 189.293 38.9948 189.564 38.625C189.84 38.2552 190.215 37.9635 190.689 37.75C191.163 37.5365 191.697 37.4297 192.291 37.4297C192.879 37.4297 193.4 37.5234 193.853 37.7109C194.311 37.8932 194.679 38.1536 194.955 38.4922C195.236 38.8307 195.408 39.2292 195.47 39.6875H194.134C194.046 39.3542 193.843 39.0833 193.525 38.875C193.207 38.6667 192.793 38.5625 192.283 38.5625C191.949 38.5625 191.653 38.6172 191.392 38.7266C191.132 38.8307 190.926 38.9766 190.775 39.1641C190.624 39.3516 190.548 39.5703 190.548 39.8203V39.8359C190.548 40.0234 190.598 40.1901 190.697 40.3359C190.796 40.4818 190.949 40.6094 191.158 40.7188C191.366 40.8281 191.634 40.9245 191.963 41.0078L193.259 41.3203C194.051 41.513 194.64 41.7891 195.025 42.1484C195.416 42.5078 195.611 42.9896 195.611 43.5938V43.6094C195.611 44.1094 195.463 44.5521 195.166 44.9375C194.869 45.3177 194.465 45.6146 193.955 45.8281C193.449 46.0417 192.877 46.1484 192.236 46.1484ZM197.212 48.8672L197.891 44.4219H199.446L198.219 48.8672H197.212ZM209.944 48.9688C209.267 48.9688 208.676 48.8724 208.171 48.6797C207.665 48.4922 207.262 48.224 206.96 47.875C206.663 47.5312 206.478 47.1302 206.405 46.6719L206.421 46.6641H207.827L207.835 46.6719C207.908 46.9896 208.126 47.25 208.491 47.4531C208.856 47.6615 209.34 47.7656 209.944 47.7656C210.699 47.7656 211.288 47.5938 211.71 47.25C212.137 46.9115 212.35 46.4323 212.35 45.8125V44.1094H212.225C212.048 44.4167 211.827 44.6797 211.561 44.8984C211.296 45.1172 210.996 45.2839 210.663 45.3984C210.329 45.5078 209.97 45.5625 209.585 45.5625C208.861 45.5625 208.233 45.3906 207.702 45.0469C207.176 44.6979 206.77 44.2188 206.483 43.6094C206.197 43 206.053 42.3021 206.053 41.5156V41.5C206.053 40.7135 206.197 40.0156 206.483 39.4062C206.775 38.7917 207.186 38.3099 207.717 37.9609C208.249 37.6068 208.882 37.4297 209.616 37.4297C210.012 37.4297 210.376 37.4922 210.71 37.6172C211.043 37.7422 211.337 37.9193 211.592 38.1484C211.853 38.3776 212.069 38.651 212.241 38.9688H212.335V37.5781H213.694V45.8828C213.694 46.5078 213.54 47.0521 213.233 47.5156C212.931 47.9792 212.499 48.3359 211.936 48.5859C211.374 48.8411 210.71 48.9688 209.944 48.9688ZM209.882 44.3594C210.402 44.3594 210.848 44.2396 211.217 44C211.592 43.7552 211.879 43.4193 212.077 42.9922C212.28 42.5651 212.382 42.0729 212.382 41.5156V41.5C212.382 40.9427 212.28 40.4479 212.077 40.0156C211.879 39.5833 211.592 39.2448 211.217 39C210.848 38.7552 210.402 38.6328 209.882 38.6328C209.361 38.6328 208.918 38.7552 208.553 39C208.194 39.2448 207.918 39.5833 207.725 40.0156C207.538 40.4479 207.444 40.9427 207.444 41.5V41.5156C207.444 42.0729 207.538 42.5651 207.725 42.9922C207.918 43.4193 208.194 43.7552 208.553 44C208.918 44.2396 209.361 44.3594 209.882 44.3594ZM219.521 46.1484C218.724 46.1484 218.034 45.974 217.451 45.625C216.873 45.2708 216.425 44.7682 216.107 44.1172C215.795 43.4661 215.638 42.6927 215.638 41.7969V41.7812C215.638 40.8802 215.795 40.1042 216.107 39.4531C216.425 38.8021 216.873 38.3021 217.451 37.9531C218.034 37.6042 218.724 37.4297 219.521 37.4297C220.323 37.4297 221.013 37.6042 221.592 37.9531C222.17 38.3021 222.615 38.8021 222.928 39.4531C223.245 40.1042 223.404 40.8802 223.404 41.7812V41.7969C223.404 42.6927 223.245 43.4661 222.928 44.1172C222.615 44.7682 222.17 45.2708 221.592 45.625C221.013 45.974 220.323 46.1484 219.521 46.1484ZM219.521 44.9453C220.053 44.9453 220.503 44.8203 220.873 44.5703C221.243 44.3203 221.524 43.9609 221.717 43.4922C221.914 43.0234 222.013 42.4583 222.013 41.7969V41.7812C222.013 41.1146 221.914 40.5469 221.717 40.0781C221.524 39.6094 221.243 39.2526 220.873 39.0078C220.503 38.7578 220.053 38.6328 219.521 38.6328C218.99 38.6328 218.539 38.7578 218.17 39.0078C217.8 39.2526 217.516 39.6094 217.318 40.0781C217.125 40.5469 217.029 41.1146 217.029 41.7812V41.7969C217.029 42.4583 217.125 43.0234 217.318 43.4922C217.516 43.9609 217.8 44.3203 218.17 44.5703C218.539 44.8203 218.99 44.9453 219.521 44.9453ZM232.676 46.0625C231.811 46.0625 231.183 45.888 230.793 45.5391C230.407 45.1901 230.215 44.6146 230.215 43.8125V38.7031H228.887V37.5781H230.215V35.3984H231.621V37.5781H233.465V38.7031H231.621V43.4688C231.621 43.9635 231.715 44.3203 231.902 44.5391C232.09 44.7526 232.402 44.8594 232.84 44.8594C232.959 44.8594 233.061 44.8568 233.144 44.8516C233.233 44.8464 233.34 44.8385 233.465 44.8281V45.9844C233.334 46.0052 233.204 46.0234 233.074 46.0391C232.944 46.0547 232.811 46.0625 232.676 46.0625ZM238.682 46.1484C237.886 46.1484 237.196 45.974 236.612 45.625C236.034 45.2708 235.586 44.7682 235.268 44.1172C234.956 43.4661 234.8 42.6927 234.8 41.7969V41.7812C234.8 40.8802 234.956 40.1042 235.268 39.4531C235.586 38.8021 236.034 38.3021 236.612 37.9531C237.196 37.6042 237.886 37.4297 238.682 37.4297C239.485 37.4297 240.175 37.6042 240.753 37.9531C241.331 38.3021 241.776 38.8021 242.089 39.4531C242.406 40.1042 242.565 40.8802 242.565 41.7812V41.7969C242.565 42.6927 242.406 43.4661 242.089 44.1172C241.776 44.7682 241.331 45.2708 240.753 45.625C240.175 45.974 239.485 46.1484 238.682 46.1484ZM238.682 44.9453C239.214 44.9453 239.664 44.8203 240.034 44.5703C240.404 44.3203 240.685 43.9609 240.878 43.4922C241.076 43.0234 241.175 42.4583 241.175 41.7969V41.7812C241.175 41.1146 241.076 40.5469 240.878 40.0781C240.685 39.6094 240.404 39.2526 240.034 39.0078C239.664 38.7578 239.214 38.6328 238.682 38.6328C238.151 38.6328 237.701 38.7578 237.331 39.0078C236.961 39.2526 236.677 39.6094 236.479 40.0781C236.287 40.5469 236.19 41.1146 236.19 41.7812V41.7969C236.19 42.4583 236.287 43.0234 236.479 43.4922C236.677 43.9609 236.961 44.3203 237.331 44.5703C237.701 44.8203 238.151 44.9453 238.682 44.9453ZM251.735 46.1484C251.11 46.1484 250.558 46.0547 250.079 45.8672C249.6 45.6745 249.214 45.4062 248.923 45.0625C248.636 44.7188 248.467 44.3151 248.415 43.8516H249.806C249.92 44.2005 250.144 44.4818 250.478 44.6953C250.811 44.9089 251.246 45.0156 251.782 45.0156C252.162 45.0156 252.496 44.9609 252.782 44.8516C253.074 44.737 253.303 44.5833 253.47 44.3906C253.636 44.1927 253.72 43.9661 253.72 43.7109V43.6953C253.72 43.4089 253.605 43.1667 253.376 42.9688C253.147 42.7656 252.772 42.6016 252.251 42.4766L250.946 42.1641C250.42 42.0391 249.988 41.8776 249.649 41.6797C249.311 41.4766 249.061 41.2292 248.899 40.9375C248.738 40.6406 248.657 40.2917 248.657 39.8906V39.8828C248.657 39.4141 248.793 38.9948 249.063 38.625C249.339 38.2552 249.714 37.9635 250.188 37.75C250.662 37.5365 251.196 37.4297 251.79 37.4297C252.379 37.4297 252.899 37.5234 253.353 37.7109C253.811 37.8932 254.178 38.1536 254.454 38.4922C254.735 38.8307 254.907 39.2292 254.97 39.6875H253.634C253.545 39.3542 253.342 39.0833 253.024 38.875C252.707 38.6667 252.293 38.5625 251.782 38.5625C251.449 38.5625 251.152 38.6172 250.892 38.7266C250.631 38.8307 250.425 38.9766 250.274 39.1641C250.123 39.3516 250.048 39.5703 250.048 39.8203V39.8359C250.048 40.0234 250.097 40.1901 250.196 40.3359C250.295 40.4818 250.449 40.6094 250.657 40.7188C250.866 40.8281 251.134 40.9245 251.462 41.0078L252.759 41.3203C253.55 41.513 254.139 41.7891 254.524 42.1484C254.915 42.5078 255.11 42.9896 255.11 43.5938V43.6094C255.11 44.1094 254.962 44.5521 254.665 44.9375C254.368 45.3177 253.964 45.6146 253.454 45.8281C252.949 46.0417 252.376 46.1484 251.735 46.1484ZM260.492 46.1484C259.69 46.1484 259 45.9714 258.422 45.6172C257.849 45.263 257.406 44.763 257.094 44.1172C256.786 43.4661 256.633 42.7005 256.633 41.8203V41.8125C256.633 40.9427 256.786 40.1797 257.094 39.5234C257.406 38.8672 257.846 38.3542 258.414 37.9844C258.982 37.6146 259.646 37.4297 260.406 37.4297C261.172 37.4297 261.828 37.6068 262.375 37.9609C262.927 38.3151 263.349 38.8099 263.641 39.4453C263.938 40.0755 264.086 40.8099 264.086 41.6484V42.1797H257.336V41.0938H263.391L262.719 42.0859V41.5469C262.719 40.8854 262.62 40.3411 262.422 39.9141C262.224 39.487 261.951 39.1693 261.602 38.9609C261.253 38.7474 260.852 38.6406 260.398 38.6406C259.945 38.6406 259.539 38.7526 259.18 38.9766C258.826 39.1953 258.544 39.5208 258.336 39.9531C258.128 40.3854 258.023 40.9167 258.023 41.5469V42.0859C258.023 42.6849 258.125 43.1979 258.328 43.625C258.531 44.0469 258.82 44.3724 259.195 44.6016C259.57 44.8255 260.013 44.9375 260.523 44.9375C260.904 44.9375 261.234 44.8854 261.516 44.7812C261.797 44.6771 262.029 44.5443 262.211 44.3828C262.393 44.2214 262.521 44.0573 262.594 43.8906L262.625 43.8203H263.984L263.969 43.8828C263.896 44.1693 263.766 44.4479 263.578 44.7188C263.396 44.9844 263.159 45.2266 262.867 45.4453C262.576 45.6589 262.229 45.8307 261.828 45.9609C261.432 46.0859 260.987 46.1484 260.492 46.1484ZM269.022 46.0625C268.158 46.0625 267.53 45.888 267.14 45.5391C266.754 45.1901 266.562 44.6146 266.562 43.8125V38.7031H265.233V37.5781H266.562V35.3984H267.968V37.5781H269.812V38.7031H267.968V43.4688C267.968 43.9635 268.062 44.3203 268.249 44.5391C268.437 44.7526 268.749 44.8594 269.187 44.8594C269.306 44.8594 269.408 44.8568 269.491 44.8516C269.58 44.8464 269.687 44.8385 269.812 44.8281V45.9844C269.681 46.0052 269.551 46.0234 269.421 46.0391C269.291 46.0547 269.158 46.0625 269.022 46.0625ZM274.67 46.0625C273.805 46.0625 273.178 45.888 272.787 45.5391C272.402 45.1901 272.209 44.6146 272.209 43.8125V38.7031H270.881V37.5781H272.209V35.3984H273.615V37.5781H275.459V38.7031H273.615V43.4688C273.615 43.9635 273.709 44.3203 273.897 44.5391C274.084 44.7526 274.397 44.8594 274.834 44.8594C274.954 44.8594 275.055 44.8568 275.139 44.8516C275.227 44.8464 275.334 44.8385 275.459 44.8281V45.9844C275.329 46.0052 275.199 46.0234 275.068 46.0391C274.938 46.0547 274.805 46.0625 274.67 46.0625ZM277.357 46V37.5781H278.716V46H277.357ZM278.044 35.9531C277.789 35.9531 277.568 35.862 277.38 35.6797C277.198 35.4922 277.107 35.2708 277.107 35.0156C277.107 34.7552 277.198 34.5339 277.38 34.3516C277.568 34.1693 277.789 34.0781 278.044 34.0781C278.304 34.0781 278.526 34.1693 278.708 34.3516C278.89 34.5339 278.982 34.7552 278.982 35.0156C278.982 35.2708 278.89 35.4922 278.708 35.6797C278.526 35.862 278.304 35.9531 278.044 35.9531ZM281.113 46V37.5781H282.473V38.8438H282.598C282.811 38.3958 283.119 38.0495 283.52 37.8047C283.921 37.5547 284.431 37.4297 285.051 37.4297C285.999 37.4297 286.725 37.7005 287.231 38.2422C287.741 38.7786 287.996 39.5469 287.996 40.5469V46H286.637V40.875C286.637 40.1146 286.475 39.5521 286.152 39.1875C285.835 38.8177 285.34 38.6328 284.668 38.6328C284.22 38.6328 283.832 38.7292 283.504 38.9219C283.176 39.1146 282.921 39.388 282.738 39.7422C282.561 40.0964 282.473 40.5208 282.473 41.0156V46H281.113ZM293.761 48.9688C293.084 48.9688 292.493 48.8724 291.987 48.6797C291.482 48.4922 291.079 48.224 290.777 47.875C290.48 47.5312 290.295 47.1302 290.222 46.6719L290.237 46.6641H291.644L291.652 46.6719C291.724 46.9896 291.943 47.25 292.308 47.4531C292.672 47.6615 293.157 47.7656 293.761 47.7656C294.516 47.7656 295.105 47.5938 295.527 47.25C295.954 46.9115 296.167 46.4323 296.167 45.8125V44.1094H296.042C295.865 44.4167 295.644 44.6797 295.378 44.8984C295.112 45.1172 294.813 45.2839 294.48 45.3984C294.146 45.5078 293.787 45.5625 293.402 45.5625C292.678 45.5625 292.05 45.3906 291.519 45.0469C290.993 44.6979 290.586 44.2188 290.3 43.6094C290.014 43 289.87 42.3021 289.87 41.5156V41.5C289.87 40.7135 290.014 40.0156 290.3 39.4062C290.592 38.7917 291.003 38.3099 291.534 37.9609C292.066 37.6068 292.698 37.4297 293.433 37.4297C293.829 37.4297 294.193 37.4922 294.527 37.6172C294.86 37.7422 295.154 37.9193 295.409 38.1484C295.67 38.3776 295.886 38.651 296.058 38.9688H296.152V37.5781H297.511V45.8828C297.511 46.5078 297.357 47.0521 297.05 47.5156C296.748 47.9792 296.316 48.3359 295.753 48.5859C295.191 48.8411 294.527 48.9688 293.761 48.9688ZM293.698 44.3594C294.219 44.3594 294.665 44.2396 295.034 44C295.409 43.7552 295.696 43.4193 295.894 42.9922C296.097 42.5651 296.198 42.0729 296.198 41.5156V41.5C296.198 40.9427 296.097 40.4479 295.894 40.0156C295.696 39.5833 295.409 39.2448 295.034 39C294.665 38.7552 294.219 38.6328 293.698 38.6328C293.178 38.6328 292.735 38.7552 292.37 39C292.011 39.2448 291.735 39.5833 291.542 40.0156C291.355 40.4479 291.261 40.9427 291.261 41.5V41.5156C291.261 42.0729 291.355 42.5651 291.542 42.9922C291.735 43.4193 292.011 43.7552 292.37 44C292.735 44.2396 293.178 44.3594 293.698 44.3594ZM302.768 46.1484C302.143 46.1484 301.591 46.0547 301.112 45.8672C300.632 45.6745 300.247 45.4062 299.955 45.0625C299.669 44.7188 299.5 44.3151 299.448 43.8516H300.838C300.953 44.2005 301.177 44.4818 301.51 44.6953C301.843 44.9089 302.278 45.0156 302.815 45.0156C303.195 45.0156 303.528 44.9609 303.815 44.8516C304.106 44.737 304.336 44.5833 304.502 44.3906C304.669 44.1927 304.752 43.9661 304.752 43.7109V43.6953C304.752 43.4089 304.638 43.1667 304.408 42.9688C304.179 42.7656 303.804 42.6016 303.283 42.4766L301.979 42.1641C301.453 42.0391 301.02 41.8776 300.682 41.6797C300.343 41.4766 300.093 41.2292 299.932 40.9375C299.77 40.6406 299.69 40.2917 299.69 39.8906V39.8828C299.69 39.4141 299.825 38.9948 300.096 38.625C300.372 38.2552 300.747 37.9635 301.221 37.75C301.695 37.5365 302.229 37.4297 302.823 37.4297C303.411 37.4297 303.932 37.5234 304.385 37.7109C304.843 37.8932 305.211 38.1536 305.487 38.4922C305.768 38.8307 305.94 39.2292 306.002 39.6875H304.666C304.578 39.3542 304.375 39.0833 304.057 38.875C303.739 38.6667 303.325 38.5625 302.815 38.5625C302.481 38.5625 302.184 38.6172 301.924 38.7266C301.664 38.8307 301.458 38.9766 301.307 39.1641C301.156 39.3516 301.08 39.5703 301.08 39.8203V39.8359C301.08 40.0234 301.13 40.1901 301.229 40.3359C301.328 40.4818 301.481 40.6094 301.69 40.7188C301.898 40.8281 302.166 40.9245 302.494 41.0078L303.791 41.3203C304.583 41.513 305.171 41.7891 305.557 42.1484C305.948 42.5078 306.143 42.9896 306.143 43.5938V43.6094C306.143 44.1094 305.994 44.5521 305.698 44.9375C305.401 45.3177 304.997 45.6146 304.487 45.8281C303.981 46.0417 303.408 46.1484 302.768 46.1484ZM314.735 46.1484C314.203 46.1484 313.724 46.0469 313.297 45.8438C312.875 45.6406 312.539 45.3516 312.289 44.9766C312.045 44.6016 311.922 44.1589 311.922 43.6484V43.6328C311.922 43.1328 312.042 42.7057 312.282 42.3516C312.521 41.9922 312.87 41.7109 313.328 41.5078C313.787 41.3047 314.341 41.1849 314.992 41.1484L318.086 40.9609V42.0469L315.157 42.2344C314.516 42.2708 314.047 42.4036 313.75 42.6328C313.459 42.862 313.313 43.1849 313.313 43.6016V43.6172C313.313 44.0443 313.474 44.3776 313.797 44.6172C314.12 44.8516 314.526 44.9688 315.016 44.9688C315.479 44.9688 315.891 44.8776 316.25 44.6953C316.61 44.5078 316.891 44.2552 317.094 43.9375C317.302 43.6198 317.407 43.2604 317.407 42.8594V40.2344C317.407 39.7135 317.248 39.3177 316.93 39.0469C316.617 38.7708 316.146 38.6328 315.516 38.6328C315.011 38.6328 314.597 38.724 314.274 38.9062C313.951 39.0833 313.735 39.3359 313.625 39.6641L313.617 39.6875H312.258L312.266 39.6406C312.339 39.1979 312.521 38.8125 312.813 38.4844C313.11 38.151 313.492 37.8932 313.961 37.7109C314.43 37.5234 314.964 37.4297 315.563 37.4297C316.25 37.4297 316.831 37.5417 317.305 37.7656C317.784 37.9896 318.146 38.3125 318.391 38.7344C318.641 39.151 318.766 39.651 318.766 40.2344V46H317.407V44.7578H317.282C317.104 45.0547 316.888 45.3073 316.633 45.5156C316.383 45.724 316.099 45.8828 315.782 45.9922C315.464 46.0964 315.115 46.1484 314.735 46.1484ZM321.085 46V37.5781H322.445V38.8438H322.57C322.783 38.3958 323.091 38.0495 323.492 37.8047C323.893 37.5547 324.403 37.4297 325.023 37.4297C325.971 37.4297 326.697 37.7005 327.203 38.2422C327.713 38.7786 327.968 39.5469 327.968 40.5469V46H326.609V40.875C326.609 40.1146 326.447 39.5521 326.124 39.1875C325.807 38.8177 325.312 38.6328 324.64 38.6328C324.192 38.6328 323.804 38.7292 323.476 38.9219C323.148 39.1146 322.893 39.388 322.71 39.7422C322.533 40.0964 322.445 40.5208 322.445 41.0156V46H321.085ZM333.373 46.1484C332.665 46.1484 332.045 45.9688 331.514 45.6094C330.983 45.25 330.571 44.7448 330.28 44.0938C329.988 43.4375 329.842 42.6719 329.842 41.7969V41.7812C329.842 40.901 329.988 40.1354 330.28 39.4844C330.571 38.8333 330.98 38.3281 331.506 37.9688C332.038 37.6094 332.66 37.4297 333.373 37.4297C333.759 37.4297 334.121 37.4922 334.459 37.6172C334.803 37.737 335.108 37.9062 335.373 38.125C335.639 38.3438 335.847 38.6042 335.998 38.9062H336.123V34.2344H337.483V46H336.123V44.6562H335.998C335.827 44.9688 335.61 45.237 335.35 45.4609C335.09 45.6797 334.793 45.849 334.459 45.9688C334.126 46.0885 333.764 46.1484 333.373 46.1484ZM333.686 44.9453C334.196 44.9453 334.636 44.8177 335.006 44.5625C335.376 44.3073 335.66 43.9453 335.858 43.4766C336.056 43.0026 336.155 42.4427 336.155 41.7969V41.7812C336.155 41.1302 336.056 40.5703 335.858 40.1016C335.66 39.6328 335.376 39.2708 335.006 39.0156C334.636 38.7604 334.196 38.6328 333.686 38.6328C333.176 38.6328 332.735 38.7604 332.366 39.0156C332.001 39.2656 331.72 39.625 331.522 40.0938C331.329 40.5625 331.233 41.125 331.233 41.7812V41.7969C331.233 42.4479 331.329 43.0104 331.522 43.4844C331.72 43.9531 332.001 44.3151 332.366 44.5703C332.735 44.8203 333.176 44.9453 333.686 44.9453ZM49.5228 67.9688C48.8457 67.9688 48.2546 67.8724 47.7494 67.6797C47.2442 67.4922 46.8405 67.224 46.5384 66.875C46.2416 66.5312 46.0567 66.1302 45.9837 65.6719L45.9994 65.6641H47.4056L47.4134 65.6719C47.4864 65.9896 47.7051 66.25 48.0697 66.4531C48.4343 66.6615 48.9186 66.7656 49.5228 66.7656C50.278 66.7656 50.8666 66.5938 51.2884 66.25C51.7155 65.9115 51.9291 65.4323 51.9291 64.8125V63.1094H51.8041C51.627 63.4167 51.4056 63.6797 51.14 63.8984C50.8744 64.1172 50.5749 64.2839 50.2416 64.3984C49.9082 64.5078 49.5489 64.5625 49.1634 64.5625C48.4395 64.5625 47.8119 64.3906 47.2806 64.0469C46.7546 63.6979 46.3483 63.2188 46.0619 62.6094C45.7754 62 45.6322 61.3021 45.6322 60.5156V60.5C45.6322 59.7135 45.7754 59.0156 46.0619 58.4062C46.3535 57.7917 46.765 57.3099 47.2962 56.9609C47.8275 56.6068 48.4603 56.4297 49.1947 56.4297C49.5905 56.4297 49.9551 56.4922 50.2884 56.6172C50.6218 56.7422 50.916 56.9193 51.1712 57.1484C51.4317 57.3776 51.6478 57.651 51.8197 57.9688H51.9134V56.5781H53.2728V64.8828C53.2728 65.5078 53.1192 66.0521 52.8119 66.5156C52.5098 66.9792 52.0775 67.3359 51.515 67.5859C50.9525 67.8411 50.2884 67.9688 49.5228 67.9688ZM49.4603 63.3594C49.9811 63.3594 50.4265 63.2396 50.7962 63C51.1712 62.7552 51.4577 62.4193 51.6556 61.9922C51.8587 61.5651 51.9603 61.0729 51.9603 60.5156V60.5C51.9603 59.9427 51.8587 59.4479 51.6556 59.0156C51.4577 58.5833 51.1712 58.2448 50.7962 58C50.4265 57.7552 49.9811 57.6328 49.4603 57.6328C48.9395 57.6328 48.4968 57.7552 48.1322 58C47.7728 58.2448 47.4968 58.5833 47.3041 59.0156C47.1166 59.4479 47.0228 59.9427 47.0228 60.5V60.5156C47.0228 61.0729 47.1166 61.5651 47.3041 61.9922C47.4968 62.4193 47.7728 62.7552 48.1322 63C48.4968 63.2396 48.9395 63.3594 49.4603 63.3594ZM55.6703 65V56.5781H57.0297V65H55.6703ZM56.3578 54.9531C56.1026 54.9531 55.8812 54.862 55.6937 54.6797C55.5115 54.4922 55.4203 54.2708 55.4203 54.0156C55.4203 53.7552 55.5115 53.5339 55.6937 53.3516C55.8812 53.1693 56.1026 53.0781 56.3578 53.0781C56.6182 53.0781 56.8396 53.1693 57.0219 53.3516C57.2042 53.5339 57.2953 53.7552 57.2953 54.0156C57.2953 54.2708 57.2042 54.4922 57.0219 54.6797C56.8396 54.862 56.6182 54.9531 56.3578 54.9531ZM61.81 65L58.6928 56.5781H60.1303L62.435 63.5156H62.56L64.8647 56.5781H66.3022L63.185 65H61.81ZM71.0591 65.1484C70.257 65.1484 69.5669 64.9714 68.9887 64.6172C68.4158 64.263 67.9731 63.763 67.6606 63.1172C67.3533 62.4661 67.1997 61.7005 67.1997 60.8203V60.8125C67.1997 59.9427 67.3533 59.1797 67.6606 58.5234C67.9731 57.8672 68.4132 57.3542 68.9809 56.9844C69.5486 56.6146 70.2127 56.4297 70.9731 56.4297C71.7387 56.4297 72.395 56.6068 72.9419 56.9609C73.494 57.3151 73.9158 57.8099 74.2075 58.4453C74.5044 59.0755 74.6528 59.8099 74.6528 60.6484V61.1797H67.9028V60.0938H73.9575L73.2856 61.0859V60.5469C73.2856 59.8854 73.1867 59.3411 72.9887 58.9141C72.7908 58.487 72.5174 58.1693 72.1684 57.9609C71.8195 57.7474 71.4184 57.6406 70.9653 57.6406C70.5122 57.6406 70.1059 57.7526 69.7466 57.9766C69.3924 58.1953 69.1111 58.5208 68.9028 58.9531C68.6945 59.3854 68.5903 59.9167 68.5903 60.5469V61.0859C68.5903 61.6849 68.6919 62.1979 68.895 62.625C69.0981 63.0469 69.3872 63.3724 69.7622 63.6016C70.1372 63.8255 70.5799 63.9375 71.0903 63.9375C71.4705 63.9375 71.8012 63.8854 72.0825 63.7812C72.3637 63.6771 72.5955 63.5443 72.7778 63.3828C72.9601 63.2214 73.0877 63.0573 73.1606 62.8906L73.1919 62.8203H74.5512L74.5356 62.8828C74.4627 63.1693 74.3325 63.4479 74.145 63.7188C73.9627 63.9844 73.7257 64.2266 73.4341 64.4453C73.1424 64.6589 72.796 64.8307 72.395 64.9609C71.9992 65.0859 71.5539 65.1484 71.0591 65.1484ZM83.9244 65.0625C83.0598 65.0625 82.4322 64.888 82.0416 64.5391C81.6561 64.1901 81.4634 63.6146 81.4634 62.8125V57.7031H80.1353V56.5781H81.4634V54.3984H82.8697V56.5781H84.7134V57.7031H82.8697V62.4688C82.8697 62.9635 82.9634 63.3203 83.1509 63.5391C83.3384 63.7526 83.6509 63.8594 84.0884 63.8594C84.2082 63.8594 84.3098 63.8568 84.3931 63.8516C84.4817 63.8464 84.5884 63.8385 84.7134 63.8281V64.9844C84.5832 65.0052 84.453 65.0234 84.3228 65.0391C84.1926 65.0547 84.0598 65.0625 83.9244 65.0625ZM86.6578 65V53.2344H88.0172V57.8438H88.1422C88.3557 57.3958 88.663 57.0495 89.0641 56.8047C89.4651 56.5547 89.9755 56.4297 90.5953 56.4297C91.2255 56.4297 91.7594 56.5521 92.1969 56.7969C92.6344 57.0365 92.9677 57.388 93.1969 57.8516C93.426 58.3151 93.5406 58.8802 93.5406 59.5469V65H92.1812V59.875C92.1812 59.1146 92.0198 58.5521 91.6969 58.1875C91.3792 57.8177 90.8844 57.6328 90.2125 57.6328C89.7646 57.6328 89.3766 57.7292 89.0484 57.9219C88.7203 58.1146 88.4651 58.388 88.2828 58.7422C88.1057 59.0964 88.0172 59.5208 88.0172 60.0156V65H86.6578ZM99.2741 65.1484C98.472 65.1484 97.7819 64.9714 97.2038 64.6172C96.6308 64.263 96.1881 63.763 95.8756 63.1172C95.5683 62.4661 95.4147 61.7005 95.4147 60.8203V60.8125C95.4147 59.9427 95.5683 59.1797 95.8756 58.5234C96.1881 57.8672 96.6282 57.3542 97.1959 56.9844C97.7636 56.6146 98.4277 56.4297 99.1881 56.4297C99.9538 56.4297 100.61 56.6068 101.157 56.9609C101.709 57.3151 102.131 57.8099 102.423 58.4453C102.719 59.0755 102.868 59.8099 102.868 60.6484V61.1797H96.1178V60.0938H102.173L101.501 61.0859V60.5469C101.501 59.8854 101.402 59.3411 101.204 58.9141C101.006 58.487 100.732 58.1693 100.383 57.9609C100.034 57.7474 99.6334 57.6406 99.1803 57.6406C98.7272 57.6406 98.3209 57.7526 97.9616 57.9766C97.6074 58.1953 97.3261 58.5208 97.1178 58.9531C96.9095 59.3854 96.8053 59.9167 96.8053 60.5469V61.0859C96.8053 61.6849 96.9069 62.1979 97.11 62.625C97.3131 63.0469 97.6022 63.3724 97.9772 63.6016C98.3522 63.8255 98.7949 63.9375 99.3053 63.9375C99.6855 63.9375 100.016 63.8854 100.298 63.7812C100.579 63.6771 100.811 63.5443 100.993 63.3828C101.175 63.2214 101.303 63.0573 101.376 62.8906L101.407 62.8203H102.766L102.751 62.8828C102.678 63.1693 102.548 63.4479 102.36 63.7188C102.178 63.9844 101.941 64.2266 101.649 64.4453C101.357 64.6589 101.011 64.8307 100.61 64.9609C100.214 65.0859 99.7689 65.1484 99.2741 65.1484ZM111.46 65.1484C110.928 65.1484 110.449 65.0469 110.022 64.8438C109.6 64.6406 109.264 64.3516 109.014 63.9766C108.77 63.6016 108.647 63.1589 108.647 62.6484V62.6328C108.647 62.1328 108.767 61.7057 109.007 61.3516C109.246 60.9922 109.595 60.7109 110.053 60.5078C110.512 60.3047 111.066 60.1849 111.717 60.1484L114.811 59.9609V61.0469L111.882 61.2344C111.241 61.2708 110.772 61.4036 110.475 61.6328C110.184 61.862 110.038 62.1849 110.038 62.6016V62.6172C110.038 63.0443 110.199 63.3776 110.522 63.6172C110.845 63.8516 111.251 63.9688 111.741 63.9688C112.204 63.9688 112.616 63.8776 112.975 63.6953C113.335 63.5078 113.616 63.2552 113.819 62.9375C114.027 62.6198 114.132 62.2604 114.132 61.8594V59.2344C114.132 58.7135 113.973 58.3177 113.655 58.0469C113.342 57.7708 112.871 57.6328 112.241 57.6328C111.736 57.6328 111.322 57.724 110.999 57.9062C110.676 58.0833 110.46 58.3359 110.35 58.6641L110.342 58.6875H108.983L108.991 58.6406C109.064 58.1979 109.246 57.8125 109.538 57.4844C109.835 57.151 110.217 56.8932 110.686 56.7109C111.155 56.5234 111.689 56.4297 112.288 56.4297C112.975 56.4297 113.556 56.5417 114.03 56.7656C114.509 56.9896 114.871 57.3125 115.116 57.7344C115.366 58.151 115.491 58.651 115.491 59.2344V65H114.132V63.7578H114.007C113.829 64.0547 113.613 64.3073 113.358 64.5156C113.108 64.724 112.824 64.8828 112.507 64.9922C112.189 65.0964 111.84 65.1484 111.46 65.1484ZM117.81 67.8125V56.5781H119.17V57.9219H119.295C119.467 57.6094 119.683 57.3438 119.943 57.125C120.204 56.901 120.5 56.7292 120.834 56.6094C121.167 56.4896 121.529 56.4297 121.92 56.4297C122.633 56.4297 123.253 56.612 123.779 56.9766C124.31 57.3359 124.722 57.8411 125.013 58.4922C125.305 59.1432 125.451 59.9062 125.451 60.7812V60.7969C125.451 61.6771 125.305 62.4427 125.013 63.0938C124.722 63.7448 124.31 64.25 123.779 64.6094C123.253 64.9688 122.633 65.1484 121.92 65.1484C121.534 65.1484 121.17 65.0885 120.826 64.9688C120.487 64.8438 120.185 64.6719 119.92 64.4531C119.659 64.2344 119.451 63.974 119.295 63.6719H119.17V67.8125H117.81ZM121.607 63.9453C122.123 63.9453 122.563 63.8203 122.927 63.5703C123.292 63.3151 123.571 62.9531 123.763 62.4844C123.961 62.0104 124.06 61.4479 124.06 60.7969V60.7812C124.06 60.125 123.961 59.5625 123.763 59.0938C123.571 58.625 123.292 58.2656 122.927 58.0156C122.563 57.7604 122.123 57.6328 121.607 57.6328C121.097 57.6328 120.657 57.7604 120.287 58.0156C119.917 58.2708 119.633 58.6328 119.435 59.1016C119.237 59.5703 119.138 60.1302 119.138 60.7812V60.7969C119.138 61.4427 119.237 62.0026 119.435 62.4766C119.633 62.9453 119.917 63.3073 120.287 63.5625C120.657 63.8177 121.097 63.9453 121.607 63.9453ZM127.411 67.8125V56.5781H128.77V57.9219H128.895C129.067 57.6094 129.283 57.3438 129.544 57.125C129.804 56.901 130.101 56.7292 130.434 56.6094C130.768 56.4896 131.13 56.4297 131.52 56.4297C132.234 56.4297 132.854 56.612 133.38 56.9766C133.911 57.3359 134.322 57.8411 134.614 58.4922C134.906 59.1432 135.052 59.9062 135.052 60.7812V60.7969C135.052 61.6771 134.906 62.4427 134.614 63.0938C134.322 63.7448 133.911 64.25 133.38 64.6094C132.854 64.9688 132.234 65.1484 131.52 65.1484C131.135 65.1484 130.77 65.0885 130.427 64.9688C130.088 64.8438 129.786 64.6719 129.52 64.4531C129.26 64.2344 129.052 63.974 128.895 63.6719H128.77V67.8125H127.411ZM131.208 63.9453C131.723 63.9453 132.164 63.8203 132.528 63.5703C132.893 63.3151 133.171 62.9531 133.364 62.4844C133.562 62.0104 133.661 61.4479 133.661 60.7969V60.7812C133.661 60.125 133.562 59.5625 133.364 59.0938C133.171 58.625 132.893 58.2656 132.528 58.0156C132.164 57.7604 131.723 57.6328 131.208 57.6328C130.697 57.6328 130.257 57.7604 129.887 58.0156C129.518 58.2708 129.234 58.6328 129.036 59.1016C128.838 59.5703 128.739 60.1302 128.739 60.7812V60.7969C128.739 61.4427 128.838 62.0026 129.036 62.4766C129.234 62.9453 129.518 63.3073 129.887 63.5625C130.257 63.8177 130.697 63.9453 131.208 63.9453ZM143.659 65.1484C143.128 65.1484 142.649 65.0469 142.222 64.8438C141.8 64.6406 141.464 64.3516 141.214 63.9766C140.969 63.6016 140.847 63.1589 140.847 62.6484V62.6328C140.847 62.1328 140.966 61.7057 141.206 61.3516C141.446 60.9922 141.794 60.7109 142.253 60.5078C142.711 60.3047 143.266 60.1849 143.917 60.1484L147.011 59.9609V61.0469L144.081 61.2344C143.44 61.2708 142.972 61.4036 142.675 61.6328C142.383 61.862 142.237 62.1849 142.237 62.6016V62.6172C142.237 63.0443 142.399 63.3776 142.722 63.6172C143.044 63.8516 143.451 63.9688 143.94 63.9688C144.404 63.9688 144.815 63.8776 145.175 63.6953C145.534 63.5078 145.815 63.2552 146.018 62.9375C146.227 62.6198 146.331 62.2604 146.331 61.8594V59.2344C146.331 58.7135 146.172 58.3177 145.854 58.0469C145.542 57.7708 145.071 57.6328 144.44 57.6328C143.935 57.6328 143.521 57.724 143.198 57.9062C142.875 58.0833 142.659 58.3359 142.55 58.6641L142.542 58.6875H141.182L141.19 58.6406C141.263 58.1979 141.446 57.8125 141.737 57.4844C142.034 57.151 142.417 56.8932 142.886 56.7109C143.354 56.5234 143.888 56.4297 144.487 56.4297C145.175 56.4297 145.755 56.5417 146.229 56.7656C146.709 56.9896 147.071 57.3125 147.315 57.7344C147.565 58.151 147.69 58.651 147.69 59.2344V65H146.331V63.7578H146.206C146.029 64.0547 145.813 64.3073 145.557 64.5156C145.307 64.724 145.024 64.8828 144.706 64.9922C144.388 65.0964 144.039 65.1484 143.659 65.1484ZM153.455 65.1484C152.669 65.1484 151.986 64.9688 151.408 64.6094C150.83 64.25 150.382 63.7422 150.064 63.0859C149.747 62.4297 149.588 61.6562 149.588 60.7656V60.75C149.588 59.875 149.744 59.1146 150.057 58.4688C150.374 57.8229 150.822 57.3229 151.4 56.9688C151.978 56.6094 152.661 56.4297 153.447 56.4297C154.129 56.4297 154.718 56.5495 155.213 56.7891C155.708 57.0286 156.103 57.3516 156.4 57.7578C156.697 58.1589 156.887 58.6094 156.971 59.1094L156.978 59.1562H155.627L155.619 59.1328C155.515 58.7161 155.278 58.362 154.908 58.0703C154.538 57.7786 154.051 57.6328 153.447 57.6328C152.942 57.6328 152.504 57.7604 152.135 58.0156C151.765 58.2708 151.478 58.6328 151.275 59.1016C151.077 59.5651 150.978 60.1146 150.978 60.75V60.7656C150.978 61.4115 151.08 61.974 151.283 62.4531C151.486 62.9271 151.773 63.2943 152.143 63.5547C152.512 63.8151 152.947 63.9453 153.447 63.9453C154.015 63.9453 154.478 63.8229 154.838 63.5781C155.197 63.3333 155.455 62.9766 155.611 62.5078L155.627 62.4609L156.971 62.4531L156.955 62.5391C156.84 63.0443 156.637 63.4948 156.346 63.8906C156.054 64.2812 155.669 64.5885 155.189 64.8125C154.71 65.0365 154.132 65.1484 153.455 65.1484ZM162.243 65.1484C161.457 65.1484 160.774 64.9688 160.196 64.6094C159.618 64.25 159.17 63.7422 158.853 63.0859C158.535 62.4297 158.376 61.6562 158.376 60.7656V60.75C158.376 59.875 158.532 59.1146 158.845 58.4688C159.162 57.8229 159.61 57.3229 160.188 56.9688C160.767 56.6094 161.449 56.4297 162.235 56.4297C162.918 56.4297 163.506 56.5495 164.001 56.7891C164.496 57.0286 164.892 57.3516 165.188 57.7578C165.485 58.1589 165.675 58.6094 165.759 59.1094L165.767 59.1562H164.415L164.407 59.1328C164.303 58.7161 164.066 58.362 163.696 58.0703C163.326 57.7786 162.839 57.6328 162.235 57.6328C161.73 57.6328 161.293 57.7604 160.923 58.0156C160.553 58.2708 160.267 58.6328 160.063 59.1016C159.866 59.5651 159.767 60.1146 159.767 60.75V60.7656C159.767 61.4115 159.868 61.974 160.071 62.4531C160.274 62.9271 160.561 63.2943 160.931 63.5547C161.3 63.8151 161.735 63.9453 162.235 63.9453C162.803 63.9453 163.267 63.8229 163.626 63.5781C163.985 63.3333 164.243 62.9766 164.399 62.5078L164.415 62.4609L165.759 62.4531L165.743 62.5391C165.629 63.0443 165.425 63.4948 165.134 63.8906C164.842 64.2812 164.457 64.5885 163.978 64.8125C163.498 65.0365 162.92 65.1484 162.243 65.1484ZM171.023 65.1484C170.221 65.1484 169.531 64.9714 168.953 64.6172C168.38 64.263 167.938 63.763 167.625 63.1172C167.318 62.4661 167.164 61.7005 167.164 60.8203V60.8125C167.164 59.9427 167.318 59.1797 167.625 58.5234C167.938 57.8672 168.378 57.3542 168.945 56.9844C169.513 56.6146 170.177 56.4297 170.938 56.4297C171.703 56.4297 172.359 56.6068 172.906 56.9609C173.458 57.3151 173.88 57.8099 174.172 58.4453C174.469 59.0755 174.617 59.8099 174.617 60.6484V61.1797H167.867V60.0938H173.922L173.25 61.0859V60.5469C173.25 59.8854 173.151 59.3411 172.953 58.9141C172.755 58.487 172.482 58.1693 172.133 57.9609C171.784 57.7474 171.383 57.6406 170.93 57.6406C170.477 57.6406 170.07 57.7526 169.711 57.9766C169.357 58.1953 169.076 58.5208 168.867 58.9531C168.659 59.3854 168.555 59.9167 168.555 60.5469V61.0859C168.555 61.6849 168.656 62.1979 168.859 62.625C169.062 63.0469 169.352 63.3724 169.727 63.6016C170.102 63.8255 170.544 63.9375 171.055 63.9375C171.435 63.9375 171.766 63.8854 172.047 63.7812C172.328 63.6771 172.56 63.5443 172.742 63.3828C172.924 63.2214 173.052 63.0573 173.125 62.8906L173.156 62.8203H174.516L174.5 62.8828C174.427 63.1693 174.297 63.4479 174.109 63.7188C173.927 63.9844 173.69 64.2266 173.398 64.4453C173.107 64.6589 172.76 64.8307 172.359 64.9609C171.964 65.0859 171.518 65.1484 171.023 65.1484ZM179.452 65.1484C178.827 65.1484 178.275 65.0547 177.796 64.8672C177.317 64.6745 176.931 64.4062 176.64 64.0625C176.353 63.7188 176.184 63.3151 176.132 62.8516H177.523C177.637 63.2005 177.861 63.4818 178.194 63.6953C178.528 63.9089 178.963 64.0156 179.499 64.0156C179.879 64.0156 180.213 63.9609 180.499 63.8516C180.791 63.737 181.02 63.5833 181.187 63.3906C181.353 63.1927 181.437 62.9661 181.437 62.7109V62.6953C181.437 62.4089 181.322 62.1667 181.093 61.9688C180.864 61.7656 180.489 61.6016 179.968 61.4766L178.663 61.1641C178.137 61.0391 177.705 60.8776 177.366 60.6797C177.028 60.4766 176.778 60.2292 176.616 59.9375C176.455 59.6406 176.374 59.2917 176.374 58.8906V58.8828C176.374 58.4141 176.509 57.9948 176.78 57.625C177.056 57.2552 177.431 56.9635 177.905 56.75C178.379 56.5365 178.913 56.4297 179.507 56.4297C180.095 56.4297 180.616 56.5234 181.069 56.7109C181.528 56.8932 181.895 57.1536 182.171 57.4922C182.452 57.8307 182.624 58.2292 182.687 58.6875H181.351C181.262 58.3542 181.059 58.0833 180.741 57.875C180.424 57.6667 180.009 57.5625 179.499 57.5625C179.166 57.5625 178.869 57.6172 178.608 57.7266C178.348 57.8307 178.142 57.9766 177.991 58.1641C177.84 58.3516 177.765 58.5703 177.765 58.8203V58.8359C177.765 59.0234 177.814 59.1901 177.913 59.3359C178.012 59.4818 178.166 59.6094 178.374 59.7188C178.582 59.8281 178.851 59.9245 179.179 60.0078L180.476 60.3203C181.267 60.513 181.856 60.7891 182.241 61.1484C182.632 61.5078 182.827 61.9896 182.827 62.5938V62.6094C182.827 63.1094 182.679 63.5521 182.382 63.9375C182.085 64.3177 181.681 64.6146 181.171 64.8281C180.666 65.0417 180.093 65.1484 179.452 65.1484ZM187.506 65.1484C186.881 65.1484 186.329 65.0547 185.85 64.8672C185.371 64.6745 184.985 64.4062 184.693 64.0625C184.407 63.7188 184.238 63.3151 184.186 62.8516H185.576C185.691 63.2005 185.915 63.4818 186.248 63.6953C186.581 63.9089 187.016 64.0156 187.553 64.0156C187.933 64.0156 188.266 63.9609 188.553 63.8516C188.844 63.737 189.074 63.5833 189.24 63.3906C189.407 63.1927 189.49 62.9661 189.49 62.7109V62.6953C189.49 62.4089 189.376 62.1667 189.147 61.9688C188.917 61.7656 188.542 61.6016 188.022 61.4766L186.717 61.1641C186.191 61.0391 185.759 60.8776 185.42 60.6797C185.081 60.4766 184.831 60.2292 184.67 59.9375C184.509 59.6406 184.428 59.2917 184.428 58.8906V58.8828C184.428 58.4141 184.563 57.9948 184.834 57.625C185.11 57.2552 185.485 56.9635 185.959 56.75C186.433 56.5365 186.967 56.4297 187.561 56.4297C188.149 56.4297 188.67 56.5234 189.123 56.7109C189.581 56.8932 189.949 57.1536 190.225 57.4922C190.506 57.8307 190.678 58.2292 190.74 58.6875H189.404C189.316 58.3542 189.113 58.0833 188.795 57.875C188.477 57.6667 188.063 57.5625 187.553 57.5625C187.219 57.5625 186.923 57.6172 186.662 57.7266C186.402 57.8307 186.196 57.9766 186.045 58.1641C185.894 58.3516 185.818 58.5703 185.818 58.8203V58.8359C185.818 59.0234 185.868 59.1901 185.967 59.3359C186.066 59.4818 186.219 59.6094 186.428 59.7188C186.636 59.8281 186.904 59.9245 187.232 60.0078L188.529 60.3203C189.321 60.513 189.91 60.7891 190.295 61.1484C190.686 61.5078 190.881 61.9896 190.881 62.5938V62.6094C190.881 63.1094 190.732 63.5521 190.436 63.9375C190.139 64.3177 189.735 64.6146 189.225 64.8281C188.719 65.0417 188.147 65.1484 187.506 65.1484ZM200.152 65.0625C199.288 65.0625 198.66 64.888 198.27 64.5391C197.884 64.1901 197.692 63.6146 197.692 62.8125V57.7031H196.363V56.5781H197.692V54.3984H199.098V56.5781H200.942V57.7031H199.098V62.4688C199.098 62.9635 199.192 63.3203 199.379 63.5391C199.567 63.7526 199.879 63.8594 200.317 63.8594C200.436 63.8594 200.538 63.8568 200.621 63.8516C200.71 63.8464 200.817 63.8385 200.942 63.8281V64.9844C200.811 65.0052 200.681 65.0234 200.551 65.0391C200.421 65.0547 200.288 65.0625 200.152 65.0625ZM206.159 65.1484C205.363 65.1484 204.672 64.974 204.089 64.625C203.511 64.2708 203.063 63.7682 202.745 63.1172C202.433 62.4661 202.277 61.6927 202.277 60.7969V60.7812C202.277 59.8802 202.433 59.1042 202.745 58.4531C203.063 57.8021 203.511 57.3021 204.089 56.9531C204.672 56.6042 205.363 56.4297 206.159 56.4297C206.961 56.4297 207.652 56.6042 208.23 56.9531C208.808 57.3021 209.253 57.8021 209.566 58.4531C209.883 59.1042 210.042 59.8802 210.042 60.7812V60.7969C210.042 61.6927 209.883 62.4661 209.566 63.1172C209.253 63.7682 208.808 64.2708 208.23 64.625C207.652 64.974 206.961 65.1484 206.159 65.1484ZM206.159 63.9453C206.691 63.9453 207.141 63.8203 207.511 63.5703C207.881 63.3203 208.162 62.9609 208.355 62.4922C208.553 62.0234 208.652 61.4583 208.652 60.7969V60.7812C208.652 60.1146 208.553 59.5469 208.355 59.0781C208.162 58.6094 207.881 58.2526 207.511 58.0078C207.141 57.7578 206.691 57.6328 206.159 57.6328C205.628 57.6328 205.178 57.7578 204.808 58.0078C204.438 58.2526 204.154 58.6094 203.956 59.0781C203.764 59.5469 203.667 60.1146 203.667 60.7812V60.7969C203.667 61.4583 203.764 62.0234 203.956 62.4922C204.154 62.9609 204.438 63.3203 204.808 63.5703C205.178 63.8203 205.628 63.9453 206.159 63.9453ZM219.314 65.0625C218.449 65.0625 217.822 64.888 217.431 64.5391C217.046 64.1901 216.853 63.6146 216.853 62.8125V57.7031H215.525V56.5781H216.853V54.3984H218.259V56.5781H220.103V57.7031H218.259V62.4688C218.259 62.9635 218.353 63.3203 218.54 63.5391C218.728 63.7526 219.04 63.8594 219.478 63.8594C219.598 63.8594 219.699 63.8568 219.783 63.8516C219.871 63.8464 219.978 63.8385 220.103 63.8281V64.9844C219.973 65.0052 219.842 65.0234 219.712 65.0391C219.582 65.0547 219.449 65.0625 219.314 65.0625ZM222.047 65V53.2344H223.407V57.8438H223.532C223.745 57.3958 224.052 57.0495 224.453 56.8047C224.854 56.5547 225.365 56.4297 225.985 56.4297C226.615 56.4297 227.149 56.5521 227.586 56.7969C228.024 57.0365 228.357 57.388 228.586 57.8516C228.815 58.3151 228.93 58.8802 228.93 59.5469V65H227.571V59.875C227.571 59.1146 227.409 58.5521 227.086 58.1875C226.769 57.8177 226.274 57.6328 225.602 57.6328C225.154 57.6328 224.766 57.7292 224.438 57.9219C224.11 58.1146 223.854 58.388 223.672 58.7422C223.495 59.0964 223.407 59.5208 223.407 60.0156V65H222.047ZM234.663 65.1484C233.861 65.1484 233.171 64.9714 232.593 64.6172C232.02 64.263 231.577 63.763 231.265 63.1172C230.958 62.4661 230.804 61.7005 230.804 60.8203V60.8125C230.804 59.9427 230.958 59.1797 231.265 58.5234C231.577 57.8672 232.018 57.3542 232.585 56.9844C233.153 56.6146 233.817 56.4297 234.577 56.4297C235.343 56.4297 235.999 56.6068 236.546 56.9609C237.098 57.3151 237.52 57.8099 237.812 58.4453C238.109 59.0755 238.257 59.8099 238.257 60.6484V61.1797H231.507V60.0938H237.562L236.89 61.0859V60.5469C236.89 59.8854 236.791 59.3411 236.593 58.9141C236.395 58.487 236.122 58.1693 235.773 57.9609C235.424 57.7474 235.023 57.6406 234.57 57.6406C234.117 57.6406 233.71 57.7526 233.351 57.9766C232.997 58.1953 232.716 58.5208 232.507 58.9531C232.299 59.3854 232.195 59.9167 232.195 60.5469V61.0859C232.195 61.6849 232.296 62.1979 232.499 62.625C232.702 63.0469 232.992 63.3724 233.367 63.6016C233.742 63.8255 234.184 63.9375 234.695 63.9375C235.075 63.9375 235.406 63.8854 235.687 63.7812C235.968 63.6771 236.2 63.5443 236.382 63.3828C236.564 63.2214 236.692 63.0573 236.765 62.8906L236.796 62.8203H238.156L238.14 62.8828C238.067 63.1693 237.937 63.4479 237.749 63.7188C237.567 63.9844 237.33 64.2266 237.038 64.4453C236.747 64.6589 236.4 64.8307 235.999 64.9609C235.604 65.0859 235.158 65.1484 234.663 65.1484ZM247.982 65.1484C247.195 65.1484 246.513 64.9688 245.935 64.6094C245.357 64.25 244.909 63.7422 244.591 63.0859C244.274 62.4297 244.115 61.6562 244.115 60.7656V60.75C244.115 59.875 244.271 59.1146 244.583 58.4688C244.901 57.8229 245.349 57.3229 245.927 56.9688C246.505 56.6094 247.188 56.4297 247.974 56.4297C248.656 56.4297 249.245 56.5495 249.74 56.7891C250.234 57.0286 250.63 57.3516 250.927 57.7578C251.224 58.1589 251.414 58.6094 251.497 59.1094L251.505 59.1562H250.154L250.146 59.1328C250.042 58.7161 249.805 58.362 249.435 58.0703C249.065 57.7786 248.578 57.6328 247.974 57.6328C247.469 57.6328 247.031 57.7604 246.662 58.0156C246.292 58.2708 246.005 58.6328 245.802 59.1016C245.604 59.5651 245.505 60.1146 245.505 60.75V60.7656C245.505 61.4115 245.607 61.974 245.81 62.4531C246.013 62.9271 246.3 63.2943 246.669 63.5547C247.039 63.8151 247.474 63.9453 247.974 63.9453C248.542 63.9453 249.005 63.8229 249.365 63.5781C249.724 63.3333 249.982 62.9766 250.138 62.5078L250.154 62.4609L251.497 62.4531L251.482 62.5391C251.367 63.0443 251.164 63.4948 250.872 63.8906C250.581 64.2812 250.195 64.5885 249.716 64.8125C249.237 65.0365 248.659 65.1484 247.982 65.1484ZM255.637 65.1484C255.106 65.1484 254.627 65.0469 254.2 64.8438C253.778 64.6406 253.442 64.3516 253.192 63.9766C252.947 63.6016 252.825 63.1589 252.825 62.6484V62.6328C252.825 62.1328 252.944 61.7057 253.184 61.3516C253.424 60.9922 253.773 60.7109 254.231 60.5078C254.689 60.3047 255.244 60.1849 255.895 60.1484L258.989 59.9609V61.0469L256.059 61.2344C255.418 61.2708 254.95 61.4036 254.653 61.6328C254.361 61.862 254.215 62.1849 254.215 62.6016V62.6172C254.215 63.0443 254.377 63.3776 254.7 63.6172C255.023 63.8516 255.429 63.9688 255.918 63.9688C256.382 63.9688 256.793 63.8776 257.153 63.6953C257.512 63.5078 257.793 63.2552 257.997 62.9375C258.205 62.6198 258.309 62.2604 258.309 61.8594V59.2344C258.309 58.7135 258.15 58.3177 257.833 58.0469C257.52 57.7708 257.049 57.6328 256.418 57.6328C255.913 57.6328 255.499 57.724 255.176 57.9062C254.853 58.0833 254.637 58.3359 254.528 58.6641L254.52 58.6875H253.161L253.168 58.6406C253.241 58.1979 253.424 57.8125 253.715 57.4844C254.012 57.151 254.395 56.8932 254.864 56.7109C255.333 56.5234 255.866 56.4297 256.465 56.4297C257.153 56.4297 257.734 56.5417 258.208 56.7656C258.687 56.9896 259.049 57.3125 259.293 57.7344C259.543 58.151 259.668 58.651 259.668 59.2344V65H258.309V63.7578H258.184C258.007 64.0547 257.791 64.3073 257.536 64.5156C257.286 64.724 257.002 64.8828 256.684 64.9922C256.366 65.0964 256.017 65.1484 255.637 65.1484ZM261.988 65V56.5781H263.347V57.8594H263.472C263.66 57.4062 263.946 57.0547 264.332 56.8047C264.722 56.5547 265.194 56.4297 265.746 56.4297C266.126 56.4297 266.467 56.4922 266.769 56.6172C267.071 56.7422 267.332 56.9167 267.55 57.1406C267.769 57.3594 267.944 57.6146 268.074 57.9062H268.199C268.35 57.6094 268.553 57.3516 268.808 57.1328C269.063 56.9089 269.358 56.737 269.691 56.6172C270.029 56.4922 270.391 56.4297 270.777 56.4297C271.35 56.4297 271.834 56.5365 272.23 56.75C272.631 56.9635 272.936 57.276 273.144 57.6875C273.352 58.0938 273.457 58.5911 273.457 59.1797V65H272.097V59.4922C272.097 59.0755 272.032 58.7318 271.902 58.4609C271.777 58.1849 271.584 57.9792 271.324 57.8438C271.063 57.7031 270.735 57.6328 270.339 57.6328C269.949 57.6328 269.608 57.7214 269.316 57.8984C269.024 58.0755 268.798 58.3125 268.636 58.6094C268.475 58.901 268.394 59.2266 268.394 59.5859V65H267.035V59.2812C267.035 58.9479 266.962 58.6589 266.816 58.4141C266.675 58.1641 266.472 57.9714 266.207 57.8359C265.946 57.7005 265.639 57.6328 265.285 57.6328C264.92 57.6328 264.589 57.7292 264.292 57.9219C264.001 58.1146 263.769 58.375 263.597 58.7031C263.431 59.026 263.347 59.3854 263.347 59.7812V65H261.988ZM279.182 65.1484C278.38 65.1484 277.69 64.9714 277.112 64.6172C276.539 64.263 276.096 63.763 275.784 63.1172C275.476 62.4661 275.323 61.7005 275.323 60.8203V60.8125C275.323 59.9427 275.476 59.1797 275.784 58.5234C276.096 57.8672 276.536 57.3542 277.104 56.9844C277.672 56.6146 278.336 56.4297 279.096 56.4297C279.862 56.4297 280.518 56.6068 281.065 56.9609C281.617 57.3151 282.039 57.8099 282.331 58.4453C282.628 59.0755 282.776 59.8099 282.776 60.6484V61.1797H276.026V60.0938H282.081L281.409 61.0859V60.5469C281.409 59.8854 281.31 59.3411 281.112 58.9141C280.914 58.487 280.641 58.1693 280.292 57.9609C279.943 57.7474 279.542 57.6406 279.088 57.6406C278.635 57.6406 278.229 57.7526 277.87 57.9766C277.516 58.1953 277.234 58.5208 277.026 58.9531C276.818 59.3854 276.713 59.9167 276.713 60.5469V61.0859C276.713 61.6849 276.815 62.1979 277.018 62.625C277.221 63.0469 277.51 63.3724 277.885 63.6016C278.26 63.8255 278.703 63.9375 279.213 63.9375C279.594 63.9375 279.924 63.8854 280.206 63.7812C280.487 63.6771 280.719 63.5443 280.901 63.3828C281.083 63.2214 281.211 63.0573 281.284 62.8906L281.315 62.8203H282.674L282.659 62.8828C282.586 63.1693 282.456 63.4479 282.268 63.7188C282.086 63.9844 281.849 64.2266 281.557 64.4453C281.266 64.6589 280.919 64.8307 280.518 64.9609C280.122 65.0859 279.677 65.1484 279.182 65.1484ZM284.72 65V56.5781H286.08V57.8281H286.205C286.366 57.3854 286.64 57.0417 287.025 56.7969C287.41 56.5521 287.887 56.4297 288.455 56.4297C288.585 56.4297 288.712 56.4375 288.837 56.4531C288.968 56.4635 289.067 56.474 289.134 56.4844V57.8047C288.994 57.7786 288.856 57.7604 288.72 57.75C288.59 57.7344 288.449 57.7266 288.298 57.7266C287.866 57.7266 287.483 57.8125 287.15 57.9844C286.817 58.1562 286.554 58.3958 286.361 58.7031C286.173 59.0104 286.08 59.3698 286.08 59.7812V65H284.72ZM292.962 65.1484C292.43 65.1484 291.951 65.0469 291.524 64.8438C291.102 64.6406 290.766 64.3516 290.516 63.9766C290.271 63.6016 290.149 63.1589 290.149 62.6484V62.6328C290.149 62.1328 290.269 61.7057 290.508 61.3516C290.748 60.9922 291.097 60.7109 291.555 60.5078C292.014 60.3047 292.568 60.1849 293.219 60.1484L296.313 59.9609V61.0469L293.383 61.2344C292.743 61.2708 292.274 61.4036 291.977 61.6328C291.686 61.862 291.54 62.1849 291.54 62.6016V62.6172C291.54 63.0443 291.701 63.3776 292.024 63.6172C292.347 63.8516 292.753 63.9688 293.243 63.9688C293.706 63.9688 294.118 63.8776 294.477 63.6953C294.837 63.5078 295.118 63.2552 295.321 62.9375C295.529 62.6198 295.633 62.2604 295.633 61.8594V59.2344C295.633 58.7135 295.475 58.3177 295.157 58.0469C294.844 57.7708 294.373 57.6328 293.743 57.6328C293.238 57.6328 292.824 57.724 292.501 57.9062C292.178 58.0833 291.962 58.3359 291.852 58.6641L291.844 58.6875H290.485L290.493 58.6406C290.566 58.1979 290.748 57.8125 291.04 57.4844C291.337 57.151 291.719 56.8932 292.188 56.7109C292.657 56.5234 293.191 56.4297 293.79 56.4297C294.477 56.4297 295.058 56.5417 295.532 56.7656C296.011 56.9896 296.373 57.3125 296.618 57.7344C296.868 58.151 296.993 58.651 296.993 59.2344V65H295.633V63.7578H295.508C295.331 64.0547 295.115 64.3073 294.86 64.5156C294.61 64.724 294.326 64.8828 294.008 64.9922C293.691 65.0964 293.342 65.1484 292.962 65.1484Z" fill="#746685"/>
</svg>
