<svg width="32" height="32" viewBox="0 0 32 32" fill="none" xmlns="http://www.w3.org/2000/svg">
<rect width="32" height="32" rx="16" fill="#212224"/>
<path fill-rule="evenodd" clip-rule="evenodd" d="M11.2461 11.246C10.918 11.5742 10.918 12.1063 11.2461 12.4344L14.8119 16.0002L11.2468 19.5653C10.9186 19.8935 10.9186 20.4256 11.2468 20.7537C11.575 21.0819 12.1071 21.0819 12.4352 20.7537L16.0003 17.1886L19.5652 20.7535C19.8933 21.0816 20.4254 21.0816 20.7536 20.7535C21.0818 20.4253 21.0818 19.8932 20.7536 19.565L17.1888 16.0002L20.7543 12.4347C21.0824 12.1065 21.0824 11.5744 20.7543 11.2463C20.4261 10.9181 19.894 10.9181 19.5658 11.2463L16.0003 14.8118L12.4346 11.246C12.1064 10.9178 11.5743 10.9178 11.2461 11.246Z" fill="white"/>
</svg>
