<svg width="24" height="24" viewBox="0 0 24 24" fill="none" xmlns="http://www.w3.org/2000/svg">
<path d="M12.3135 8.55834C10.5094 8.55834 9.04683 10.0209 9.04683 11.825C9.04683 13.6291 10.5094 15.0917 12.3135 15.0917C14.1176 15.0917 15.5802 13.6291 15.5802 11.825C15.5833 10.9577 15.2401 10.125 14.6268 9.51169C14.0135 8.89839 13.1808 8.55523 12.3135 8.55834Z" fill="white"/>
<path fill-rule="evenodd" clip-rule="evenodd" d="M16.8052 0.333344H7.8335C3.9675 0.333344 0.833496 3.46735 0.833496 7.33334V16.305C0.833496 20.171 3.9675 23.305 7.8335 23.305H16.8052C20.6712 23.305 23.8052 20.171 23.8052 16.305V7.33334C23.8052 3.46735 20.6712 0.333344 16.8052 0.333344ZM12.3135 16.83C9.55197 16.8236 7.31491 14.5865 7.3085 11.825C7.30378 9.79384 8.52432 7.96027 10.4 7.18079C12.2756 6.40132 14.4362 6.82978 15.8725 8.26604C17.3087 9.70229 17.7372 11.8629 16.9577 13.7385C16.1782 15.6142 14.3447 16.8347 12.3135 16.83ZM16.6709 6.06374C16.8707 6.53997 17.3387 6.84806 17.8552 6.84334C18.551 6.84334 19.1152 6.27922 19.1152 5.58334C19.1199 5.06691 18.8118 4.59891 18.3356 4.3991C17.8593 4.19928 17.3095 4.30734 16.9443 4.67253C16.5792 5.03771 16.4711 5.5875 16.6709 6.06374Z" fill="white"/>
</svg>
