<svg width="17" height="22" viewBox="0 0 17 22" fill="none" xmlns="http://www.w3.org/2000/svg">
<path fill-rule="evenodd" clip-rule="evenodd" d="M4.14686 0.505062H12.6034C13.597 0.45428 14.5707 0.787237 15.3096 1.43045C16.0485 2.07366 16.4918 2.97425 16.5418 3.93346V20.3291C16.5432 20.6575 16.4011 20.9712 16.1504 21.1932C15.8998 21.4151 15.5638 21.5248 15.225 21.4953C14.9281 21.4953 14.6394 21.401 14.4035 21.2271L9.17249 17.3905C8.67852 17.0329 7.9993 17.0329 7.50533 17.3905L2.32265 21.2271C2.09332 21.3963 1.81393 21.4902 1.52532 21.4953C1.18653 21.5248 0.850537 21.4151 0.599878 21.1932C0.349219 20.9712 0.207125 20.6575 0.208506 20.3291V3.93346C0.258468 2.97425 0.701815 2.07366 1.4407 1.43045C2.17959 0.787237 3.15327 0.45428 4.14686 0.505062ZM10.296 16.0028L14.7055 19.268L14.6814 3.93346C14.567 2.91679 13.6353 2.17252 12.5793 2.25424H4.1227C3.06665 2.17252 2.13496 2.91679 2.02063 3.93346V19.268L6.43014 16.0028C7.57193 15.1631 9.15422 15.1631 10.296 16.0028Z" fill="#CBD2E4"/>
</svg>
