<svg width="24" height="24" viewBox="0 0 24 24" fill="none" xmlns="http://www.w3.org/2000/svg">
<path d="M16.8 8.51662H7.20001V7.60248C7.19929 5.07815 9.34772 3.03117 11.9987 3.03049C13.7453 3.03002 15.3544 3.9331 16.2 5.38843C16.4574 5.82992 17.0419 5.98916 17.5056 5.74405C17.9692 5.49895 18.1364 4.94231 17.879 4.50082C16.0813 1.40902 11.9919 0.290317 8.74494 2.00216C6.60614 3.12977 5.27918 5.27454 5.27999 7.60253V8.90429C3.53282 9.63039 2.40251 11.2722 2.39999 13.0874V18.5723C2.40319 21.0954 4.55036 23.14 7.20001 23.1431H16.8C19.4496 23.1401 21.5968 21.0954 21.6 18.5723V13.0874C21.5968 10.5642 19.4496 8.51962 16.8 8.51662ZM12.96 16.7439C12.96 17.2488 12.5302 17.6581 12 17.6581C11.4698 17.6581 11.04 17.2488 11.04 16.7439V14.9156C11.04 14.4108 11.4698 14.0015 12 14.0015C12.5302 14.0015 12.96 14.4108 12.96 14.9156V16.7439Z" fill="#F25D29"/>
</svg>
