<svg width="71" height="70" viewBox="0 0 71 70" fill="none" xmlns="http://www.w3.org/2000/svg">
<g filter="url(#filter0_i_203_7380)">
<rect x="0.5" width="70" height="70" rx="35" fill="white" fill-opacity="0.2"/>
<path fill-rule="evenodd" clip-rule="evenodd" d="M39.9625 22.5H30.5C26.3579 22.5 23 25.8579 23 30V39.4625C23 43.6046 26.3579 46.9625 30.5 46.9625H39.9625C44.1046 46.9625 47.4625 43.6046 47.4625 39.4625V30C47.4625 25.8579 44.1046 22.5 39.9625 22.5ZM36.1625 38.475C36.1625 38.9928 35.7428 39.4125 35.225 39.4125C34.7072 39.4125 34.2875 38.9928 34.2875 38.475V34.6C34.2875 34.0822 34.7072 33.6625 35.225 33.6625C35.7428 33.6625 36.1625 34.0822 36.1625 34.6V38.475ZM35.2375 31.9C35.7484 31.9 36.1625 31.4859 36.1625 30.975L36.175 30.95C36.175 30.4322 35.7553 30.0125 35.2375 30.0125C34.7581 30.0678 34.3963 30.4737 34.3963 30.9563C34.3963 31.4388 34.7581 31.8447 35.2375 31.9Z" fill="#BD82FF"/>
<rect x="1" y="0.5" width="69" height="69" rx="34.5" stroke="white"/>
</g>
<defs>
<filter id="filter0_i_203_7380" x="0.5" y="0" width="74" height="74" filterUnits="userSpaceOnUse" color-interpolation-filters="sRGB">
<feFlood flood-opacity="0" result="BackgroundImageFix"/>
<feBlend mode="normal" in="SourceGraphic" in2="BackgroundImageFix" result="shape"/>
<feColorMatrix in="SourceAlpha" type="matrix" values="0 0 0 0 0 0 0 0 0 0 0 0 0 0 0 0 0 0 127 0" result="hardAlpha"/>
<feOffset dx="4" dy="4"/>
<feGaussianBlur stdDeviation="4"/>
<feComposite in2="hardAlpha" operator="arithmetic" k2="-1" k3="1"/>
<feColorMatrix type="matrix" values="0 0 0 0 1 0 0 0 0 1 0 0 0 0 1 0 0 0 0.5 0"/>
<feBlend mode="normal" in2="shape" result="effect1_innerShadow_203_7380"/>
</filter>
</defs>
</svg>
