<svg width="20" height="20" viewBox="0 0 20 20" fill="none" xmlns="http://www.w3.org/2000/svg">
<g clip-path="url(#clip0_357_19613)">
<path d="M10 19.375C15.1777 19.375 19.375 15.1777 19.375 10C19.375 4.82233 15.1777 0.625 10 0.625C4.82233 0.625 0.625 4.82233 0.625 10C0.625 15.1777 4.82233 19.375 10 19.375Z" fill="#708FE8"/>
<path fill-rule="evenodd" clip-rule="evenodd" d="M19.1804 11.9095C18.4201 15.583 15.5104 18.4699 11.8247 19.197L7.14891 14.5212C6.6068 14.0455 6.22797 13.4309 6.04903 12.71C5.98239 12.4414 6.02426 12.1597 6.16563 11.922C6.30989 11.6795 6.54391 11.5061 6.81789 11.4387C7.08711 11.3725 7.36938 11.4148 7.60727 11.5571C7.69621 11.6103 7.77719 11.6765 7.8468 11.7532L9.48196 13.3884C9.79 13.4514 10.0956 13.4546 10.4058 13.417C10.5039 13.4051 10.6056 13.3884 10.7079 13.3662L7.19649 9.85476C6.66539 9.34613 6.36348 8.69477 6.32492 7.89988C6.29 7.18004 6.48457 6.49469 6.91563 5.91488C7.07981 5.69402 7.27266 5.49594 7.4861 5.32242C7.91164 4.97645 8.41844 4.73426 8.94879 4.59645V4.21621C8.94879 3.63523 9.41996 3.16406 10.0009 3.16406C10.3096 3.16406 10.5872 3.29703 10.7798 3.50883L19.1804 11.9095Z" fill="#5575D0"/>
<path fill-rule="evenodd" clip-rule="evenodd" d="M10.0641 6.55851C10.0431 6.5598 10.022 6.56042 10.0009 6.56042C9.98399 6.56042 9.96707 6.55995 9.95016 6.55913C9.8293 6.56292 9.7086 6.57667 9.59004 6.60058C9.31102 6.65675 9.0325 6.7707 8.81043 6.95124C8.54813 7.16452 8.40582 7.45902 8.42239 7.80046C8.43731 8.10796 8.58856 8.32441 8.84012 8.48863C9.21586 8.7339 9.73688 8.85831 10.1782 8.93074C10.9459 9.05675 11.7391 9.26347 12.4107 9.6689C13.2934 10.2018 13.8349 10.9762 13.9611 12.0154C13.9735 12.1178 13.9789 12.2217 13.9813 12.3247C14.0044 13.2945 13.5853 14.0993 12.8224 14.6782C12.3116 15.0658 11.6839 15.3141 11.0531 15.4409V15.7837C11.0531 16.3647 10.5819 16.8359 10.0009 16.8359C9.41992 16.8359 8.94875 16.3648 8.94875 15.7838V15.4203C8.45254 15.3064 7.9741 15.1105 7.54985 14.828C6.79231 14.3234 6.26926 13.5973 6.04903 12.7099C5.98239 12.4414 6.02426 12.1596 6.16563 11.9219C6.30989 11.6795 6.54391 11.5061 6.81789 11.4387C7.08711 11.3725 7.36938 11.4148 7.60727 11.5571C7.84852 11.7013 8.02094 11.9344 8.08852 12.2073C8.17957 12.575 8.39778 12.8686 8.71059 13.0769C9.20934 13.409 9.82313 13.4877 10.4057 13.4169C10.7947 13.3698 11.2397 13.247 11.555 13.0077C12.1341 12.5684 11.8828 11.8062 11.325 11.4694C10.8974 11.2112 10.3291 11.0836 9.84016 11.0034C9.09899 10.8817 8.33004 10.6625 7.69563 10.2484C6.855 9.6996 6.37414 8.91726 6.32481 7.89984C6.28989 7.17999 6.48446 6.49464 6.91551 5.91484C7.07969 5.69398 7.27254 5.49589 7.48598 5.32238C7.91153 4.9764 8.41832 4.73421 8.94867 4.5964V4.21617C8.94867 3.63519 9.41985 3.16402 10.0008 3.16402C10.5818 3.16402 11.053 3.63519 11.053 4.21617V4.58249C11.0559 4.58324 11.0589 4.58398 11.0618 4.58472C12.2573 4.88777 13.1833 5.67683 13.6616 6.81636C13.8855 7.34964 13.6318 7.96972 13.0986 8.19339C12.5653 8.4171 11.9454 8.16351 11.7216 7.63031C11.5049 7.11402 11.0922 6.76089 10.5504 6.62359C10.3916 6.58339 10.228 6.56183 10.0641 6.55851Z" fill="white"/>
</g>
<defs>
<clipPath id="clip0_357_19613">
<rect width="20" height="20" fill="white"/>
</clipPath>
</defs>
</svg>
